%TF.GenerationSoftware,KiCad,Pcbnew,8.0.8*%
%TF.CreationDate,2025-03-23T00:17:45+01:00*%
%TF.ProjectId,am_receiver_v2,616d5f72-6563-4656-9976-65725f76322e,rev?*%
%TF.SameCoordinates,Original*%
%TF.FileFunction,Legend,Top*%
%TF.FilePolarity,Positive*%
%FSLAX46Y46*%
G04 Gerber Fmt 4.6, Leading zero omitted, Abs format (unit mm)*
G04 Created by KiCad (PCBNEW 8.0.8) date 2025-03-23 00:17:45*
%MOMM*%
%LPD*%
G01*
G04 APERTURE LIST*
%ADD10C,0.500000*%
%ADD11C,0.700000*%
%ADD12C,0.300000*%
%ADD13C,0.150000*%
%ADD14C,0.100000*%
%ADD15C,0.152400*%
%ADD16C,0.120000*%
%ADD17C,0.000000*%
G04 APERTURE END LIST*
D10*
X2331952Y-6174185D02*
X4831952Y-6174185D01*
X4831952Y-6174185D02*
X4831952Y-7126566D01*
X4831952Y-7126566D02*
X4712904Y-7364661D01*
X4712904Y-7364661D02*
X4593857Y-7483708D01*
X4593857Y-7483708D02*
X4355761Y-7602756D01*
X4355761Y-7602756D02*
X3998619Y-7602756D01*
X3998619Y-7602756D02*
X3760523Y-7483708D01*
X3760523Y-7483708D02*
X3641476Y-7364661D01*
X3641476Y-7364661D02*
X3522428Y-7126566D01*
X3522428Y-7126566D02*
X3522428Y-6174185D01*
X4831952Y-8436089D02*
X2331952Y-9031327D01*
X2331952Y-9031327D02*
X4117666Y-9507518D01*
X4117666Y-9507518D02*
X2331952Y-9983708D01*
X2331952Y-9983708D02*
X4831952Y-10578947D01*
X2331952Y-12959899D02*
X3522428Y-12126566D01*
X2331952Y-11531328D02*
X4831952Y-11531328D01*
X4831952Y-11531328D02*
X4831952Y-12483709D01*
X4831952Y-12483709D02*
X4712904Y-12721804D01*
X4712904Y-12721804D02*
X4593857Y-12840851D01*
X4593857Y-12840851D02*
X4355761Y-12959899D01*
X4355761Y-12959899D02*
X3998619Y-12959899D01*
X3998619Y-12959899D02*
X3760523Y-12840851D01*
X3760523Y-12840851D02*
X3641476Y-12721804D01*
X3641476Y-12721804D02*
X3522428Y-12483709D01*
X3522428Y-12483709D02*
X3522428Y-11531328D01*
X4831952Y-16412280D02*
X4831952Y-16888471D01*
X4831952Y-16888471D02*
X4712904Y-17126566D01*
X4712904Y-17126566D02*
X4474809Y-17364661D01*
X4474809Y-17364661D02*
X3998619Y-17483709D01*
X3998619Y-17483709D02*
X3165285Y-17483709D01*
X3165285Y-17483709D02*
X2689095Y-17364661D01*
X2689095Y-17364661D02*
X2451000Y-17126566D01*
X2451000Y-17126566D02*
X2331952Y-16888471D01*
X2331952Y-16888471D02*
X2331952Y-16412280D01*
X2331952Y-16412280D02*
X2451000Y-16174185D01*
X2451000Y-16174185D02*
X2689095Y-15936090D01*
X2689095Y-15936090D02*
X3165285Y-15817042D01*
X3165285Y-15817042D02*
X3998619Y-15817042D01*
X3998619Y-15817042D02*
X4474809Y-15936090D01*
X4474809Y-15936090D02*
X4712904Y-16174185D01*
X4712904Y-16174185D02*
X4831952Y-16412280D01*
X2331952Y-18555138D02*
X4831952Y-18555138D01*
X4831952Y-18555138D02*
X2331952Y-19983709D01*
X2331952Y-19983709D02*
X4831952Y-19983709D01*
X3641476Y-48007518D02*
X3641476Y-47174185D01*
X2331952Y-47174185D02*
X4831952Y-47174185D01*
X4831952Y-47174185D02*
X4831952Y-48364661D01*
X2331952Y-50745613D02*
X3522428Y-49912280D01*
X2331952Y-49317042D02*
X4831952Y-49317042D01*
X4831952Y-49317042D02*
X4831952Y-50269423D01*
X4831952Y-50269423D02*
X4712904Y-50507518D01*
X4712904Y-50507518D02*
X4593857Y-50626565D01*
X4593857Y-50626565D02*
X4355761Y-50745613D01*
X4355761Y-50745613D02*
X3998619Y-50745613D01*
X3998619Y-50745613D02*
X3760523Y-50626565D01*
X3760523Y-50626565D02*
X3641476Y-50507518D01*
X3641476Y-50507518D02*
X3522428Y-50269423D01*
X3522428Y-50269423D02*
X3522428Y-49317042D01*
X3641476Y-51817042D02*
X3641476Y-52650375D01*
X2331952Y-53007518D02*
X2331952Y-51817042D01*
X2331952Y-51817042D02*
X4831952Y-51817042D01*
X4831952Y-51817042D02*
X4831952Y-53007518D01*
X2093857Y-55745613D02*
X2212904Y-55507518D01*
X2212904Y-55507518D02*
X2451000Y-55269423D01*
X2451000Y-55269423D02*
X2808142Y-54912280D01*
X2808142Y-54912280D02*
X2927190Y-54674185D01*
X2927190Y-54674185D02*
X2927190Y-54436089D01*
X2331952Y-54555137D02*
X2451000Y-54317042D01*
X2451000Y-54317042D02*
X2689095Y-54078947D01*
X2689095Y-54078947D02*
X3165285Y-53959899D01*
X3165285Y-53959899D02*
X3998619Y-53959899D01*
X3998619Y-53959899D02*
X4474809Y-54078947D01*
X4474809Y-54078947D02*
X4712904Y-54317042D01*
X4712904Y-54317042D02*
X4831952Y-54555137D01*
X4831952Y-54555137D02*
X4831952Y-55031328D01*
X4831952Y-55031328D02*
X4712904Y-55269423D01*
X4712904Y-55269423D02*
X4474809Y-55507518D01*
X4474809Y-55507518D02*
X3998619Y-55626566D01*
X3998619Y-55626566D02*
X3165285Y-55626566D01*
X3165285Y-55626566D02*
X2689095Y-55507518D01*
X2689095Y-55507518D02*
X2451000Y-55269423D01*
X2451000Y-55269423D02*
X2331952Y-55031328D01*
X2331952Y-55031328D02*
X2331952Y-54555137D01*
X4831952Y-24817042D02*
X2331952Y-25650375D01*
X2331952Y-25650375D02*
X4831952Y-26483708D01*
X4831952Y-27793232D02*
X4831952Y-28269423D01*
X4831952Y-28269423D02*
X4712904Y-28507518D01*
X4712904Y-28507518D02*
X4474809Y-28745613D01*
X4474809Y-28745613D02*
X3998619Y-28864661D01*
X3998619Y-28864661D02*
X3165285Y-28864661D01*
X3165285Y-28864661D02*
X2689095Y-28745613D01*
X2689095Y-28745613D02*
X2451000Y-28507518D01*
X2451000Y-28507518D02*
X2331952Y-28269423D01*
X2331952Y-28269423D02*
X2331952Y-27793232D01*
X2331952Y-27793232D02*
X2451000Y-27555137D01*
X2451000Y-27555137D02*
X2689095Y-27317042D01*
X2689095Y-27317042D02*
X3165285Y-27197994D01*
X3165285Y-27197994D02*
X3998619Y-27197994D01*
X3998619Y-27197994D02*
X4474809Y-27317042D01*
X4474809Y-27317042D02*
X4712904Y-27555137D01*
X4712904Y-27555137D02*
X4831952Y-27793232D01*
X2331952Y-31126566D02*
X2331952Y-29936090D01*
X2331952Y-29936090D02*
X4831952Y-29936090D01*
X3641476Y-76757518D02*
X3522428Y-77114661D01*
X3522428Y-77114661D02*
X3403380Y-77233708D01*
X3403380Y-77233708D02*
X3165285Y-77352756D01*
X3165285Y-77352756D02*
X2808142Y-77352756D01*
X2808142Y-77352756D02*
X2570047Y-77233708D01*
X2570047Y-77233708D02*
X2451000Y-77114661D01*
X2451000Y-77114661D02*
X2331952Y-76876566D01*
X2331952Y-76876566D02*
X2331952Y-75924185D01*
X2331952Y-75924185D02*
X4831952Y-75924185D01*
X4831952Y-75924185D02*
X4831952Y-76757518D01*
X4831952Y-76757518D02*
X4712904Y-76995613D01*
X4712904Y-76995613D02*
X4593857Y-77114661D01*
X4593857Y-77114661D02*
X4355761Y-77233708D01*
X4355761Y-77233708D02*
X4117666Y-77233708D01*
X4117666Y-77233708D02*
X3879571Y-77114661D01*
X3879571Y-77114661D02*
X3760523Y-76995613D01*
X3760523Y-76995613D02*
X3641476Y-76757518D01*
X3641476Y-76757518D02*
X3641476Y-75924185D01*
X4831952Y-78186089D02*
X2331952Y-78781327D01*
X2331952Y-78781327D02*
X4117666Y-79257518D01*
X4117666Y-79257518D02*
X2331952Y-79733708D01*
X2331952Y-79733708D02*
X4831952Y-80328947D01*
D11*
X72964732Y-34043859D02*
X74798065Y-34043859D01*
X74798065Y-34043859D02*
X75131399Y-33877192D01*
X75131399Y-33877192D02*
X75298065Y-33543859D01*
X75298065Y-33543859D02*
X75298065Y-32877192D01*
X75298065Y-32877192D02*
X75131399Y-32543859D01*
X73131399Y-34043859D02*
X72964732Y-33710526D01*
X72964732Y-33710526D02*
X72964732Y-32877192D01*
X72964732Y-32877192D02*
X73131399Y-32543859D01*
X73131399Y-32543859D02*
X73464732Y-32377192D01*
X73464732Y-32377192D02*
X73798065Y-32377192D01*
X73798065Y-32377192D02*
X74131399Y-32543859D01*
X74131399Y-32543859D02*
X74298065Y-32877192D01*
X74298065Y-32877192D02*
X74298065Y-33710526D01*
X74298065Y-33710526D02*
X74464732Y-34043859D01*
X75298065Y-37210526D02*
X72964732Y-37210526D01*
X75298065Y-35710526D02*
X73464732Y-35710526D01*
X73464732Y-35710526D02*
X73131399Y-35877193D01*
X73131399Y-35877193D02*
X72964732Y-36210526D01*
X72964732Y-36210526D02*
X72964732Y-36710526D01*
X72964732Y-36710526D02*
X73131399Y-37043859D01*
X73131399Y-37043859D02*
X73298065Y-37210526D01*
X72964732Y-38877193D02*
X75298065Y-38877193D01*
X74631399Y-38877193D02*
X74964732Y-39043860D01*
X74964732Y-39043860D02*
X75131399Y-39210526D01*
X75131399Y-39210526D02*
X75298065Y-39543860D01*
X75298065Y-39543860D02*
X75298065Y-39877193D01*
X72964732Y-41543860D02*
X73131399Y-41210527D01*
X73131399Y-41210527D02*
X73298065Y-41043860D01*
X73298065Y-41043860D02*
X73631399Y-40877193D01*
X73631399Y-40877193D02*
X74631399Y-40877193D01*
X74631399Y-40877193D02*
X74964732Y-41043860D01*
X74964732Y-41043860D02*
X75131399Y-41210527D01*
X75131399Y-41210527D02*
X75298065Y-41543860D01*
X75298065Y-41543860D02*
X75298065Y-42043860D01*
X75298065Y-42043860D02*
X75131399Y-42377193D01*
X75131399Y-42377193D02*
X74964732Y-42543860D01*
X74964732Y-42543860D02*
X74631399Y-42710527D01*
X74631399Y-42710527D02*
X73631399Y-42710527D01*
X73631399Y-42710527D02*
X73298065Y-42543860D01*
X73298065Y-42543860D02*
X73131399Y-42377193D01*
X73131399Y-42377193D02*
X72964732Y-42043860D01*
X72964732Y-42043860D02*
X72964732Y-41543860D01*
X72964732Y-44210527D02*
X75298065Y-44210527D01*
X74631399Y-44210527D02*
X74964732Y-44377194D01*
X74964732Y-44377194D02*
X75131399Y-44543860D01*
X75131399Y-44543860D02*
X75298065Y-44877194D01*
X75298065Y-44877194D02*
X75298065Y-45210527D01*
X72964732Y-47877194D02*
X74798065Y-47877194D01*
X74798065Y-47877194D02*
X75131399Y-47710527D01*
X75131399Y-47710527D02*
X75298065Y-47377194D01*
X75298065Y-47377194D02*
X75298065Y-46710527D01*
X75298065Y-46710527D02*
X75131399Y-46377194D01*
X73131399Y-47877194D02*
X72964732Y-47543861D01*
X72964732Y-47543861D02*
X72964732Y-46710527D01*
X72964732Y-46710527D02*
X73131399Y-46377194D01*
X73131399Y-46377194D02*
X73464732Y-46210527D01*
X73464732Y-46210527D02*
X73798065Y-46210527D01*
X73798065Y-46210527D02*
X74131399Y-46377194D01*
X74131399Y-46377194D02*
X74298065Y-46710527D01*
X74298065Y-46710527D02*
X74298065Y-47543861D01*
X74298065Y-47543861D02*
X74464732Y-47877194D01*
X72964732Y-52210528D02*
X75298065Y-52210528D01*
X74631399Y-52210528D02*
X74964732Y-52377195D01*
X74964732Y-52377195D02*
X75131399Y-52543861D01*
X75131399Y-52543861D02*
X75298065Y-52877195D01*
X75298065Y-52877195D02*
X75298065Y-53210528D01*
X72964732Y-55877195D02*
X74798065Y-55877195D01*
X74798065Y-55877195D02*
X75131399Y-55710528D01*
X75131399Y-55710528D02*
X75298065Y-55377195D01*
X75298065Y-55377195D02*
X75298065Y-54710528D01*
X75298065Y-54710528D02*
X75131399Y-54377195D01*
X73131399Y-55877195D02*
X72964732Y-55543862D01*
X72964732Y-55543862D02*
X72964732Y-54710528D01*
X72964732Y-54710528D02*
X73131399Y-54377195D01*
X73131399Y-54377195D02*
X73464732Y-54210528D01*
X73464732Y-54210528D02*
X73798065Y-54210528D01*
X73798065Y-54210528D02*
X74131399Y-54377195D01*
X74131399Y-54377195D02*
X74298065Y-54710528D01*
X74298065Y-54710528D02*
X74298065Y-55543862D01*
X74298065Y-55543862D02*
X74464732Y-55877195D01*
X72964732Y-59043862D02*
X76464732Y-59043862D01*
X73131399Y-59043862D02*
X72964732Y-58710529D01*
X72964732Y-58710529D02*
X72964732Y-58043862D01*
X72964732Y-58043862D02*
X73131399Y-57710529D01*
X73131399Y-57710529D02*
X73298065Y-57543862D01*
X73298065Y-57543862D02*
X73631399Y-57377195D01*
X73631399Y-57377195D02*
X74631399Y-57377195D01*
X74631399Y-57377195D02*
X74964732Y-57543862D01*
X74964732Y-57543862D02*
X75131399Y-57710529D01*
X75131399Y-57710529D02*
X75298065Y-58043862D01*
X75298065Y-58043862D02*
X75298065Y-58710529D01*
X75298065Y-58710529D02*
X75131399Y-59043862D01*
X72964732Y-60710529D02*
X75298065Y-60710529D01*
X76464732Y-60710529D02*
X76298065Y-60543862D01*
X76298065Y-60543862D02*
X76131399Y-60710529D01*
X76131399Y-60710529D02*
X76298065Y-60877196D01*
X76298065Y-60877196D02*
X76464732Y-60710529D01*
X76464732Y-60710529D02*
X76131399Y-60710529D01*
X72964732Y-62877196D02*
X73131399Y-62543863D01*
X73131399Y-62543863D02*
X73298065Y-62377196D01*
X73298065Y-62377196D02*
X73631399Y-62210529D01*
X73631399Y-62210529D02*
X74631399Y-62210529D01*
X74631399Y-62210529D02*
X74964732Y-62377196D01*
X74964732Y-62377196D02*
X75131399Y-62543863D01*
X75131399Y-62543863D02*
X75298065Y-62877196D01*
X75298065Y-62877196D02*
X75298065Y-63377196D01*
X75298065Y-63377196D02*
X75131399Y-63710529D01*
X75131399Y-63710529D02*
X74964732Y-63877196D01*
X74964732Y-63877196D02*
X74631399Y-64043863D01*
X74631399Y-64043863D02*
X73631399Y-64043863D01*
X73631399Y-64043863D02*
X73298065Y-63877196D01*
X73298065Y-63877196D02*
X73131399Y-63710529D01*
X73131399Y-63710529D02*
X72964732Y-63377196D01*
X72964732Y-63377196D02*
X72964732Y-62877196D01*
D12*
X70877742Y-83483082D02*
X70877742Y-84197368D01*
X70449171Y-83340225D02*
X71949171Y-83840225D01*
X71949171Y-83840225D02*
X70449171Y-84340225D01*
X70449171Y-84840224D02*
X71949171Y-84840224D01*
X71949171Y-84840224D02*
X70449171Y-85697367D01*
X70449171Y-85697367D02*
X71949171Y-85697367D01*
X71949171Y-86197368D02*
X71949171Y-87054511D01*
X70449171Y-86625939D02*
X71949171Y-86625939D01*
D13*
X67738095Y-65454819D02*
X67738095Y-66264342D01*
X67738095Y-66264342D02*
X67785714Y-66359580D01*
X67785714Y-66359580D02*
X67833333Y-66407200D01*
X67833333Y-66407200D02*
X67928571Y-66454819D01*
X67928571Y-66454819D02*
X68119047Y-66454819D01*
X68119047Y-66454819D02*
X68214285Y-66407200D01*
X68214285Y-66407200D02*
X68261904Y-66359580D01*
X68261904Y-66359580D02*
X68309523Y-66264342D01*
X68309523Y-66264342D02*
X68309523Y-65454819D01*
X69261904Y-65454819D02*
X68785714Y-65454819D01*
X68785714Y-65454819D02*
X68738095Y-65931009D01*
X68738095Y-65931009D02*
X68785714Y-65883390D01*
X68785714Y-65883390D02*
X68880952Y-65835771D01*
X68880952Y-65835771D02*
X69119047Y-65835771D01*
X69119047Y-65835771D02*
X69214285Y-65883390D01*
X69214285Y-65883390D02*
X69261904Y-65931009D01*
X69261904Y-65931009D02*
X69309523Y-66026247D01*
X69309523Y-66026247D02*
X69309523Y-66264342D01*
X69309523Y-66264342D02*
X69261904Y-66359580D01*
X69261904Y-66359580D02*
X69214285Y-66407200D01*
X69214285Y-66407200D02*
X69119047Y-66454819D01*
X69119047Y-66454819D02*
X68880952Y-66454819D01*
X68880952Y-66454819D02*
X68785714Y-66407200D01*
X68785714Y-66407200D02*
X68738095Y-66359580D01*
X68357142Y-62859580D02*
X68309523Y-62907200D01*
X68309523Y-62907200D02*
X68166666Y-62954819D01*
X68166666Y-62954819D02*
X68071428Y-62954819D01*
X68071428Y-62954819D02*
X67928571Y-62907200D01*
X67928571Y-62907200D02*
X67833333Y-62811961D01*
X67833333Y-62811961D02*
X67785714Y-62716723D01*
X67785714Y-62716723D02*
X67738095Y-62526247D01*
X67738095Y-62526247D02*
X67738095Y-62383390D01*
X67738095Y-62383390D02*
X67785714Y-62192914D01*
X67785714Y-62192914D02*
X67833333Y-62097676D01*
X67833333Y-62097676D02*
X67928571Y-62002438D01*
X67928571Y-62002438D02*
X68071428Y-61954819D01*
X68071428Y-61954819D02*
X68166666Y-61954819D01*
X68166666Y-61954819D02*
X68309523Y-62002438D01*
X68309523Y-62002438D02*
X68357142Y-62050057D01*
X68738095Y-62050057D02*
X68785714Y-62002438D01*
X68785714Y-62002438D02*
X68880952Y-61954819D01*
X68880952Y-61954819D02*
X69119047Y-61954819D01*
X69119047Y-61954819D02*
X69214285Y-62002438D01*
X69214285Y-62002438D02*
X69261904Y-62050057D01*
X69261904Y-62050057D02*
X69309523Y-62145295D01*
X69309523Y-62145295D02*
X69309523Y-62240533D01*
X69309523Y-62240533D02*
X69261904Y-62383390D01*
X69261904Y-62383390D02*
X68690476Y-62954819D01*
X68690476Y-62954819D02*
X69309523Y-62954819D01*
X70166666Y-62288152D02*
X70166666Y-62954819D01*
X69928571Y-61907200D02*
X69690476Y-62621485D01*
X69690476Y-62621485D02*
X70309523Y-62621485D01*
X68357142Y-74609580D02*
X68309523Y-74657200D01*
X68309523Y-74657200D02*
X68166666Y-74704819D01*
X68166666Y-74704819D02*
X68071428Y-74704819D01*
X68071428Y-74704819D02*
X67928571Y-74657200D01*
X67928571Y-74657200D02*
X67833333Y-74561961D01*
X67833333Y-74561961D02*
X67785714Y-74466723D01*
X67785714Y-74466723D02*
X67738095Y-74276247D01*
X67738095Y-74276247D02*
X67738095Y-74133390D01*
X67738095Y-74133390D02*
X67785714Y-73942914D01*
X67785714Y-73942914D02*
X67833333Y-73847676D01*
X67833333Y-73847676D02*
X67928571Y-73752438D01*
X67928571Y-73752438D02*
X68071428Y-73704819D01*
X68071428Y-73704819D02*
X68166666Y-73704819D01*
X68166666Y-73704819D02*
X68309523Y-73752438D01*
X68309523Y-73752438D02*
X68357142Y-73800057D01*
X68738095Y-73800057D02*
X68785714Y-73752438D01*
X68785714Y-73752438D02*
X68880952Y-73704819D01*
X68880952Y-73704819D02*
X69119047Y-73704819D01*
X69119047Y-73704819D02*
X69214285Y-73752438D01*
X69214285Y-73752438D02*
X69261904Y-73800057D01*
X69261904Y-73800057D02*
X69309523Y-73895295D01*
X69309523Y-73895295D02*
X69309523Y-73990533D01*
X69309523Y-73990533D02*
X69261904Y-74133390D01*
X69261904Y-74133390D02*
X68690476Y-74704819D01*
X68690476Y-74704819D02*
X69309523Y-74704819D01*
X69642857Y-73704819D02*
X70261904Y-73704819D01*
X70261904Y-73704819D02*
X69928571Y-74085771D01*
X69928571Y-74085771D02*
X70071428Y-74085771D01*
X70071428Y-74085771D02*
X70166666Y-74133390D01*
X70166666Y-74133390D02*
X70214285Y-74181009D01*
X70214285Y-74181009D02*
X70261904Y-74276247D01*
X70261904Y-74276247D02*
X70261904Y-74514342D01*
X70261904Y-74514342D02*
X70214285Y-74609580D01*
X70214285Y-74609580D02*
X70166666Y-74657200D01*
X70166666Y-74657200D02*
X70071428Y-74704819D01*
X70071428Y-74704819D02*
X69785714Y-74704819D01*
X69785714Y-74704819D02*
X69690476Y-74657200D01*
X69690476Y-74657200D02*
X69642857Y-74609580D01*
X54904580Y-14932857D02*
X54952200Y-14980476D01*
X54952200Y-14980476D02*
X54999819Y-15123333D01*
X54999819Y-15123333D02*
X54999819Y-15218571D01*
X54999819Y-15218571D02*
X54952200Y-15361428D01*
X54952200Y-15361428D02*
X54856961Y-15456666D01*
X54856961Y-15456666D02*
X54761723Y-15504285D01*
X54761723Y-15504285D02*
X54571247Y-15551904D01*
X54571247Y-15551904D02*
X54428390Y-15551904D01*
X54428390Y-15551904D02*
X54237914Y-15504285D01*
X54237914Y-15504285D02*
X54142676Y-15456666D01*
X54142676Y-15456666D02*
X54047438Y-15361428D01*
X54047438Y-15361428D02*
X53999819Y-15218571D01*
X53999819Y-15218571D02*
X53999819Y-15123333D01*
X53999819Y-15123333D02*
X54047438Y-14980476D01*
X54047438Y-14980476D02*
X54095057Y-14932857D01*
X54999819Y-13980476D02*
X54999819Y-14551904D01*
X54999819Y-14266190D02*
X53999819Y-14266190D01*
X53999819Y-14266190D02*
X54142676Y-14361428D01*
X54142676Y-14361428D02*
X54237914Y-14456666D01*
X54237914Y-14456666D02*
X54285533Y-14551904D01*
X53999819Y-13361428D02*
X53999819Y-13266190D01*
X53999819Y-13266190D02*
X54047438Y-13170952D01*
X54047438Y-13170952D02*
X54095057Y-13123333D01*
X54095057Y-13123333D02*
X54190295Y-13075714D01*
X54190295Y-13075714D02*
X54380771Y-13028095D01*
X54380771Y-13028095D02*
X54618866Y-13028095D01*
X54618866Y-13028095D02*
X54809342Y-13075714D01*
X54809342Y-13075714D02*
X54904580Y-13123333D01*
X54904580Y-13123333D02*
X54952200Y-13170952D01*
X54952200Y-13170952D02*
X54999819Y-13266190D01*
X54999819Y-13266190D02*
X54999819Y-13361428D01*
X54999819Y-13361428D02*
X54952200Y-13456666D01*
X54952200Y-13456666D02*
X54904580Y-13504285D01*
X54904580Y-13504285D02*
X54809342Y-13551904D01*
X54809342Y-13551904D02*
X54618866Y-13599523D01*
X54618866Y-13599523D02*
X54380771Y-13599523D01*
X54380771Y-13599523D02*
X54190295Y-13551904D01*
X54190295Y-13551904D02*
X54095057Y-13504285D01*
X54095057Y-13504285D02*
X54047438Y-13456666D01*
X54047438Y-13456666D02*
X53999819Y-13361428D01*
X48033095Y-11229819D02*
X48033095Y-12039342D01*
X48033095Y-12039342D02*
X48080714Y-12134580D01*
X48080714Y-12134580D02*
X48128333Y-12182200D01*
X48128333Y-12182200D02*
X48223571Y-12229819D01*
X48223571Y-12229819D02*
X48414047Y-12229819D01*
X48414047Y-12229819D02*
X48509285Y-12182200D01*
X48509285Y-12182200D02*
X48556904Y-12134580D01*
X48556904Y-12134580D02*
X48604523Y-12039342D01*
X48604523Y-12039342D02*
X48604523Y-11229819D01*
X49509285Y-11229819D02*
X49318809Y-11229819D01*
X49318809Y-11229819D02*
X49223571Y-11277438D01*
X49223571Y-11277438D02*
X49175952Y-11325057D01*
X49175952Y-11325057D02*
X49080714Y-11467914D01*
X49080714Y-11467914D02*
X49033095Y-11658390D01*
X49033095Y-11658390D02*
X49033095Y-12039342D01*
X49033095Y-12039342D02*
X49080714Y-12134580D01*
X49080714Y-12134580D02*
X49128333Y-12182200D01*
X49128333Y-12182200D02*
X49223571Y-12229819D01*
X49223571Y-12229819D02*
X49414047Y-12229819D01*
X49414047Y-12229819D02*
X49509285Y-12182200D01*
X49509285Y-12182200D02*
X49556904Y-12134580D01*
X49556904Y-12134580D02*
X49604523Y-12039342D01*
X49604523Y-12039342D02*
X49604523Y-11801247D01*
X49604523Y-11801247D02*
X49556904Y-11706009D01*
X49556904Y-11706009D02*
X49509285Y-11658390D01*
X49509285Y-11658390D02*
X49414047Y-11610771D01*
X49414047Y-11610771D02*
X49223571Y-11610771D01*
X49223571Y-11610771D02*
X49128333Y-11658390D01*
X49128333Y-11658390D02*
X49080714Y-11706009D01*
X49080714Y-11706009D02*
X49033095Y-11801247D01*
D14*
X10916667Y-24159800D02*
X11059524Y-24207419D01*
X11059524Y-24207419D02*
X11297619Y-24207419D01*
X11297619Y-24207419D02*
X11392857Y-24159800D01*
X11392857Y-24159800D02*
X11440476Y-24112180D01*
X11440476Y-24112180D02*
X11488095Y-24016942D01*
X11488095Y-24016942D02*
X11488095Y-23921704D01*
X11488095Y-23921704D02*
X11440476Y-23826466D01*
X11440476Y-23826466D02*
X11392857Y-23778847D01*
X11392857Y-23778847D02*
X11297619Y-23731228D01*
X11297619Y-23731228D02*
X11107143Y-23683609D01*
X11107143Y-23683609D02*
X11011905Y-23635990D01*
X11011905Y-23635990D02*
X10964286Y-23588371D01*
X10964286Y-23588371D02*
X10916667Y-23493133D01*
X10916667Y-23493133D02*
X10916667Y-23397895D01*
X10916667Y-23397895D02*
X10964286Y-23302657D01*
X10964286Y-23302657D02*
X11011905Y-23255038D01*
X11011905Y-23255038D02*
X11107143Y-23207419D01*
X11107143Y-23207419D02*
X11345238Y-23207419D01*
X11345238Y-23207419D02*
X11488095Y-23255038D01*
X11821429Y-23207419D02*
X12059524Y-24207419D01*
X12059524Y-24207419D02*
X12250000Y-23493133D01*
X12250000Y-23493133D02*
X12440476Y-24207419D01*
X12440476Y-24207419D02*
X12678572Y-23207419D01*
X13583333Y-24207419D02*
X13011905Y-24207419D01*
X13297619Y-24207419D02*
X13297619Y-23207419D01*
X13297619Y-23207419D02*
X13202381Y-23350276D01*
X13202381Y-23350276D02*
X13107143Y-23445514D01*
X13107143Y-23445514D02*
X13011905Y-23493133D01*
D13*
X32954819Y-89261904D02*
X33764342Y-89261904D01*
X33764342Y-89261904D02*
X33859580Y-89214285D01*
X33859580Y-89214285D02*
X33907200Y-89166666D01*
X33907200Y-89166666D02*
X33954819Y-89071428D01*
X33954819Y-89071428D02*
X33954819Y-88880952D01*
X33954819Y-88880952D02*
X33907200Y-88785714D01*
X33907200Y-88785714D02*
X33859580Y-88738095D01*
X33859580Y-88738095D02*
X33764342Y-88690476D01*
X33764342Y-88690476D02*
X32954819Y-88690476D01*
X33954819Y-87690476D02*
X33954819Y-88261904D01*
X33954819Y-87976190D02*
X32954819Y-87976190D01*
X32954819Y-87976190D02*
X33097676Y-88071428D01*
X33097676Y-88071428D02*
X33192914Y-88166666D01*
X33192914Y-88166666D02*
X33240533Y-88261904D01*
X32054819Y-70511904D02*
X32864342Y-70511904D01*
X32864342Y-70511904D02*
X32959580Y-70464285D01*
X32959580Y-70464285D02*
X33007200Y-70416666D01*
X33007200Y-70416666D02*
X33054819Y-70321428D01*
X33054819Y-70321428D02*
X33054819Y-70130952D01*
X33054819Y-70130952D02*
X33007200Y-70035714D01*
X33007200Y-70035714D02*
X32959580Y-69988095D01*
X32959580Y-69988095D02*
X32864342Y-69940476D01*
X32864342Y-69940476D02*
X32054819Y-69940476D01*
X32150057Y-69511904D02*
X32102438Y-69464285D01*
X32102438Y-69464285D02*
X32054819Y-69369047D01*
X32054819Y-69369047D02*
X32054819Y-69130952D01*
X32054819Y-69130952D02*
X32102438Y-69035714D01*
X32102438Y-69035714D02*
X32150057Y-68988095D01*
X32150057Y-68988095D02*
X32245295Y-68940476D01*
X32245295Y-68940476D02*
X32340533Y-68940476D01*
X32340533Y-68940476D02*
X32483390Y-68988095D01*
X32483390Y-68988095D02*
X33054819Y-69559523D01*
X33054819Y-69559523D02*
X33054819Y-68940476D01*
X32054819Y-41511904D02*
X32864342Y-41511904D01*
X32864342Y-41511904D02*
X32959580Y-41464285D01*
X32959580Y-41464285D02*
X33007200Y-41416666D01*
X33007200Y-41416666D02*
X33054819Y-41321428D01*
X33054819Y-41321428D02*
X33054819Y-41130952D01*
X33054819Y-41130952D02*
X33007200Y-41035714D01*
X33007200Y-41035714D02*
X32959580Y-40988095D01*
X32959580Y-40988095D02*
X32864342Y-40940476D01*
X32864342Y-40940476D02*
X32054819Y-40940476D01*
X32388152Y-40035714D02*
X33054819Y-40035714D01*
X32007200Y-40273809D02*
X32721485Y-40511904D01*
X32721485Y-40511904D02*
X32721485Y-39892857D01*
X32054819Y-56261904D02*
X32864342Y-56261904D01*
X32864342Y-56261904D02*
X32959580Y-56214285D01*
X32959580Y-56214285D02*
X33007200Y-56166666D01*
X33007200Y-56166666D02*
X33054819Y-56071428D01*
X33054819Y-56071428D02*
X33054819Y-55880952D01*
X33054819Y-55880952D02*
X33007200Y-55785714D01*
X33007200Y-55785714D02*
X32959580Y-55738095D01*
X32959580Y-55738095D02*
X32864342Y-55690476D01*
X32864342Y-55690476D02*
X32054819Y-55690476D01*
X32054819Y-55309523D02*
X32054819Y-54690476D01*
X32054819Y-54690476D02*
X32435771Y-55023809D01*
X32435771Y-55023809D02*
X32435771Y-54880952D01*
X32435771Y-54880952D02*
X32483390Y-54785714D01*
X32483390Y-54785714D02*
X32531009Y-54738095D01*
X32531009Y-54738095D02*
X32626247Y-54690476D01*
X32626247Y-54690476D02*
X32864342Y-54690476D01*
X32864342Y-54690476D02*
X32959580Y-54738095D01*
X32959580Y-54738095D02*
X33007200Y-54785714D01*
X33007200Y-54785714D02*
X33054819Y-54880952D01*
X33054819Y-54880952D02*
X33054819Y-55166666D01*
X33054819Y-55166666D02*
X33007200Y-55261904D01*
X33007200Y-55261904D02*
X32959580Y-55309523D01*
X47988095Y-24454819D02*
X47988095Y-25264342D01*
X47988095Y-25264342D02*
X48035714Y-25359580D01*
X48035714Y-25359580D02*
X48083333Y-25407200D01*
X48083333Y-25407200D02*
X48178571Y-25454819D01*
X48178571Y-25454819D02*
X48369047Y-25454819D01*
X48369047Y-25454819D02*
X48464285Y-25407200D01*
X48464285Y-25407200D02*
X48511904Y-25359580D01*
X48511904Y-25359580D02*
X48559523Y-25264342D01*
X48559523Y-25264342D02*
X48559523Y-24454819D01*
X48940476Y-24454819D02*
X49607142Y-24454819D01*
X49607142Y-24454819D02*
X49178571Y-25454819D01*
X65954819Y-82948094D02*
X64954819Y-82948094D01*
X64954819Y-82948094D02*
X64954819Y-82709999D01*
X64954819Y-82709999D02*
X65002438Y-82567142D01*
X65002438Y-82567142D02*
X65097676Y-82471904D01*
X65097676Y-82471904D02*
X65192914Y-82424285D01*
X65192914Y-82424285D02*
X65383390Y-82376666D01*
X65383390Y-82376666D02*
X65526247Y-82376666D01*
X65526247Y-82376666D02*
X65716723Y-82424285D01*
X65716723Y-82424285D02*
X65811961Y-82471904D01*
X65811961Y-82471904D02*
X65907200Y-82567142D01*
X65907200Y-82567142D02*
X65954819Y-82709999D01*
X65954819Y-82709999D02*
X65954819Y-82948094D01*
X65050057Y-81995713D02*
X65002438Y-81948094D01*
X65002438Y-81948094D02*
X64954819Y-81852856D01*
X64954819Y-81852856D02*
X64954819Y-81614761D01*
X64954819Y-81614761D02*
X65002438Y-81519523D01*
X65002438Y-81519523D02*
X65050057Y-81471904D01*
X65050057Y-81471904D02*
X65145295Y-81424285D01*
X65145295Y-81424285D02*
X65240533Y-81424285D01*
X65240533Y-81424285D02*
X65383390Y-81471904D01*
X65383390Y-81471904D02*
X65954819Y-82043332D01*
X65954819Y-82043332D02*
X65954819Y-81424285D01*
X40607142Y-45859580D02*
X40559523Y-45907200D01*
X40559523Y-45907200D02*
X40416666Y-45954819D01*
X40416666Y-45954819D02*
X40321428Y-45954819D01*
X40321428Y-45954819D02*
X40178571Y-45907200D01*
X40178571Y-45907200D02*
X40083333Y-45811961D01*
X40083333Y-45811961D02*
X40035714Y-45716723D01*
X40035714Y-45716723D02*
X39988095Y-45526247D01*
X39988095Y-45526247D02*
X39988095Y-45383390D01*
X39988095Y-45383390D02*
X40035714Y-45192914D01*
X40035714Y-45192914D02*
X40083333Y-45097676D01*
X40083333Y-45097676D02*
X40178571Y-45002438D01*
X40178571Y-45002438D02*
X40321428Y-44954819D01*
X40321428Y-44954819D02*
X40416666Y-44954819D01*
X40416666Y-44954819D02*
X40559523Y-45002438D01*
X40559523Y-45002438D02*
X40607142Y-45050057D01*
X40988095Y-45050057D02*
X41035714Y-45002438D01*
X41035714Y-45002438D02*
X41130952Y-44954819D01*
X41130952Y-44954819D02*
X41369047Y-44954819D01*
X41369047Y-44954819D02*
X41464285Y-45002438D01*
X41464285Y-45002438D02*
X41511904Y-45050057D01*
X41511904Y-45050057D02*
X41559523Y-45145295D01*
X41559523Y-45145295D02*
X41559523Y-45240533D01*
X41559523Y-45240533D02*
X41511904Y-45383390D01*
X41511904Y-45383390D02*
X40940476Y-45954819D01*
X40940476Y-45954819D02*
X41559523Y-45954819D01*
X42035714Y-45954819D02*
X42226190Y-45954819D01*
X42226190Y-45954819D02*
X42321428Y-45907200D01*
X42321428Y-45907200D02*
X42369047Y-45859580D01*
X42369047Y-45859580D02*
X42464285Y-45716723D01*
X42464285Y-45716723D02*
X42511904Y-45526247D01*
X42511904Y-45526247D02*
X42511904Y-45145295D01*
X42511904Y-45145295D02*
X42464285Y-45050057D01*
X42464285Y-45050057D02*
X42416666Y-45002438D01*
X42416666Y-45002438D02*
X42321428Y-44954819D01*
X42321428Y-44954819D02*
X42130952Y-44954819D01*
X42130952Y-44954819D02*
X42035714Y-45002438D01*
X42035714Y-45002438D02*
X41988095Y-45050057D01*
X41988095Y-45050057D02*
X41940476Y-45145295D01*
X41940476Y-45145295D02*
X41940476Y-45383390D01*
X41940476Y-45383390D02*
X41988095Y-45478628D01*
X41988095Y-45478628D02*
X42035714Y-45526247D01*
X42035714Y-45526247D02*
X42130952Y-45573866D01*
X42130952Y-45573866D02*
X42321428Y-45573866D01*
X42321428Y-45573866D02*
X42416666Y-45526247D01*
X42416666Y-45526247D02*
X42464285Y-45478628D01*
X42464285Y-45478628D02*
X42511904Y-45383390D01*
X40857142Y-60609580D02*
X40809523Y-60657200D01*
X40809523Y-60657200D02*
X40666666Y-60704819D01*
X40666666Y-60704819D02*
X40571428Y-60704819D01*
X40571428Y-60704819D02*
X40428571Y-60657200D01*
X40428571Y-60657200D02*
X40333333Y-60561961D01*
X40333333Y-60561961D02*
X40285714Y-60466723D01*
X40285714Y-60466723D02*
X40238095Y-60276247D01*
X40238095Y-60276247D02*
X40238095Y-60133390D01*
X40238095Y-60133390D02*
X40285714Y-59942914D01*
X40285714Y-59942914D02*
X40333333Y-59847676D01*
X40333333Y-59847676D02*
X40428571Y-59752438D01*
X40428571Y-59752438D02*
X40571428Y-59704819D01*
X40571428Y-59704819D02*
X40666666Y-59704819D01*
X40666666Y-59704819D02*
X40809523Y-59752438D01*
X40809523Y-59752438D02*
X40857142Y-59800057D01*
X41238095Y-59800057D02*
X41285714Y-59752438D01*
X41285714Y-59752438D02*
X41380952Y-59704819D01*
X41380952Y-59704819D02*
X41619047Y-59704819D01*
X41619047Y-59704819D02*
X41714285Y-59752438D01*
X41714285Y-59752438D02*
X41761904Y-59800057D01*
X41761904Y-59800057D02*
X41809523Y-59895295D01*
X41809523Y-59895295D02*
X41809523Y-59990533D01*
X41809523Y-59990533D02*
X41761904Y-60133390D01*
X41761904Y-60133390D02*
X41190476Y-60704819D01*
X41190476Y-60704819D02*
X41809523Y-60704819D01*
X42380952Y-60133390D02*
X42285714Y-60085771D01*
X42285714Y-60085771D02*
X42238095Y-60038152D01*
X42238095Y-60038152D02*
X42190476Y-59942914D01*
X42190476Y-59942914D02*
X42190476Y-59895295D01*
X42190476Y-59895295D02*
X42238095Y-59800057D01*
X42238095Y-59800057D02*
X42285714Y-59752438D01*
X42285714Y-59752438D02*
X42380952Y-59704819D01*
X42380952Y-59704819D02*
X42571428Y-59704819D01*
X42571428Y-59704819D02*
X42666666Y-59752438D01*
X42666666Y-59752438D02*
X42714285Y-59800057D01*
X42714285Y-59800057D02*
X42761904Y-59895295D01*
X42761904Y-59895295D02*
X42761904Y-59942914D01*
X42761904Y-59942914D02*
X42714285Y-60038152D01*
X42714285Y-60038152D02*
X42666666Y-60085771D01*
X42666666Y-60085771D02*
X42571428Y-60133390D01*
X42571428Y-60133390D02*
X42380952Y-60133390D01*
X42380952Y-60133390D02*
X42285714Y-60181009D01*
X42285714Y-60181009D02*
X42238095Y-60228628D01*
X42238095Y-60228628D02*
X42190476Y-60323866D01*
X42190476Y-60323866D02*
X42190476Y-60514342D01*
X42190476Y-60514342D02*
X42238095Y-60609580D01*
X42238095Y-60609580D02*
X42285714Y-60657200D01*
X42285714Y-60657200D02*
X42380952Y-60704819D01*
X42380952Y-60704819D02*
X42571428Y-60704819D01*
X42571428Y-60704819D02*
X42666666Y-60657200D01*
X42666666Y-60657200D02*
X42714285Y-60609580D01*
X42714285Y-60609580D02*
X42761904Y-60514342D01*
X42761904Y-60514342D02*
X42761904Y-60323866D01*
X42761904Y-60323866D02*
X42714285Y-60228628D01*
X42714285Y-60228628D02*
X42666666Y-60181009D01*
X42666666Y-60181009D02*
X42571428Y-60133390D01*
X39357142Y-76359580D02*
X39309523Y-76407200D01*
X39309523Y-76407200D02*
X39166666Y-76454819D01*
X39166666Y-76454819D02*
X39071428Y-76454819D01*
X39071428Y-76454819D02*
X38928571Y-76407200D01*
X38928571Y-76407200D02*
X38833333Y-76311961D01*
X38833333Y-76311961D02*
X38785714Y-76216723D01*
X38785714Y-76216723D02*
X38738095Y-76026247D01*
X38738095Y-76026247D02*
X38738095Y-75883390D01*
X38738095Y-75883390D02*
X38785714Y-75692914D01*
X38785714Y-75692914D02*
X38833333Y-75597676D01*
X38833333Y-75597676D02*
X38928571Y-75502438D01*
X38928571Y-75502438D02*
X39071428Y-75454819D01*
X39071428Y-75454819D02*
X39166666Y-75454819D01*
X39166666Y-75454819D02*
X39309523Y-75502438D01*
X39309523Y-75502438D02*
X39357142Y-75550057D01*
X39738095Y-75550057D02*
X39785714Y-75502438D01*
X39785714Y-75502438D02*
X39880952Y-75454819D01*
X39880952Y-75454819D02*
X40119047Y-75454819D01*
X40119047Y-75454819D02*
X40214285Y-75502438D01*
X40214285Y-75502438D02*
X40261904Y-75550057D01*
X40261904Y-75550057D02*
X40309523Y-75645295D01*
X40309523Y-75645295D02*
X40309523Y-75740533D01*
X40309523Y-75740533D02*
X40261904Y-75883390D01*
X40261904Y-75883390D02*
X39690476Y-76454819D01*
X39690476Y-76454819D02*
X40309523Y-76454819D01*
X40642857Y-75454819D02*
X41309523Y-75454819D01*
X41309523Y-75454819D02*
X40880952Y-76454819D01*
X44884819Y-74392857D02*
X44408628Y-74726190D01*
X44884819Y-74964285D02*
X43884819Y-74964285D01*
X43884819Y-74964285D02*
X43884819Y-74583333D01*
X43884819Y-74583333D02*
X43932438Y-74488095D01*
X43932438Y-74488095D02*
X43980057Y-74440476D01*
X43980057Y-74440476D02*
X44075295Y-74392857D01*
X44075295Y-74392857D02*
X44218152Y-74392857D01*
X44218152Y-74392857D02*
X44313390Y-74440476D01*
X44313390Y-74440476D02*
X44361009Y-74488095D01*
X44361009Y-74488095D02*
X44408628Y-74583333D01*
X44408628Y-74583333D02*
X44408628Y-74964285D01*
X43884819Y-74059523D02*
X43884819Y-73440476D01*
X43884819Y-73440476D02*
X44265771Y-73773809D01*
X44265771Y-73773809D02*
X44265771Y-73630952D01*
X44265771Y-73630952D02*
X44313390Y-73535714D01*
X44313390Y-73535714D02*
X44361009Y-73488095D01*
X44361009Y-73488095D02*
X44456247Y-73440476D01*
X44456247Y-73440476D02*
X44694342Y-73440476D01*
X44694342Y-73440476D02*
X44789580Y-73488095D01*
X44789580Y-73488095D02*
X44837200Y-73535714D01*
X44837200Y-73535714D02*
X44884819Y-73630952D01*
X44884819Y-73630952D02*
X44884819Y-73916666D01*
X44884819Y-73916666D02*
X44837200Y-74011904D01*
X44837200Y-74011904D02*
X44789580Y-74059523D01*
X43884819Y-72821428D02*
X43884819Y-72726190D01*
X43884819Y-72726190D02*
X43932438Y-72630952D01*
X43932438Y-72630952D02*
X43980057Y-72583333D01*
X43980057Y-72583333D02*
X44075295Y-72535714D01*
X44075295Y-72535714D02*
X44265771Y-72488095D01*
X44265771Y-72488095D02*
X44503866Y-72488095D01*
X44503866Y-72488095D02*
X44694342Y-72535714D01*
X44694342Y-72535714D02*
X44789580Y-72583333D01*
X44789580Y-72583333D02*
X44837200Y-72630952D01*
X44837200Y-72630952D02*
X44884819Y-72726190D01*
X44884819Y-72726190D02*
X44884819Y-72821428D01*
X44884819Y-72821428D02*
X44837200Y-72916666D01*
X44837200Y-72916666D02*
X44789580Y-72964285D01*
X44789580Y-72964285D02*
X44694342Y-73011904D01*
X44694342Y-73011904D02*
X44503866Y-73059523D01*
X44503866Y-73059523D02*
X44265771Y-73059523D01*
X44265771Y-73059523D02*
X44075295Y-73011904D01*
X44075295Y-73011904D02*
X43980057Y-72964285D01*
X43980057Y-72964285D02*
X43932438Y-72916666D01*
X43932438Y-72916666D02*
X43884819Y-72821428D01*
X44884819Y-77892857D02*
X44408628Y-78226190D01*
X44884819Y-78464285D02*
X43884819Y-78464285D01*
X43884819Y-78464285D02*
X43884819Y-78083333D01*
X43884819Y-78083333D02*
X43932438Y-77988095D01*
X43932438Y-77988095D02*
X43980057Y-77940476D01*
X43980057Y-77940476D02*
X44075295Y-77892857D01*
X44075295Y-77892857D02*
X44218152Y-77892857D01*
X44218152Y-77892857D02*
X44313390Y-77940476D01*
X44313390Y-77940476D02*
X44361009Y-77988095D01*
X44361009Y-77988095D02*
X44408628Y-78083333D01*
X44408628Y-78083333D02*
X44408628Y-78464285D01*
X43980057Y-77511904D02*
X43932438Y-77464285D01*
X43932438Y-77464285D02*
X43884819Y-77369047D01*
X43884819Y-77369047D02*
X43884819Y-77130952D01*
X43884819Y-77130952D02*
X43932438Y-77035714D01*
X43932438Y-77035714D02*
X43980057Y-76988095D01*
X43980057Y-76988095D02*
X44075295Y-76940476D01*
X44075295Y-76940476D02*
X44170533Y-76940476D01*
X44170533Y-76940476D02*
X44313390Y-76988095D01*
X44313390Y-76988095D02*
X44884819Y-77559523D01*
X44884819Y-77559523D02*
X44884819Y-76940476D01*
X44884819Y-76464285D02*
X44884819Y-76273809D01*
X44884819Y-76273809D02*
X44837200Y-76178571D01*
X44837200Y-76178571D02*
X44789580Y-76130952D01*
X44789580Y-76130952D02*
X44646723Y-76035714D01*
X44646723Y-76035714D02*
X44456247Y-75988095D01*
X44456247Y-75988095D02*
X44075295Y-75988095D01*
X44075295Y-75988095D02*
X43980057Y-76035714D01*
X43980057Y-76035714D02*
X43932438Y-76083333D01*
X43932438Y-76083333D02*
X43884819Y-76178571D01*
X43884819Y-76178571D02*
X43884819Y-76369047D01*
X43884819Y-76369047D02*
X43932438Y-76464285D01*
X43932438Y-76464285D02*
X43980057Y-76511904D01*
X43980057Y-76511904D02*
X44075295Y-76559523D01*
X44075295Y-76559523D02*
X44313390Y-76559523D01*
X44313390Y-76559523D02*
X44408628Y-76511904D01*
X44408628Y-76511904D02*
X44456247Y-76464285D01*
X44456247Y-76464285D02*
X44503866Y-76369047D01*
X44503866Y-76369047D02*
X44503866Y-76178571D01*
X44503866Y-76178571D02*
X44456247Y-76083333D01*
X44456247Y-76083333D02*
X44408628Y-76035714D01*
X44408628Y-76035714D02*
X44313390Y-75988095D01*
X40357142Y-88859580D02*
X40309523Y-88907200D01*
X40309523Y-88907200D02*
X40166666Y-88954819D01*
X40166666Y-88954819D02*
X40071428Y-88954819D01*
X40071428Y-88954819D02*
X39928571Y-88907200D01*
X39928571Y-88907200D02*
X39833333Y-88811961D01*
X39833333Y-88811961D02*
X39785714Y-88716723D01*
X39785714Y-88716723D02*
X39738095Y-88526247D01*
X39738095Y-88526247D02*
X39738095Y-88383390D01*
X39738095Y-88383390D02*
X39785714Y-88192914D01*
X39785714Y-88192914D02*
X39833333Y-88097676D01*
X39833333Y-88097676D02*
X39928571Y-88002438D01*
X39928571Y-88002438D02*
X40071428Y-87954819D01*
X40071428Y-87954819D02*
X40166666Y-87954819D01*
X40166666Y-87954819D02*
X40309523Y-88002438D01*
X40309523Y-88002438D02*
X40357142Y-88050057D01*
X40738095Y-88050057D02*
X40785714Y-88002438D01*
X40785714Y-88002438D02*
X40880952Y-87954819D01*
X40880952Y-87954819D02*
X41119047Y-87954819D01*
X41119047Y-87954819D02*
X41214285Y-88002438D01*
X41214285Y-88002438D02*
X41261904Y-88050057D01*
X41261904Y-88050057D02*
X41309523Y-88145295D01*
X41309523Y-88145295D02*
X41309523Y-88240533D01*
X41309523Y-88240533D02*
X41261904Y-88383390D01*
X41261904Y-88383390D02*
X40690476Y-88954819D01*
X40690476Y-88954819D02*
X41309523Y-88954819D01*
X42166666Y-87954819D02*
X41976190Y-87954819D01*
X41976190Y-87954819D02*
X41880952Y-88002438D01*
X41880952Y-88002438D02*
X41833333Y-88050057D01*
X41833333Y-88050057D02*
X41738095Y-88192914D01*
X41738095Y-88192914D02*
X41690476Y-88383390D01*
X41690476Y-88383390D02*
X41690476Y-88764342D01*
X41690476Y-88764342D02*
X41738095Y-88859580D01*
X41738095Y-88859580D02*
X41785714Y-88907200D01*
X41785714Y-88907200D02*
X41880952Y-88954819D01*
X41880952Y-88954819D02*
X42071428Y-88954819D01*
X42071428Y-88954819D02*
X42166666Y-88907200D01*
X42166666Y-88907200D02*
X42214285Y-88859580D01*
X42214285Y-88859580D02*
X42261904Y-88764342D01*
X42261904Y-88764342D02*
X42261904Y-88526247D01*
X42261904Y-88526247D02*
X42214285Y-88431009D01*
X42214285Y-88431009D02*
X42166666Y-88383390D01*
X42166666Y-88383390D02*
X42071428Y-88335771D01*
X42071428Y-88335771D02*
X41880952Y-88335771D01*
X41880952Y-88335771D02*
X41785714Y-88383390D01*
X41785714Y-88383390D02*
X41738095Y-88431009D01*
X41738095Y-88431009D02*
X41690476Y-88526247D01*
X34204819Y-63642857D02*
X33728628Y-63976190D01*
X34204819Y-64214285D02*
X33204819Y-64214285D01*
X33204819Y-64214285D02*
X33204819Y-63833333D01*
X33204819Y-63833333D02*
X33252438Y-63738095D01*
X33252438Y-63738095D02*
X33300057Y-63690476D01*
X33300057Y-63690476D02*
X33395295Y-63642857D01*
X33395295Y-63642857D02*
X33538152Y-63642857D01*
X33538152Y-63642857D02*
X33633390Y-63690476D01*
X33633390Y-63690476D02*
X33681009Y-63738095D01*
X33681009Y-63738095D02*
X33728628Y-63833333D01*
X33728628Y-63833333D02*
X33728628Y-64214285D01*
X34204819Y-62690476D02*
X34204819Y-63261904D01*
X34204819Y-62976190D02*
X33204819Y-62976190D01*
X33204819Y-62976190D02*
X33347676Y-63071428D01*
X33347676Y-63071428D02*
X33442914Y-63166666D01*
X33442914Y-63166666D02*
X33490533Y-63261904D01*
X33204819Y-62357142D02*
X33204819Y-61738095D01*
X33204819Y-61738095D02*
X33585771Y-62071428D01*
X33585771Y-62071428D02*
X33585771Y-61928571D01*
X33585771Y-61928571D02*
X33633390Y-61833333D01*
X33633390Y-61833333D02*
X33681009Y-61785714D01*
X33681009Y-61785714D02*
X33776247Y-61738095D01*
X33776247Y-61738095D02*
X34014342Y-61738095D01*
X34014342Y-61738095D02*
X34109580Y-61785714D01*
X34109580Y-61785714D02*
X34157200Y-61833333D01*
X34157200Y-61833333D02*
X34204819Y-61928571D01*
X34204819Y-61928571D02*
X34204819Y-62214285D01*
X34204819Y-62214285D02*
X34157200Y-62309523D01*
X34157200Y-62309523D02*
X34109580Y-62357142D01*
X69666666Y-80914819D02*
X69666666Y-81629104D01*
X69666666Y-81629104D02*
X69619047Y-81771961D01*
X69619047Y-81771961D02*
X69523809Y-81867200D01*
X69523809Y-81867200D02*
X69380952Y-81914819D01*
X69380952Y-81914819D02*
X69285714Y-81914819D01*
X70666666Y-81914819D02*
X70095238Y-81914819D01*
X70380952Y-81914819D02*
X70380952Y-80914819D01*
X70380952Y-80914819D02*
X70285714Y-81057676D01*
X70285714Y-81057676D02*
X70190476Y-81152914D01*
X70190476Y-81152914D02*
X70095238Y-81200533D01*
X41859580Y-41892857D02*
X41907200Y-41940476D01*
X41907200Y-41940476D02*
X41954819Y-42083333D01*
X41954819Y-42083333D02*
X41954819Y-42178571D01*
X41954819Y-42178571D02*
X41907200Y-42321428D01*
X41907200Y-42321428D02*
X41811961Y-42416666D01*
X41811961Y-42416666D02*
X41716723Y-42464285D01*
X41716723Y-42464285D02*
X41526247Y-42511904D01*
X41526247Y-42511904D02*
X41383390Y-42511904D01*
X41383390Y-42511904D02*
X41192914Y-42464285D01*
X41192914Y-42464285D02*
X41097676Y-42416666D01*
X41097676Y-42416666D02*
X41002438Y-42321428D01*
X41002438Y-42321428D02*
X40954819Y-42178571D01*
X40954819Y-42178571D02*
X40954819Y-42083333D01*
X40954819Y-42083333D02*
X41002438Y-41940476D01*
X41002438Y-41940476D02*
X41050057Y-41892857D01*
X41954819Y-40940476D02*
X41954819Y-41511904D01*
X41954819Y-41226190D02*
X40954819Y-41226190D01*
X40954819Y-41226190D02*
X41097676Y-41321428D01*
X41097676Y-41321428D02*
X41192914Y-41416666D01*
X41192914Y-41416666D02*
X41240533Y-41511904D01*
X40954819Y-40607142D02*
X40954819Y-39940476D01*
X40954819Y-39940476D02*
X41954819Y-40369047D01*
X50333333Y-88954819D02*
X50000000Y-88478628D01*
X49761905Y-88954819D02*
X49761905Y-87954819D01*
X49761905Y-87954819D02*
X50142857Y-87954819D01*
X50142857Y-87954819D02*
X50238095Y-88002438D01*
X50238095Y-88002438D02*
X50285714Y-88050057D01*
X50285714Y-88050057D02*
X50333333Y-88145295D01*
X50333333Y-88145295D02*
X50333333Y-88288152D01*
X50333333Y-88288152D02*
X50285714Y-88383390D01*
X50285714Y-88383390D02*
X50238095Y-88431009D01*
X50238095Y-88431009D02*
X50142857Y-88478628D01*
X50142857Y-88478628D02*
X49761905Y-88478628D01*
X51190476Y-87954819D02*
X51000000Y-87954819D01*
X51000000Y-87954819D02*
X50904762Y-88002438D01*
X50904762Y-88002438D02*
X50857143Y-88050057D01*
X50857143Y-88050057D02*
X50761905Y-88192914D01*
X50761905Y-88192914D02*
X50714286Y-88383390D01*
X50714286Y-88383390D02*
X50714286Y-88764342D01*
X50714286Y-88764342D02*
X50761905Y-88859580D01*
X50761905Y-88859580D02*
X50809524Y-88907200D01*
X50809524Y-88907200D02*
X50904762Y-88954819D01*
X50904762Y-88954819D02*
X51095238Y-88954819D01*
X51095238Y-88954819D02*
X51190476Y-88907200D01*
X51190476Y-88907200D02*
X51238095Y-88859580D01*
X51238095Y-88859580D02*
X51285714Y-88764342D01*
X51285714Y-88764342D02*
X51285714Y-88526247D01*
X51285714Y-88526247D02*
X51238095Y-88431009D01*
X51238095Y-88431009D02*
X51190476Y-88383390D01*
X51190476Y-88383390D02*
X51095238Y-88335771D01*
X51095238Y-88335771D02*
X50904762Y-88335771D01*
X50904762Y-88335771D02*
X50809524Y-88383390D01*
X50809524Y-88383390D02*
X50761905Y-88431009D01*
X50761905Y-88431009D02*
X50714286Y-88526247D01*
X23384819Y-57642857D02*
X22908628Y-57976190D01*
X23384819Y-58214285D02*
X22384819Y-58214285D01*
X22384819Y-58214285D02*
X22384819Y-57833333D01*
X22384819Y-57833333D02*
X22432438Y-57738095D01*
X22432438Y-57738095D02*
X22480057Y-57690476D01*
X22480057Y-57690476D02*
X22575295Y-57642857D01*
X22575295Y-57642857D02*
X22718152Y-57642857D01*
X22718152Y-57642857D02*
X22813390Y-57690476D01*
X22813390Y-57690476D02*
X22861009Y-57738095D01*
X22861009Y-57738095D02*
X22908628Y-57833333D01*
X22908628Y-57833333D02*
X22908628Y-58214285D01*
X22480057Y-57261904D02*
X22432438Y-57214285D01*
X22432438Y-57214285D02*
X22384819Y-57119047D01*
X22384819Y-57119047D02*
X22384819Y-56880952D01*
X22384819Y-56880952D02*
X22432438Y-56785714D01*
X22432438Y-56785714D02*
X22480057Y-56738095D01*
X22480057Y-56738095D02*
X22575295Y-56690476D01*
X22575295Y-56690476D02*
X22670533Y-56690476D01*
X22670533Y-56690476D02*
X22813390Y-56738095D01*
X22813390Y-56738095D02*
X23384819Y-57309523D01*
X23384819Y-57309523D02*
X23384819Y-56690476D01*
X22384819Y-56357142D02*
X22384819Y-55690476D01*
X22384819Y-55690476D02*
X23384819Y-56119047D01*
X63609580Y-82352857D02*
X63657200Y-82400476D01*
X63657200Y-82400476D02*
X63704819Y-82543333D01*
X63704819Y-82543333D02*
X63704819Y-82638571D01*
X63704819Y-82638571D02*
X63657200Y-82781428D01*
X63657200Y-82781428D02*
X63561961Y-82876666D01*
X63561961Y-82876666D02*
X63466723Y-82924285D01*
X63466723Y-82924285D02*
X63276247Y-82971904D01*
X63276247Y-82971904D02*
X63133390Y-82971904D01*
X63133390Y-82971904D02*
X62942914Y-82924285D01*
X62942914Y-82924285D02*
X62847676Y-82876666D01*
X62847676Y-82876666D02*
X62752438Y-82781428D01*
X62752438Y-82781428D02*
X62704819Y-82638571D01*
X62704819Y-82638571D02*
X62704819Y-82543333D01*
X62704819Y-82543333D02*
X62752438Y-82400476D01*
X62752438Y-82400476D02*
X62800057Y-82352857D01*
X63704819Y-81400476D02*
X63704819Y-81971904D01*
X63704819Y-81686190D02*
X62704819Y-81686190D01*
X62704819Y-81686190D02*
X62847676Y-81781428D01*
X62847676Y-81781428D02*
X62942914Y-81876666D01*
X62942914Y-81876666D02*
X62990533Y-81971904D01*
X63704819Y-80924285D02*
X63704819Y-80733809D01*
X63704819Y-80733809D02*
X63657200Y-80638571D01*
X63657200Y-80638571D02*
X63609580Y-80590952D01*
X63609580Y-80590952D02*
X63466723Y-80495714D01*
X63466723Y-80495714D02*
X63276247Y-80448095D01*
X63276247Y-80448095D02*
X62895295Y-80448095D01*
X62895295Y-80448095D02*
X62800057Y-80495714D01*
X62800057Y-80495714D02*
X62752438Y-80543333D01*
X62752438Y-80543333D02*
X62704819Y-80638571D01*
X62704819Y-80638571D02*
X62704819Y-80829047D01*
X62704819Y-80829047D02*
X62752438Y-80924285D01*
X62752438Y-80924285D02*
X62800057Y-80971904D01*
X62800057Y-80971904D02*
X62895295Y-81019523D01*
X62895295Y-81019523D02*
X63133390Y-81019523D01*
X63133390Y-81019523D02*
X63228628Y-80971904D01*
X63228628Y-80971904D02*
X63276247Y-80924285D01*
X63276247Y-80924285D02*
X63323866Y-80829047D01*
X63323866Y-80829047D02*
X63323866Y-80638571D01*
X63323866Y-80638571D02*
X63276247Y-80543333D01*
X63276247Y-80543333D02*
X63228628Y-80495714D01*
X63228628Y-80495714D02*
X63133390Y-80448095D01*
X57333333Y-95914819D02*
X57000000Y-95438628D01*
X56761905Y-95914819D02*
X56761905Y-94914819D01*
X56761905Y-94914819D02*
X57142857Y-94914819D01*
X57142857Y-94914819D02*
X57238095Y-94962438D01*
X57238095Y-94962438D02*
X57285714Y-95010057D01*
X57285714Y-95010057D02*
X57333333Y-95105295D01*
X57333333Y-95105295D02*
X57333333Y-95248152D01*
X57333333Y-95248152D02*
X57285714Y-95343390D01*
X57285714Y-95343390D02*
X57238095Y-95391009D01*
X57238095Y-95391009D02*
X57142857Y-95438628D01*
X57142857Y-95438628D02*
X56761905Y-95438628D01*
X58238095Y-94914819D02*
X57761905Y-94914819D01*
X57761905Y-94914819D02*
X57714286Y-95391009D01*
X57714286Y-95391009D02*
X57761905Y-95343390D01*
X57761905Y-95343390D02*
X57857143Y-95295771D01*
X57857143Y-95295771D02*
X58095238Y-95295771D01*
X58095238Y-95295771D02*
X58190476Y-95343390D01*
X58190476Y-95343390D02*
X58238095Y-95391009D01*
X58238095Y-95391009D02*
X58285714Y-95486247D01*
X58285714Y-95486247D02*
X58285714Y-95724342D01*
X58285714Y-95724342D02*
X58238095Y-95819580D01*
X58238095Y-95819580D02*
X58190476Y-95867200D01*
X58190476Y-95867200D02*
X58095238Y-95914819D01*
X58095238Y-95914819D02*
X57857143Y-95914819D01*
X57857143Y-95914819D02*
X57761905Y-95867200D01*
X57761905Y-95867200D02*
X57714286Y-95819580D01*
X60416666Y-9434819D02*
X60416666Y-10149104D01*
X60416666Y-10149104D02*
X60369047Y-10291961D01*
X60369047Y-10291961D02*
X60273809Y-10387200D01*
X60273809Y-10387200D02*
X60130952Y-10434819D01*
X60130952Y-10434819D02*
X60035714Y-10434819D01*
X60845238Y-9530057D02*
X60892857Y-9482438D01*
X60892857Y-9482438D02*
X60988095Y-9434819D01*
X60988095Y-9434819D02*
X61226190Y-9434819D01*
X61226190Y-9434819D02*
X61321428Y-9482438D01*
X61321428Y-9482438D02*
X61369047Y-9530057D01*
X61369047Y-9530057D02*
X61416666Y-9625295D01*
X61416666Y-9625295D02*
X61416666Y-9720533D01*
X61416666Y-9720533D02*
X61369047Y-9863390D01*
X61369047Y-9863390D02*
X60797619Y-10434819D01*
X60797619Y-10434819D02*
X61416666Y-10434819D01*
X17764819Y-5333333D02*
X18479104Y-5333333D01*
X18479104Y-5333333D02*
X18621961Y-5380952D01*
X18621961Y-5380952D02*
X18717200Y-5476190D01*
X18717200Y-5476190D02*
X18764819Y-5619047D01*
X18764819Y-5619047D02*
X18764819Y-5714285D01*
X17764819Y-4428571D02*
X17764819Y-4619047D01*
X17764819Y-4619047D02*
X17812438Y-4714285D01*
X17812438Y-4714285D02*
X17860057Y-4761904D01*
X17860057Y-4761904D02*
X18002914Y-4857142D01*
X18002914Y-4857142D02*
X18193390Y-4904761D01*
X18193390Y-4904761D02*
X18574342Y-4904761D01*
X18574342Y-4904761D02*
X18669580Y-4857142D01*
X18669580Y-4857142D02*
X18717200Y-4809523D01*
X18717200Y-4809523D02*
X18764819Y-4714285D01*
X18764819Y-4714285D02*
X18764819Y-4523809D01*
X18764819Y-4523809D02*
X18717200Y-4428571D01*
X18717200Y-4428571D02*
X18669580Y-4380952D01*
X18669580Y-4380952D02*
X18574342Y-4333333D01*
X18574342Y-4333333D02*
X18336247Y-4333333D01*
X18336247Y-4333333D02*
X18241009Y-4380952D01*
X18241009Y-4380952D02*
X18193390Y-4428571D01*
X18193390Y-4428571D02*
X18145771Y-4523809D01*
X18145771Y-4523809D02*
X18145771Y-4714285D01*
X18145771Y-4714285D02*
X18193390Y-4809523D01*
X18193390Y-4809523D02*
X18241009Y-4857142D01*
X18241009Y-4857142D02*
X18336247Y-4904761D01*
X30333333Y-60609580D02*
X30285714Y-60657200D01*
X30285714Y-60657200D02*
X30142857Y-60704819D01*
X30142857Y-60704819D02*
X30047619Y-60704819D01*
X30047619Y-60704819D02*
X29904762Y-60657200D01*
X29904762Y-60657200D02*
X29809524Y-60561961D01*
X29809524Y-60561961D02*
X29761905Y-60466723D01*
X29761905Y-60466723D02*
X29714286Y-60276247D01*
X29714286Y-60276247D02*
X29714286Y-60133390D01*
X29714286Y-60133390D02*
X29761905Y-59942914D01*
X29761905Y-59942914D02*
X29809524Y-59847676D01*
X29809524Y-59847676D02*
X29904762Y-59752438D01*
X29904762Y-59752438D02*
X30047619Y-59704819D01*
X30047619Y-59704819D02*
X30142857Y-59704819D01*
X30142857Y-59704819D02*
X30285714Y-59752438D01*
X30285714Y-59752438D02*
X30333333Y-59800057D01*
X30666667Y-59704819D02*
X31333333Y-59704819D01*
X31333333Y-59704819D02*
X30904762Y-60704819D01*
X35454819Y-92416666D02*
X34978628Y-92749999D01*
X35454819Y-92988094D02*
X34454819Y-92988094D01*
X34454819Y-92988094D02*
X34454819Y-92607142D01*
X34454819Y-92607142D02*
X34502438Y-92511904D01*
X34502438Y-92511904D02*
X34550057Y-92464285D01*
X34550057Y-92464285D02*
X34645295Y-92416666D01*
X34645295Y-92416666D02*
X34788152Y-92416666D01*
X34788152Y-92416666D02*
X34883390Y-92464285D01*
X34883390Y-92464285D02*
X34931009Y-92511904D01*
X34931009Y-92511904D02*
X34978628Y-92607142D01*
X34978628Y-92607142D02*
X34978628Y-92988094D01*
X34883390Y-91845237D02*
X34835771Y-91940475D01*
X34835771Y-91940475D02*
X34788152Y-91988094D01*
X34788152Y-91988094D02*
X34692914Y-92035713D01*
X34692914Y-92035713D02*
X34645295Y-92035713D01*
X34645295Y-92035713D02*
X34550057Y-91988094D01*
X34550057Y-91988094D02*
X34502438Y-91940475D01*
X34502438Y-91940475D02*
X34454819Y-91845237D01*
X34454819Y-91845237D02*
X34454819Y-91654761D01*
X34454819Y-91654761D02*
X34502438Y-91559523D01*
X34502438Y-91559523D02*
X34550057Y-91511904D01*
X34550057Y-91511904D02*
X34645295Y-91464285D01*
X34645295Y-91464285D02*
X34692914Y-91464285D01*
X34692914Y-91464285D02*
X34788152Y-91511904D01*
X34788152Y-91511904D02*
X34835771Y-91559523D01*
X34835771Y-91559523D02*
X34883390Y-91654761D01*
X34883390Y-91654761D02*
X34883390Y-91845237D01*
X34883390Y-91845237D02*
X34931009Y-91940475D01*
X34931009Y-91940475D02*
X34978628Y-91988094D01*
X34978628Y-91988094D02*
X35073866Y-92035713D01*
X35073866Y-92035713D02*
X35264342Y-92035713D01*
X35264342Y-92035713D02*
X35359580Y-91988094D01*
X35359580Y-91988094D02*
X35407200Y-91940475D01*
X35407200Y-91940475D02*
X35454819Y-91845237D01*
X35454819Y-91845237D02*
X35454819Y-91654761D01*
X35454819Y-91654761D02*
X35407200Y-91559523D01*
X35407200Y-91559523D02*
X35359580Y-91511904D01*
X35359580Y-91511904D02*
X35264342Y-91464285D01*
X35264342Y-91464285D02*
X35073866Y-91464285D01*
X35073866Y-91464285D02*
X34978628Y-91511904D01*
X34978628Y-91511904D02*
X34931009Y-91559523D01*
X34931009Y-91559523D02*
X34883390Y-91654761D01*
X41583333Y-35109580D02*
X41535714Y-35157200D01*
X41535714Y-35157200D02*
X41392857Y-35204819D01*
X41392857Y-35204819D02*
X41297619Y-35204819D01*
X41297619Y-35204819D02*
X41154762Y-35157200D01*
X41154762Y-35157200D02*
X41059524Y-35061961D01*
X41059524Y-35061961D02*
X41011905Y-34966723D01*
X41011905Y-34966723D02*
X40964286Y-34776247D01*
X40964286Y-34776247D02*
X40964286Y-34633390D01*
X40964286Y-34633390D02*
X41011905Y-34442914D01*
X41011905Y-34442914D02*
X41059524Y-34347676D01*
X41059524Y-34347676D02*
X41154762Y-34252438D01*
X41154762Y-34252438D02*
X41297619Y-34204819D01*
X41297619Y-34204819D02*
X41392857Y-34204819D01*
X41392857Y-34204819D02*
X41535714Y-34252438D01*
X41535714Y-34252438D02*
X41583333Y-34300057D01*
X42154762Y-34633390D02*
X42059524Y-34585771D01*
X42059524Y-34585771D02*
X42011905Y-34538152D01*
X42011905Y-34538152D02*
X41964286Y-34442914D01*
X41964286Y-34442914D02*
X41964286Y-34395295D01*
X41964286Y-34395295D02*
X42011905Y-34300057D01*
X42011905Y-34300057D02*
X42059524Y-34252438D01*
X42059524Y-34252438D02*
X42154762Y-34204819D01*
X42154762Y-34204819D02*
X42345238Y-34204819D01*
X42345238Y-34204819D02*
X42440476Y-34252438D01*
X42440476Y-34252438D02*
X42488095Y-34300057D01*
X42488095Y-34300057D02*
X42535714Y-34395295D01*
X42535714Y-34395295D02*
X42535714Y-34442914D01*
X42535714Y-34442914D02*
X42488095Y-34538152D01*
X42488095Y-34538152D02*
X42440476Y-34585771D01*
X42440476Y-34585771D02*
X42345238Y-34633390D01*
X42345238Y-34633390D02*
X42154762Y-34633390D01*
X42154762Y-34633390D02*
X42059524Y-34681009D01*
X42059524Y-34681009D02*
X42011905Y-34728628D01*
X42011905Y-34728628D02*
X41964286Y-34823866D01*
X41964286Y-34823866D02*
X41964286Y-35014342D01*
X41964286Y-35014342D02*
X42011905Y-35109580D01*
X42011905Y-35109580D02*
X42059524Y-35157200D01*
X42059524Y-35157200D02*
X42154762Y-35204819D01*
X42154762Y-35204819D02*
X42345238Y-35204819D01*
X42345238Y-35204819D02*
X42440476Y-35157200D01*
X42440476Y-35157200D02*
X42488095Y-35109580D01*
X42488095Y-35109580D02*
X42535714Y-35014342D01*
X42535714Y-35014342D02*
X42535714Y-34823866D01*
X42535714Y-34823866D02*
X42488095Y-34728628D01*
X42488095Y-34728628D02*
X42440476Y-34681009D01*
X42440476Y-34681009D02*
X42345238Y-34633390D01*
X46833333Y-79859580D02*
X46785714Y-79907200D01*
X46785714Y-79907200D02*
X46642857Y-79954819D01*
X46642857Y-79954819D02*
X46547619Y-79954819D01*
X46547619Y-79954819D02*
X46404762Y-79907200D01*
X46404762Y-79907200D02*
X46309524Y-79811961D01*
X46309524Y-79811961D02*
X46261905Y-79716723D01*
X46261905Y-79716723D02*
X46214286Y-79526247D01*
X46214286Y-79526247D02*
X46214286Y-79383390D01*
X46214286Y-79383390D02*
X46261905Y-79192914D01*
X46261905Y-79192914D02*
X46309524Y-79097676D01*
X46309524Y-79097676D02*
X46404762Y-79002438D01*
X46404762Y-79002438D02*
X46547619Y-78954819D01*
X46547619Y-78954819D02*
X46642857Y-78954819D01*
X46642857Y-78954819D02*
X46785714Y-79002438D01*
X46785714Y-79002438D02*
X46833333Y-79050057D01*
X47166667Y-78954819D02*
X47785714Y-78954819D01*
X47785714Y-78954819D02*
X47452381Y-79335771D01*
X47452381Y-79335771D02*
X47595238Y-79335771D01*
X47595238Y-79335771D02*
X47690476Y-79383390D01*
X47690476Y-79383390D02*
X47738095Y-79431009D01*
X47738095Y-79431009D02*
X47785714Y-79526247D01*
X47785714Y-79526247D02*
X47785714Y-79764342D01*
X47785714Y-79764342D02*
X47738095Y-79859580D01*
X47738095Y-79859580D02*
X47690476Y-79907200D01*
X47690476Y-79907200D02*
X47595238Y-79954819D01*
X47595238Y-79954819D02*
X47309524Y-79954819D01*
X47309524Y-79954819D02*
X47214286Y-79907200D01*
X47214286Y-79907200D02*
X47166667Y-79859580D01*
X11261905Y-14554820D02*
X11261905Y-13554820D01*
X11261905Y-13554820D02*
X11500000Y-13554820D01*
X11500000Y-13554820D02*
X11642857Y-13602439D01*
X11642857Y-13602439D02*
X11738095Y-13697677D01*
X11738095Y-13697677D02*
X11785714Y-13792915D01*
X11785714Y-13792915D02*
X11833333Y-13983391D01*
X11833333Y-13983391D02*
X11833333Y-14126248D01*
X11833333Y-14126248D02*
X11785714Y-14316724D01*
X11785714Y-14316724D02*
X11738095Y-14411962D01*
X11738095Y-14411962D02*
X11642857Y-14507201D01*
X11642857Y-14507201D02*
X11500000Y-14554820D01*
X11500000Y-14554820D02*
X11261905Y-14554820D01*
X12166667Y-13554820D02*
X12785714Y-13554820D01*
X12785714Y-13554820D02*
X12452381Y-13935772D01*
X12452381Y-13935772D02*
X12595238Y-13935772D01*
X12595238Y-13935772D02*
X12690476Y-13983391D01*
X12690476Y-13983391D02*
X12738095Y-14031010D01*
X12738095Y-14031010D02*
X12785714Y-14126248D01*
X12785714Y-14126248D02*
X12785714Y-14364343D01*
X12785714Y-14364343D02*
X12738095Y-14459581D01*
X12738095Y-14459581D02*
X12690476Y-14507201D01*
X12690476Y-14507201D02*
X12595238Y-14554820D01*
X12595238Y-14554820D02*
X12309524Y-14554820D01*
X12309524Y-14554820D02*
X12214286Y-14507201D01*
X12214286Y-14507201D02*
X12166667Y-14459581D01*
X57583333Y-91569581D02*
X57535714Y-91617201D01*
X57535714Y-91617201D02*
X57392857Y-91664820D01*
X57392857Y-91664820D02*
X57297619Y-91664820D01*
X57297619Y-91664820D02*
X57154762Y-91617201D01*
X57154762Y-91617201D02*
X57059524Y-91521962D01*
X57059524Y-91521962D02*
X57011905Y-91426724D01*
X57011905Y-91426724D02*
X56964286Y-91236248D01*
X56964286Y-91236248D02*
X56964286Y-91093391D01*
X56964286Y-91093391D02*
X57011905Y-90902915D01*
X57011905Y-90902915D02*
X57059524Y-90807677D01*
X57059524Y-90807677D02*
X57154762Y-90712439D01*
X57154762Y-90712439D02*
X57297619Y-90664820D01*
X57297619Y-90664820D02*
X57392857Y-90664820D01*
X57392857Y-90664820D02*
X57535714Y-90712439D01*
X57535714Y-90712439D02*
X57583333Y-90760058D01*
X57964286Y-90760058D02*
X58011905Y-90712439D01*
X58011905Y-90712439D02*
X58107143Y-90664820D01*
X58107143Y-90664820D02*
X58345238Y-90664820D01*
X58345238Y-90664820D02*
X58440476Y-90712439D01*
X58440476Y-90712439D02*
X58488095Y-90760058D01*
X58488095Y-90760058D02*
X58535714Y-90855296D01*
X58535714Y-90855296D02*
X58535714Y-90950534D01*
X58535714Y-90950534D02*
X58488095Y-91093391D01*
X58488095Y-91093391D02*
X57916667Y-91664820D01*
X57916667Y-91664820D02*
X58535714Y-91664820D01*
X12454819Y-9738094D02*
X11454819Y-9738094D01*
X11454819Y-9738094D02*
X11454819Y-9499999D01*
X11454819Y-9499999D02*
X11502438Y-9357142D01*
X11502438Y-9357142D02*
X11597676Y-9261904D01*
X11597676Y-9261904D02*
X11692914Y-9214285D01*
X11692914Y-9214285D02*
X11883390Y-9166666D01*
X11883390Y-9166666D02*
X12026247Y-9166666D01*
X12026247Y-9166666D02*
X12216723Y-9214285D01*
X12216723Y-9214285D02*
X12311961Y-9261904D01*
X12311961Y-9261904D02*
X12407200Y-9357142D01*
X12407200Y-9357142D02*
X12454819Y-9499999D01*
X12454819Y-9499999D02*
X12454819Y-9738094D01*
X11788152Y-8309523D02*
X12454819Y-8309523D01*
X11407200Y-8547618D02*
X12121485Y-8785713D01*
X12121485Y-8785713D02*
X12121485Y-8166666D01*
X15704819Y-9642857D02*
X15228628Y-9976190D01*
X15704819Y-10214285D02*
X14704819Y-10214285D01*
X14704819Y-10214285D02*
X14704819Y-9833333D01*
X14704819Y-9833333D02*
X14752438Y-9738095D01*
X14752438Y-9738095D02*
X14800057Y-9690476D01*
X14800057Y-9690476D02*
X14895295Y-9642857D01*
X14895295Y-9642857D02*
X15038152Y-9642857D01*
X15038152Y-9642857D02*
X15133390Y-9690476D01*
X15133390Y-9690476D02*
X15181009Y-9738095D01*
X15181009Y-9738095D02*
X15228628Y-9833333D01*
X15228628Y-9833333D02*
X15228628Y-10214285D01*
X14800057Y-9261904D02*
X14752438Y-9214285D01*
X14752438Y-9214285D02*
X14704819Y-9119047D01*
X14704819Y-9119047D02*
X14704819Y-8880952D01*
X14704819Y-8880952D02*
X14752438Y-8785714D01*
X14752438Y-8785714D02*
X14800057Y-8738095D01*
X14800057Y-8738095D02*
X14895295Y-8690476D01*
X14895295Y-8690476D02*
X14990533Y-8690476D01*
X14990533Y-8690476D02*
X15133390Y-8738095D01*
X15133390Y-8738095D02*
X15704819Y-9309523D01*
X15704819Y-9309523D02*
X15704819Y-8690476D01*
X15133390Y-8119047D02*
X15085771Y-8214285D01*
X15085771Y-8214285D02*
X15038152Y-8261904D01*
X15038152Y-8261904D02*
X14942914Y-8309523D01*
X14942914Y-8309523D02*
X14895295Y-8309523D01*
X14895295Y-8309523D02*
X14800057Y-8261904D01*
X14800057Y-8261904D02*
X14752438Y-8214285D01*
X14752438Y-8214285D02*
X14704819Y-8119047D01*
X14704819Y-8119047D02*
X14704819Y-7928571D01*
X14704819Y-7928571D02*
X14752438Y-7833333D01*
X14752438Y-7833333D02*
X14800057Y-7785714D01*
X14800057Y-7785714D02*
X14895295Y-7738095D01*
X14895295Y-7738095D02*
X14942914Y-7738095D01*
X14942914Y-7738095D02*
X15038152Y-7785714D01*
X15038152Y-7785714D02*
X15085771Y-7833333D01*
X15085771Y-7833333D02*
X15133390Y-7928571D01*
X15133390Y-7928571D02*
X15133390Y-8119047D01*
X15133390Y-8119047D02*
X15181009Y-8214285D01*
X15181009Y-8214285D02*
X15228628Y-8261904D01*
X15228628Y-8261904D02*
X15323866Y-8309523D01*
X15323866Y-8309523D02*
X15514342Y-8309523D01*
X15514342Y-8309523D02*
X15609580Y-8261904D01*
X15609580Y-8261904D02*
X15657200Y-8214285D01*
X15657200Y-8214285D02*
X15704819Y-8119047D01*
X15704819Y-8119047D02*
X15704819Y-7928571D01*
X15704819Y-7928571D02*
X15657200Y-7833333D01*
X15657200Y-7833333D02*
X15609580Y-7785714D01*
X15609580Y-7785714D02*
X15514342Y-7738095D01*
X15514342Y-7738095D02*
X15323866Y-7738095D01*
X15323866Y-7738095D02*
X15228628Y-7785714D01*
X15228628Y-7785714D02*
X15181009Y-7833333D01*
X15181009Y-7833333D02*
X15133390Y-7928571D01*
X32359580Y-83166666D02*
X32407200Y-83214285D01*
X32407200Y-83214285D02*
X32454819Y-83357142D01*
X32454819Y-83357142D02*
X32454819Y-83452380D01*
X32454819Y-83452380D02*
X32407200Y-83595237D01*
X32407200Y-83595237D02*
X32311961Y-83690475D01*
X32311961Y-83690475D02*
X32216723Y-83738094D01*
X32216723Y-83738094D02*
X32026247Y-83785713D01*
X32026247Y-83785713D02*
X31883390Y-83785713D01*
X31883390Y-83785713D02*
X31692914Y-83738094D01*
X31692914Y-83738094D02*
X31597676Y-83690475D01*
X31597676Y-83690475D02*
X31502438Y-83595237D01*
X31502438Y-83595237D02*
X31454819Y-83452380D01*
X31454819Y-83452380D02*
X31454819Y-83357142D01*
X31454819Y-83357142D02*
X31502438Y-83214285D01*
X31502438Y-83214285D02*
X31550057Y-83166666D01*
X31454819Y-82309523D02*
X31454819Y-82499999D01*
X31454819Y-82499999D02*
X31502438Y-82595237D01*
X31502438Y-82595237D02*
X31550057Y-82642856D01*
X31550057Y-82642856D02*
X31692914Y-82738094D01*
X31692914Y-82738094D02*
X31883390Y-82785713D01*
X31883390Y-82785713D02*
X32264342Y-82785713D01*
X32264342Y-82785713D02*
X32359580Y-82738094D01*
X32359580Y-82738094D02*
X32407200Y-82690475D01*
X32407200Y-82690475D02*
X32454819Y-82595237D01*
X32454819Y-82595237D02*
X32454819Y-82404761D01*
X32454819Y-82404761D02*
X32407200Y-82309523D01*
X32407200Y-82309523D02*
X32359580Y-82261904D01*
X32359580Y-82261904D02*
X32264342Y-82214285D01*
X32264342Y-82214285D02*
X32026247Y-82214285D01*
X32026247Y-82214285D02*
X31931009Y-82261904D01*
X31931009Y-82261904D02*
X31883390Y-82309523D01*
X31883390Y-82309523D02*
X31835771Y-82404761D01*
X31835771Y-82404761D02*
X31835771Y-82595237D01*
X31835771Y-82595237D02*
X31883390Y-82690475D01*
X31883390Y-82690475D02*
X31931009Y-82738094D01*
X31931009Y-82738094D02*
X32026247Y-82785713D01*
X38152142Y-18859580D02*
X38104523Y-18907200D01*
X38104523Y-18907200D02*
X37961666Y-18954819D01*
X37961666Y-18954819D02*
X37866428Y-18954819D01*
X37866428Y-18954819D02*
X37723571Y-18907200D01*
X37723571Y-18907200D02*
X37628333Y-18811961D01*
X37628333Y-18811961D02*
X37580714Y-18716723D01*
X37580714Y-18716723D02*
X37533095Y-18526247D01*
X37533095Y-18526247D02*
X37533095Y-18383390D01*
X37533095Y-18383390D02*
X37580714Y-18192914D01*
X37580714Y-18192914D02*
X37628333Y-18097676D01*
X37628333Y-18097676D02*
X37723571Y-18002438D01*
X37723571Y-18002438D02*
X37866428Y-17954819D01*
X37866428Y-17954819D02*
X37961666Y-17954819D01*
X37961666Y-17954819D02*
X38104523Y-18002438D01*
X38104523Y-18002438D02*
X38152142Y-18050057D01*
X39104523Y-18954819D02*
X38533095Y-18954819D01*
X38818809Y-18954819D02*
X38818809Y-17954819D01*
X38818809Y-17954819D02*
X38723571Y-18097676D01*
X38723571Y-18097676D02*
X38628333Y-18192914D01*
X38628333Y-18192914D02*
X38533095Y-18240533D01*
X39437857Y-17954819D02*
X40056904Y-17954819D01*
X40056904Y-17954819D02*
X39723571Y-18335771D01*
X39723571Y-18335771D02*
X39866428Y-18335771D01*
X39866428Y-18335771D02*
X39961666Y-18383390D01*
X39961666Y-18383390D02*
X40009285Y-18431009D01*
X40009285Y-18431009D02*
X40056904Y-18526247D01*
X40056904Y-18526247D02*
X40056904Y-18764342D01*
X40056904Y-18764342D02*
X40009285Y-18859580D01*
X40009285Y-18859580D02*
X39961666Y-18907200D01*
X39961666Y-18907200D02*
X39866428Y-18954819D01*
X39866428Y-18954819D02*
X39580714Y-18954819D01*
X39580714Y-18954819D02*
X39485476Y-18907200D01*
X39485476Y-18907200D02*
X39437857Y-18859580D01*
X68357142Y-71109580D02*
X68309523Y-71157200D01*
X68309523Y-71157200D02*
X68166666Y-71204819D01*
X68166666Y-71204819D02*
X68071428Y-71204819D01*
X68071428Y-71204819D02*
X67928571Y-71157200D01*
X67928571Y-71157200D02*
X67833333Y-71061961D01*
X67833333Y-71061961D02*
X67785714Y-70966723D01*
X67785714Y-70966723D02*
X67738095Y-70776247D01*
X67738095Y-70776247D02*
X67738095Y-70633390D01*
X67738095Y-70633390D02*
X67785714Y-70442914D01*
X67785714Y-70442914D02*
X67833333Y-70347676D01*
X67833333Y-70347676D02*
X67928571Y-70252438D01*
X67928571Y-70252438D02*
X68071428Y-70204819D01*
X68071428Y-70204819D02*
X68166666Y-70204819D01*
X68166666Y-70204819D02*
X68309523Y-70252438D01*
X68309523Y-70252438D02*
X68357142Y-70300057D01*
X68738095Y-70300057D02*
X68785714Y-70252438D01*
X68785714Y-70252438D02*
X68880952Y-70204819D01*
X68880952Y-70204819D02*
X69119047Y-70204819D01*
X69119047Y-70204819D02*
X69214285Y-70252438D01*
X69214285Y-70252438D02*
X69261904Y-70300057D01*
X69261904Y-70300057D02*
X69309523Y-70395295D01*
X69309523Y-70395295D02*
X69309523Y-70490533D01*
X69309523Y-70490533D02*
X69261904Y-70633390D01*
X69261904Y-70633390D02*
X68690476Y-71204819D01*
X68690476Y-71204819D02*
X69309523Y-71204819D01*
X69690476Y-70300057D02*
X69738095Y-70252438D01*
X69738095Y-70252438D02*
X69833333Y-70204819D01*
X69833333Y-70204819D02*
X70071428Y-70204819D01*
X70071428Y-70204819D02*
X70166666Y-70252438D01*
X70166666Y-70252438D02*
X70214285Y-70300057D01*
X70214285Y-70300057D02*
X70261904Y-70395295D01*
X70261904Y-70395295D02*
X70261904Y-70490533D01*
X70261904Y-70490533D02*
X70214285Y-70633390D01*
X70214285Y-70633390D02*
X69642857Y-71204819D01*
X69642857Y-71204819D02*
X70261904Y-71204819D01*
X41609580Y-70892857D02*
X41657200Y-70940476D01*
X41657200Y-70940476D02*
X41704819Y-71083333D01*
X41704819Y-71083333D02*
X41704819Y-71178571D01*
X41704819Y-71178571D02*
X41657200Y-71321428D01*
X41657200Y-71321428D02*
X41561961Y-71416666D01*
X41561961Y-71416666D02*
X41466723Y-71464285D01*
X41466723Y-71464285D02*
X41276247Y-71511904D01*
X41276247Y-71511904D02*
X41133390Y-71511904D01*
X41133390Y-71511904D02*
X40942914Y-71464285D01*
X40942914Y-71464285D02*
X40847676Y-71416666D01*
X40847676Y-71416666D02*
X40752438Y-71321428D01*
X40752438Y-71321428D02*
X40704819Y-71178571D01*
X40704819Y-71178571D02*
X40704819Y-71083333D01*
X40704819Y-71083333D02*
X40752438Y-70940476D01*
X40752438Y-70940476D02*
X40800057Y-70892857D01*
X41704819Y-69940476D02*
X41704819Y-70511904D01*
X41704819Y-70226190D02*
X40704819Y-70226190D01*
X40704819Y-70226190D02*
X40847676Y-70321428D01*
X40847676Y-70321428D02*
X40942914Y-70416666D01*
X40942914Y-70416666D02*
X40990533Y-70511904D01*
X40704819Y-69035714D02*
X40704819Y-69511904D01*
X40704819Y-69511904D02*
X41181009Y-69559523D01*
X41181009Y-69559523D02*
X41133390Y-69511904D01*
X41133390Y-69511904D02*
X41085771Y-69416666D01*
X41085771Y-69416666D02*
X41085771Y-69178571D01*
X41085771Y-69178571D02*
X41133390Y-69083333D01*
X41133390Y-69083333D02*
X41181009Y-69035714D01*
X41181009Y-69035714D02*
X41276247Y-68988095D01*
X41276247Y-68988095D02*
X41514342Y-68988095D01*
X41514342Y-68988095D02*
X41609580Y-69035714D01*
X41609580Y-69035714D02*
X41657200Y-69083333D01*
X41657200Y-69083333D02*
X41704819Y-69178571D01*
X41704819Y-69178571D02*
X41704819Y-69416666D01*
X41704819Y-69416666D02*
X41657200Y-69511904D01*
X41657200Y-69511904D02*
X41609580Y-69559523D01*
X51857142Y-23929580D02*
X51809523Y-23977200D01*
X51809523Y-23977200D02*
X51666666Y-24024819D01*
X51666666Y-24024819D02*
X51571428Y-24024819D01*
X51571428Y-24024819D02*
X51428571Y-23977200D01*
X51428571Y-23977200D02*
X51333333Y-23881961D01*
X51333333Y-23881961D02*
X51285714Y-23786723D01*
X51285714Y-23786723D02*
X51238095Y-23596247D01*
X51238095Y-23596247D02*
X51238095Y-23453390D01*
X51238095Y-23453390D02*
X51285714Y-23262914D01*
X51285714Y-23262914D02*
X51333333Y-23167676D01*
X51333333Y-23167676D02*
X51428571Y-23072438D01*
X51428571Y-23072438D02*
X51571428Y-23024819D01*
X51571428Y-23024819D02*
X51666666Y-23024819D01*
X51666666Y-23024819D02*
X51809523Y-23072438D01*
X51809523Y-23072438D02*
X51857142Y-23120057D01*
X52809523Y-24024819D02*
X52238095Y-24024819D01*
X52523809Y-24024819D02*
X52523809Y-23024819D01*
X52523809Y-23024819D02*
X52428571Y-23167676D01*
X52428571Y-23167676D02*
X52333333Y-23262914D01*
X52333333Y-23262914D02*
X52238095Y-23310533D01*
X53380952Y-23453390D02*
X53285714Y-23405771D01*
X53285714Y-23405771D02*
X53238095Y-23358152D01*
X53238095Y-23358152D02*
X53190476Y-23262914D01*
X53190476Y-23262914D02*
X53190476Y-23215295D01*
X53190476Y-23215295D02*
X53238095Y-23120057D01*
X53238095Y-23120057D02*
X53285714Y-23072438D01*
X53285714Y-23072438D02*
X53380952Y-23024819D01*
X53380952Y-23024819D02*
X53571428Y-23024819D01*
X53571428Y-23024819D02*
X53666666Y-23072438D01*
X53666666Y-23072438D02*
X53714285Y-23120057D01*
X53714285Y-23120057D02*
X53761904Y-23215295D01*
X53761904Y-23215295D02*
X53761904Y-23262914D01*
X53761904Y-23262914D02*
X53714285Y-23358152D01*
X53714285Y-23358152D02*
X53666666Y-23405771D01*
X53666666Y-23405771D02*
X53571428Y-23453390D01*
X53571428Y-23453390D02*
X53380952Y-23453390D01*
X53380952Y-23453390D02*
X53285714Y-23501009D01*
X53285714Y-23501009D02*
X53238095Y-23548628D01*
X53238095Y-23548628D02*
X53190476Y-23643866D01*
X53190476Y-23643866D02*
X53190476Y-23834342D01*
X53190476Y-23834342D02*
X53238095Y-23929580D01*
X53238095Y-23929580D02*
X53285714Y-23977200D01*
X53285714Y-23977200D02*
X53380952Y-24024819D01*
X53380952Y-24024819D02*
X53571428Y-24024819D01*
X53571428Y-24024819D02*
X53666666Y-23977200D01*
X53666666Y-23977200D02*
X53714285Y-23929580D01*
X53714285Y-23929580D02*
X53761904Y-23834342D01*
X53761904Y-23834342D02*
X53761904Y-23643866D01*
X53761904Y-23643866D02*
X53714285Y-23548628D01*
X53714285Y-23548628D02*
X53666666Y-23501009D01*
X53666666Y-23501009D02*
X53571428Y-23453390D01*
X49166666Y-93641009D02*
X48833333Y-93641009D01*
X48833333Y-94164819D02*
X48833333Y-93164819D01*
X48833333Y-93164819D02*
X49309523Y-93164819D01*
X50023809Y-93641009D02*
X50166666Y-93688628D01*
X50166666Y-93688628D02*
X50214285Y-93736247D01*
X50214285Y-93736247D02*
X50261904Y-93831485D01*
X50261904Y-93831485D02*
X50261904Y-93974342D01*
X50261904Y-93974342D02*
X50214285Y-94069580D01*
X50214285Y-94069580D02*
X50166666Y-94117200D01*
X50166666Y-94117200D02*
X50071428Y-94164819D01*
X50071428Y-94164819D02*
X49690476Y-94164819D01*
X49690476Y-94164819D02*
X49690476Y-93164819D01*
X49690476Y-93164819D02*
X50023809Y-93164819D01*
X50023809Y-93164819D02*
X50119047Y-93212438D01*
X50119047Y-93212438D02*
X50166666Y-93260057D01*
X50166666Y-93260057D02*
X50214285Y-93355295D01*
X50214285Y-93355295D02*
X50214285Y-93450533D01*
X50214285Y-93450533D02*
X50166666Y-93545771D01*
X50166666Y-93545771D02*
X50119047Y-93593390D01*
X50119047Y-93593390D02*
X50023809Y-93641009D01*
X50023809Y-93641009D02*
X49690476Y-93641009D01*
X51214285Y-94164819D02*
X50642857Y-94164819D01*
X50928571Y-94164819D02*
X50928571Y-93164819D01*
X50928571Y-93164819D02*
X50833333Y-93307676D01*
X50833333Y-93307676D02*
X50738095Y-93402914D01*
X50738095Y-93402914D02*
X50642857Y-93450533D01*
X51677142Y-19704819D02*
X51343809Y-19228628D01*
X51105714Y-19704819D02*
X51105714Y-18704819D01*
X51105714Y-18704819D02*
X51486666Y-18704819D01*
X51486666Y-18704819D02*
X51581904Y-18752438D01*
X51581904Y-18752438D02*
X51629523Y-18800057D01*
X51629523Y-18800057D02*
X51677142Y-18895295D01*
X51677142Y-18895295D02*
X51677142Y-19038152D01*
X51677142Y-19038152D02*
X51629523Y-19133390D01*
X51629523Y-19133390D02*
X51581904Y-19181009D01*
X51581904Y-19181009D02*
X51486666Y-19228628D01*
X51486666Y-19228628D02*
X51105714Y-19228628D01*
X52058095Y-18800057D02*
X52105714Y-18752438D01*
X52105714Y-18752438D02*
X52200952Y-18704819D01*
X52200952Y-18704819D02*
X52439047Y-18704819D01*
X52439047Y-18704819D02*
X52534285Y-18752438D01*
X52534285Y-18752438D02*
X52581904Y-18800057D01*
X52581904Y-18800057D02*
X52629523Y-18895295D01*
X52629523Y-18895295D02*
X52629523Y-18990533D01*
X52629523Y-18990533D02*
X52581904Y-19133390D01*
X52581904Y-19133390D02*
X52010476Y-19704819D01*
X52010476Y-19704819D02*
X52629523Y-19704819D01*
X53248571Y-18704819D02*
X53343809Y-18704819D01*
X53343809Y-18704819D02*
X53439047Y-18752438D01*
X53439047Y-18752438D02*
X53486666Y-18800057D01*
X53486666Y-18800057D02*
X53534285Y-18895295D01*
X53534285Y-18895295D02*
X53581904Y-19085771D01*
X53581904Y-19085771D02*
X53581904Y-19323866D01*
X53581904Y-19323866D02*
X53534285Y-19514342D01*
X53534285Y-19514342D02*
X53486666Y-19609580D01*
X53486666Y-19609580D02*
X53439047Y-19657200D01*
X53439047Y-19657200D02*
X53343809Y-19704819D01*
X53343809Y-19704819D02*
X53248571Y-19704819D01*
X53248571Y-19704819D02*
X53153333Y-19657200D01*
X53153333Y-19657200D02*
X53105714Y-19609580D01*
X53105714Y-19609580D02*
X53058095Y-19514342D01*
X53058095Y-19514342D02*
X53010476Y-19323866D01*
X53010476Y-19323866D02*
X53010476Y-19085771D01*
X53010476Y-19085771D02*
X53058095Y-18895295D01*
X53058095Y-18895295D02*
X53105714Y-18800057D01*
X53105714Y-18800057D02*
X53153333Y-18752438D01*
X53153333Y-18752438D02*
X53248571Y-18704819D01*
X58454819Y-26166666D02*
X57978628Y-26499999D01*
X58454819Y-26738094D02*
X57454819Y-26738094D01*
X57454819Y-26738094D02*
X57454819Y-26357142D01*
X57454819Y-26357142D02*
X57502438Y-26261904D01*
X57502438Y-26261904D02*
X57550057Y-26214285D01*
X57550057Y-26214285D02*
X57645295Y-26166666D01*
X57645295Y-26166666D02*
X57788152Y-26166666D01*
X57788152Y-26166666D02*
X57883390Y-26214285D01*
X57883390Y-26214285D02*
X57931009Y-26261904D01*
X57931009Y-26261904D02*
X57978628Y-26357142D01*
X57978628Y-26357142D02*
X57978628Y-26738094D01*
X57550057Y-25785713D02*
X57502438Y-25738094D01*
X57502438Y-25738094D02*
X57454819Y-25642856D01*
X57454819Y-25642856D02*
X57454819Y-25404761D01*
X57454819Y-25404761D02*
X57502438Y-25309523D01*
X57502438Y-25309523D02*
X57550057Y-25261904D01*
X57550057Y-25261904D02*
X57645295Y-25214285D01*
X57645295Y-25214285D02*
X57740533Y-25214285D01*
X57740533Y-25214285D02*
X57883390Y-25261904D01*
X57883390Y-25261904D02*
X58454819Y-25833332D01*
X58454819Y-25833332D02*
X58454819Y-25214285D01*
X12404761Y-71654819D02*
X12071428Y-71178628D01*
X11833333Y-71654819D02*
X11833333Y-70654819D01*
X11833333Y-70654819D02*
X12214285Y-70654819D01*
X12214285Y-70654819D02*
X12309523Y-70702438D01*
X12309523Y-70702438D02*
X12357142Y-70750057D01*
X12357142Y-70750057D02*
X12404761Y-70845295D01*
X12404761Y-70845295D02*
X12404761Y-70988152D01*
X12404761Y-70988152D02*
X12357142Y-71083390D01*
X12357142Y-71083390D02*
X12309523Y-71131009D01*
X12309523Y-71131009D02*
X12214285Y-71178628D01*
X12214285Y-71178628D02*
X11833333Y-71178628D01*
X12690476Y-70654819D02*
X13023809Y-71654819D01*
X13023809Y-71654819D02*
X13357142Y-70654819D01*
X13642857Y-70750057D02*
X13690476Y-70702438D01*
X13690476Y-70702438D02*
X13785714Y-70654819D01*
X13785714Y-70654819D02*
X14023809Y-70654819D01*
X14023809Y-70654819D02*
X14119047Y-70702438D01*
X14119047Y-70702438D02*
X14166666Y-70750057D01*
X14166666Y-70750057D02*
X14214285Y-70845295D01*
X14214285Y-70845295D02*
X14214285Y-70940533D01*
X14214285Y-70940533D02*
X14166666Y-71083390D01*
X14166666Y-71083390D02*
X13595238Y-71654819D01*
X13595238Y-71654819D02*
X14214285Y-71654819D01*
X47204819Y-29142857D02*
X46728628Y-29476190D01*
X47204819Y-29714285D02*
X46204819Y-29714285D01*
X46204819Y-29714285D02*
X46204819Y-29333333D01*
X46204819Y-29333333D02*
X46252438Y-29238095D01*
X46252438Y-29238095D02*
X46300057Y-29190476D01*
X46300057Y-29190476D02*
X46395295Y-29142857D01*
X46395295Y-29142857D02*
X46538152Y-29142857D01*
X46538152Y-29142857D02*
X46633390Y-29190476D01*
X46633390Y-29190476D02*
X46681009Y-29238095D01*
X46681009Y-29238095D02*
X46728628Y-29333333D01*
X46728628Y-29333333D02*
X46728628Y-29714285D01*
X47204819Y-28190476D02*
X47204819Y-28761904D01*
X47204819Y-28476190D02*
X46204819Y-28476190D01*
X46204819Y-28476190D02*
X46347676Y-28571428D01*
X46347676Y-28571428D02*
X46442914Y-28666666D01*
X46442914Y-28666666D02*
X46490533Y-28761904D01*
X46204819Y-27857142D02*
X46204819Y-27190476D01*
X46204819Y-27190476D02*
X47204819Y-27619047D01*
X47902142Y-17204819D02*
X47568809Y-16728628D01*
X47330714Y-17204819D02*
X47330714Y-16204819D01*
X47330714Y-16204819D02*
X47711666Y-16204819D01*
X47711666Y-16204819D02*
X47806904Y-16252438D01*
X47806904Y-16252438D02*
X47854523Y-16300057D01*
X47854523Y-16300057D02*
X47902142Y-16395295D01*
X47902142Y-16395295D02*
X47902142Y-16538152D01*
X47902142Y-16538152D02*
X47854523Y-16633390D01*
X47854523Y-16633390D02*
X47806904Y-16681009D01*
X47806904Y-16681009D02*
X47711666Y-16728628D01*
X47711666Y-16728628D02*
X47330714Y-16728628D01*
X48283095Y-16300057D02*
X48330714Y-16252438D01*
X48330714Y-16252438D02*
X48425952Y-16204819D01*
X48425952Y-16204819D02*
X48664047Y-16204819D01*
X48664047Y-16204819D02*
X48759285Y-16252438D01*
X48759285Y-16252438D02*
X48806904Y-16300057D01*
X48806904Y-16300057D02*
X48854523Y-16395295D01*
X48854523Y-16395295D02*
X48854523Y-16490533D01*
X48854523Y-16490533D02*
X48806904Y-16633390D01*
X48806904Y-16633390D02*
X48235476Y-17204819D01*
X48235476Y-17204819D02*
X48854523Y-17204819D01*
X49806904Y-17204819D02*
X49235476Y-17204819D01*
X49521190Y-17204819D02*
X49521190Y-16204819D01*
X49521190Y-16204819D02*
X49425952Y-16347676D01*
X49425952Y-16347676D02*
X49330714Y-16442914D01*
X49330714Y-16442914D02*
X49235476Y-16490533D01*
X38833333Y-29859580D02*
X38785714Y-29907200D01*
X38785714Y-29907200D02*
X38642857Y-29954819D01*
X38642857Y-29954819D02*
X38547619Y-29954819D01*
X38547619Y-29954819D02*
X38404762Y-29907200D01*
X38404762Y-29907200D02*
X38309524Y-29811961D01*
X38309524Y-29811961D02*
X38261905Y-29716723D01*
X38261905Y-29716723D02*
X38214286Y-29526247D01*
X38214286Y-29526247D02*
X38214286Y-29383390D01*
X38214286Y-29383390D02*
X38261905Y-29192914D01*
X38261905Y-29192914D02*
X38309524Y-29097676D01*
X38309524Y-29097676D02*
X38404762Y-29002438D01*
X38404762Y-29002438D02*
X38547619Y-28954819D01*
X38547619Y-28954819D02*
X38642857Y-28954819D01*
X38642857Y-28954819D02*
X38785714Y-29002438D01*
X38785714Y-29002438D02*
X38833333Y-29050057D01*
X39309524Y-29954819D02*
X39500000Y-29954819D01*
X39500000Y-29954819D02*
X39595238Y-29907200D01*
X39595238Y-29907200D02*
X39642857Y-29859580D01*
X39642857Y-29859580D02*
X39738095Y-29716723D01*
X39738095Y-29716723D02*
X39785714Y-29526247D01*
X39785714Y-29526247D02*
X39785714Y-29145295D01*
X39785714Y-29145295D02*
X39738095Y-29050057D01*
X39738095Y-29050057D02*
X39690476Y-29002438D01*
X39690476Y-29002438D02*
X39595238Y-28954819D01*
X39595238Y-28954819D02*
X39404762Y-28954819D01*
X39404762Y-28954819D02*
X39309524Y-29002438D01*
X39309524Y-29002438D02*
X39261905Y-29050057D01*
X39261905Y-29050057D02*
X39214286Y-29145295D01*
X39214286Y-29145295D02*
X39214286Y-29383390D01*
X39214286Y-29383390D02*
X39261905Y-29478628D01*
X39261905Y-29478628D02*
X39309524Y-29526247D01*
X39309524Y-29526247D02*
X39404762Y-29573866D01*
X39404762Y-29573866D02*
X39595238Y-29573866D01*
X39595238Y-29573866D02*
X39690476Y-29526247D01*
X39690476Y-29526247D02*
X39738095Y-29478628D01*
X39738095Y-29478628D02*
X39785714Y-29383390D01*
X30704819Y-83166666D02*
X30228628Y-83499999D01*
X30704819Y-83738094D02*
X29704819Y-83738094D01*
X29704819Y-83738094D02*
X29704819Y-83357142D01*
X29704819Y-83357142D02*
X29752438Y-83261904D01*
X29752438Y-83261904D02*
X29800057Y-83214285D01*
X29800057Y-83214285D02*
X29895295Y-83166666D01*
X29895295Y-83166666D02*
X30038152Y-83166666D01*
X30038152Y-83166666D02*
X30133390Y-83214285D01*
X30133390Y-83214285D02*
X30181009Y-83261904D01*
X30181009Y-83261904D02*
X30228628Y-83357142D01*
X30228628Y-83357142D02*
X30228628Y-83738094D01*
X30704819Y-82690475D02*
X30704819Y-82499999D01*
X30704819Y-82499999D02*
X30657200Y-82404761D01*
X30657200Y-82404761D02*
X30609580Y-82357142D01*
X30609580Y-82357142D02*
X30466723Y-82261904D01*
X30466723Y-82261904D02*
X30276247Y-82214285D01*
X30276247Y-82214285D02*
X29895295Y-82214285D01*
X29895295Y-82214285D02*
X29800057Y-82261904D01*
X29800057Y-82261904D02*
X29752438Y-82309523D01*
X29752438Y-82309523D02*
X29704819Y-82404761D01*
X29704819Y-82404761D02*
X29704819Y-82595237D01*
X29704819Y-82595237D02*
X29752438Y-82690475D01*
X29752438Y-82690475D02*
X29800057Y-82738094D01*
X29800057Y-82738094D02*
X29895295Y-82785713D01*
X29895295Y-82785713D02*
X30133390Y-82785713D01*
X30133390Y-82785713D02*
X30228628Y-82738094D01*
X30228628Y-82738094D02*
X30276247Y-82690475D01*
X30276247Y-82690475D02*
X30323866Y-82595237D01*
X30323866Y-82595237D02*
X30323866Y-82404761D01*
X30323866Y-82404761D02*
X30276247Y-82309523D01*
X30276247Y-82309523D02*
X30228628Y-82261904D01*
X30228628Y-82261904D02*
X30133390Y-82214285D01*
X34204819Y-48892857D02*
X33728628Y-49226190D01*
X34204819Y-49464285D02*
X33204819Y-49464285D01*
X33204819Y-49464285D02*
X33204819Y-49083333D01*
X33204819Y-49083333D02*
X33252438Y-48988095D01*
X33252438Y-48988095D02*
X33300057Y-48940476D01*
X33300057Y-48940476D02*
X33395295Y-48892857D01*
X33395295Y-48892857D02*
X33538152Y-48892857D01*
X33538152Y-48892857D02*
X33633390Y-48940476D01*
X33633390Y-48940476D02*
X33681009Y-48988095D01*
X33681009Y-48988095D02*
X33728628Y-49083333D01*
X33728628Y-49083333D02*
X33728628Y-49464285D01*
X34204819Y-47940476D02*
X34204819Y-48511904D01*
X34204819Y-48226190D02*
X33204819Y-48226190D01*
X33204819Y-48226190D02*
X33347676Y-48321428D01*
X33347676Y-48321428D02*
X33442914Y-48416666D01*
X33442914Y-48416666D02*
X33490533Y-48511904D01*
X33538152Y-47083333D02*
X34204819Y-47083333D01*
X33157200Y-47321428D02*
X33871485Y-47559523D01*
X33871485Y-47559523D02*
X33871485Y-46940476D01*
X30357142Y-74954819D02*
X30023809Y-74478628D01*
X29785714Y-74954819D02*
X29785714Y-73954819D01*
X29785714Y-73954819D02*
X30166666Y-73954819D01*
X30166666Y-73954819D02*
X30261904Y-74002438D01*
X30261904Y-74002438D02*
X30309523Y-74050057D01*
X30309523Y-74050057D02*
X30357142Y-74145295D01*
X30357142Y-74145295D02*
X30357142Y-74288152D01*
X30357142Y-74288152D02*
X30309523Y-74383390D01*
X30309523Y-74383390D02*
X30261904Y-74431009D01*
X30261904Y-74431009D02*
X30166666Y-74478628D01*
X30166666Y-74478628D02*
X29785714Y-74478628D01*
X31309523Y-74954819D02*
X30738095Y-74954819D01*
X31023809Y-74954819D02*
X31023809Y-73954819D01*
X31023809Y-73954819D02*
X30928571Y-74097676D01*
X30928571Y-74097676D02*
X30833333Y-74192914D01*
X30833333Y-74192914D02*
X30738095Y-74240533D01*
X32261904Y-74954819D02*
X31690476Y-74954819D01*
X31976190Y-74954819D02*
X31976190Y-73954819D01*
X31976190Y-73954819D02*
X31880952Y-74097676D01*
X31880952Y-74097676D02*
X31785714Y-74192914D01*
X31785714Y-74192914D02*
X31690476Y-74240533D01*
X58454819Y-29916666D02*
X57978628Y-30249999D01*
X58454819Y-30488094D02*
X57454819Y-30488094D01*
X57454819Y-30488094D02*
X57454819Y-30107142D01*
X57454819Y-30107142D02*
X57502438Y-30011904D01*
X57502438Y-30011904D02*
X57550057Y-29964285D01*
X57550057Y-29964285D02*
X57645295Y-29916666D01*
X57645295Y-29916666D02*
X57788152Y-29916666D01*
X57788152Y-29916666D02*
X57883390Y-29964285D01*
X57883390Y-29964285D02*
X57931009Y-30011904D01*
X57931009Y-30011904D02*
X57978628Y-30107142D01*
X57978628Y-30107142D02*
X57978628Y-30488094D01*
X57454819Y-29583332D02*
X57454819Y-28916666D01*
X57454819Y-28916666D02*
X58454819Y-29345237D01*
X40902142Y-14859580D02*
X40854523Y-14907200D01*
X40854523Y-14907200D02*
X40711666Y-14954819D01*
X40711666Y-14954819D02*
X40616428Y-14954819D01*
X40616428Y-14954819D02*
X40473571Y-14907200D01*
X40473571Y-14907200D02*
X40378333Y-14811961D01*
X40378333Y-14811961D02*
X40330714Y-14716723D01*
X40330714Y-14716723D02*
X40283095Y-14526247D01*
X40283095Y-14526247D02*
X40283095Y-14383390D01*
X40283095Y-14383390D02*
X40330714Y-14192914D01*
X40330714Y-14192914D02*
X40378333Y-14097676D01*
X40378333Y-14097676D02*
X40473571Y-14002438D01*
X40473571Y-14002438D02*
X40616428Y-13954819D01*
X40616428Y-13954819D02*
X40711666Y-13954819D01*
X40711666Y-13954819D02*
X40854523Y-14002438D01*
X40854523Y-14002438D02*
X40902142Y-14050057D01*
X41854523Y-14954819D02*
X41283095Y-14954819D01*
X41568809Y-14954819D02*
X41568809Y-13954819D01*
X41568809Y-13954819D02*
X41473571Y-14097676D01*
X41473571Y-14097676D02*
X41378333Y-14192914D01*
X41378333Y-14192914D02*
X41283095Y-14240533D01*
X42806904Y-14954819D02*
X42235476Y-14954819D01*
X42521190Y-14954819D02*
X42521190Y-13954819D01*
X42521190Y-13954819D02*
X42425952Y-14097676D01*
X42425952Y-14097676D02*
X42330714Y-14192914D01*
X42330714Y-14192914D02*
X42235476Y-14240533D01*
X21954819Y-89642857D02*
X21478628Y-89976190D01*
X21954819Y-90214285D02*
X20954819Y-90214285D01*
X20954819Y-90214285D02*
X20954819Y-89833333D01*
X20954819Y-89833333D02*
X21002438Y-89738095D01*
X21002438Y-89738095D02*
X21050057Y-89690476D01*
X21050057Y-89690476D02*
X21145295Y-89642857D01*
X21145295Y-89642857D02*
X21288152Y-89642857D01*
X21288152Y-89642857D02*
X21383390Y-89690476D01*
X21383390Y-89690476D02*
X21431009Y-89738095D01*
X21431009Y-89738095D02*
X21478628Y-89833333D01*
X21478628Y-89833333D02*
X21478628Y-90214285D01*
X21050057Y-89261904D02*
X21002438Y-89214285D01*
X21002438Y-89214285D02*
X20954819Y-89119047D01*
X20954819Y-89119047D02*
X20954819Y-88880952D01*
X20954819Y-88880952D02*
X21002438Y-88785714D01*
X21002438Y-88785714D02*
X21050057Y-88738095D01*
X21050057Y-88738095D02*
X21145295Y-88690476D01*
X21145295Y-88690476D02*
X21240533Y-88690476D01*
X21240533Y-88690476D02*
X21383390Y-88738095D01*
X21383390Y-88738095D02*
X21954819Y-89309523D01*
X21954819Y-89309523D02*
X21954819Y-88690476D01*
X21288152Y-87833333D02*
X21954819Y-87833333D01*
X20907200Y-88071428D02*
X21621485Y-88309523D01*
X21621485Y-88309523D02*
X21621485Y-87690476D01*
X68357142Y-64609580D02*
X68309523Y-64657200D01*
X68309523Y-64657200D02*
X68166666Y-64704819D01*
X68166666Y-64704819D02*
X68071428Y-64704819D01*
X68071428Y-64704819D02*
X67928571Y-64657200D01*
X67928571Y-64657200D02*
X67833333Y-64561961D01*
X67833333Y-64561961D02*
X67785714Y-64466723D01*
X67785714Y-64466723D02*
X67738095Y-64276247D01*
X67738095Y-64276247D02*
X67738095Y-64133390D01*
X67738095Y-64133390D02*
X67785714Y-63942914D01*
X67785714Y-63942914D02*
X67833333Y-63847676D01*
X67833333Y-63847676D02*
X67928571Y-63752438D01*
X67928571Y-63752438D02*
X68071428Y-63704819D01*
X68071428Y-63704819D02*
X68166666Y-63704819D01*
X68166666Y-63704819D02*
X68309523Y-63752438D01*
X68309523Y-63752438D02*
X68357142Y-63800057D01*
X68738095Y-63800057D02*
X68785714Y-63752438D01*
X68785714Y-63752438D02*
X68880952Y-63704819D01*
X68880952Y-63704819D02*
X69119047Y-63704819D01*
X69119047Y-63704819D02*
X69214285Y-63752438D01*
X69214285Y-63752438D02*
X69261904Y-63800057D01*
X69261904Y-63800057D02*
X69309523Y-63895295D01*
X69309523Y-63895295D02*
X69309523Y-63990533D01*
X69309523Y-63990533D02*
X69261904Y-64133390D01*
X69261904Y-64133390D02*
X68690476Y-64704819D01*
X68690476Y-64704819D02*
X69309523Y-64704819D01*
X70261904Y-64704819D02*
X69690476Y-64704819D01*
X69976190Y-64704819D02*
X69976190Y-63704819D01*
X69976190Y-63704819D02*
X69880952Y-63847676D01*
X69880952Y-63847676D02*
X69785714Y-63942914D01*
X69785714Y-63942914D02*
X69690476Y-63990533D01*
X61584580Y-82376666D02*
X61632200Y-82424285D01*
X61632200Y-82424285D02*
X61679819Y-82567142D01*
X61679819Y-82567142D02*
X61679819Y-82662380D01*
X61679819Y-82662380D02*
X61632200Y-82805237D01*
X61632200Y-82805237D02*
X61536961Y-82900475D01*
X61536961Y-82900475D02*
X61441723Y-82948094D01*
X61441723Y-82948094D02*
X61251247Y-82995713D01*
X61251247Y-82995713D02*
X61108390Y-82995713D01*
X61108390Y-82995713D02*
X60917914Y-82948094D01*
X60917914Y-82948094D02*
X60822676Y-82900475D01*
X60822676Y-82900475D02*
X60727438Y-82805237D01*
X60727438Y-82805237D02*
X60679819Y-82662380D01*
X60679819Y-82662380D02*
X60679819Y-82567142D01*
X60679819Y-82567142D02*
X60727438Y-82424285D01*
X60727438Y-82424285D02*
X60775057Y-82376666D01*
X61679819Y-81424285D02*
X61679819Y-81995713D01*
X61679819Y-81709999D02*
X60679819Y-81709999D01*
X60679819Y-81709999D02*
X60822676Y-81805237D01*
X60822676Y-81805237D02*
X60917914Y-81900475D01*
X60917914Y-81900475D02*
X60965533Y-81995713D01*
X12404761Y-96654819D02*
X12071428Y-96178628D01*
X11833333Y-96654819D02*
X11833333Y-95654819D01*
X11833333Y-95654819D02*
X12214285Y-95654819D01*
X12214285Y-95654819D02*
X12309523Y-95702438D01*
X12309523Y-95702438D02*
X12357142Y-95750057D01*
X12357142Y-95750057D02*
X12404761Y-95845295D01*
X12404761Y-95845295D02*
X12404761Y-95988152D01*
X12404761Y-95988152D02*
X12357142Y-96083390D01*
X12357142Y-96083390D02*
X12309523Y-96131009D01*
X12309523Y-96131009D02*
X12214285Y-96178628D01*
X12214285Y-96178628D02*
X11833333Y-96178628D01*
X12690476Y-95654819D02*
X13023809Y-96654819D01*
X13023809Y-96654819D02*
X13357142Y-95654819D01*
X14214285Y-96654819D02*
X13642857Y-96654819D01*
X13928571Y-96654819D02*
X13928571Y-95654819D01*
X13928571Y-95654819D02*
X13833333Y-95797676D01*
X13833333Y-95797676D02*
X13738095Y-95892914D01*
X13738095Y-95892914D02*
X13642857Y-95940533D01*
X33954819Y-77892857D02*
X33478628Y-78226190D01*
X33954819Y-78464285D02*
X32954819Y-78464285D01*
X32954819Y-78464285D02*
X32954819Y-78083333D01*
X32954819Y-78083333D02*
X33002438Y-77988095D01*
X33002438Y-77988095D02*
X33050057Y-77940476D01*
X33050057Y-77940476D02*
X33145295Y-77892857D01*
X33145295Y-77892857D02*
X33288152Y-77892857D01*
X33288152Y-77892857D02*
X33383390Y-77940476D01*
X33383390Y-77940476D02*
X33431009Y-77988095D01*
X33431009Y-77988095D02*
X33478628Y-78083333D01*
X33478628Y-78083333D02*
X33478628Y-78464285D01*
X33954819Y-76940476D02*
X33954819Y-77511904D01*
X33954819Y-77226190D02*
X32954819Y-77226190D01*
X32954819Y-77226190D02*
X33097676Y-77321428D01*
X33097676Y-77321428D02*
X33192914Y-77416666D01*
X33192914Y-77416666D02*
X33240533Y-77511904D01*
X33050057Y-76559523D02*
X33002438Y-76511904D01*
X33002438Y-76511904D02*
X32954819Y-76416666D01*
X32954819Y-76416666D02*
X32954819Y-76178571D01*
X32954819Y-76178571D02*
X33002438Y-76083333D01*
X33002438Y-76083333D02*
X33050057Y-76035714D01*
X33050057Y-76035714D02*
X33145295Y-75988095D01*
X33145295Y-75988095D02*
X33240533Y-75988095D01*
X33240533Y-75988095D02*
X33383390Y-76035714D01*
X33383390Y-76035714D02*
X33954819Y-76607142D01*
X33954819Y-76607142D02*
X33954819Y-75988095D01*
X51652142Y-9954819D02*
X51318809Y-9478628D01*
X51080714Y-9954819D02*
X51080714Y-8954819D01*
X51080714Y-8954819D02*
X51461666Y-8954819D01*
X51461666Y-8954819D02*
X51556904Y-9002438D01*
X51556904Y-9002438D02*
X51604523Y-9050057D01*
X51604523Y-9050057D02*
X51652142Y-9145295D01*
X51652142Y-9145295D02*
X51652142Y-9288152D01*
X51652142Y-9288152D02*
X51604523Y-9383390D01*
X51604523Y-9383390D02*
X51556904Y-9431009D01*
X51556904Y-9431009D02*
X51461666Y-9478628D01*
X51461666Y-9478628D02*
X51080714Y-9478628D01*
X52604523Y-9954819D02*
X52033095Y-9954819D01*
X52318809Y-9954819D02*
X52318809Y-8954819D01*
X52318809Y-8954819D02*
X52223571Y-9097676D01*
X52223571Y-9097676D02*
X52128333Y-9192914D01*
X52128333Y-9192914D02*
X52033095Y-9240533D01*
X53080714Y-9954819D02*
X53271190Y-9954819D01*
X53271190Y-9954819D02*
X53366428Y-9907200D01*
X53366428Y-9907200D02*
X53414047Y-9859580D01*
X53414047Y-9859580D02*
X53509285Y-9716723D01*
X53509285Y-9716723D02*
X53556904Y-9526247D01*
X53556904Y-9526247D02*
X53556904Y-9145295D01*
X53556904Y-9145295D02*
X53509285Y-9050057D01*
X53509285Y-9050057D02*
X53461666Y-9002438D01*
X53461666Y-9002438D02*
X53366428Y-8954819D01*
X53366428Y-8954819D02*
X53175952Y-8954819D01*
X53175952Y-8954819D02*
X53080714Y-9002438D01*
X53080714Y-9002438D02*
X53033095Y-9050057D01*
X53033095Y-9050057D02*
X52985476Y-9145295D01*
X52985476Y-9145295D02*
X52985476Y-9383390D01*
X52985476Y-9383390D02*
X53033095Y-9478628D01*
X53033095Y-9478628D02*
X53080714Y-9526247D01*
X53080714Y-9526247D02*
X53175952Y-9573866D01*
X53175952Y-9573866D02*
X53366428Y-9573866D01*
X53366428Y-9573866D02*
X53461666Y-9526247D01*
X53461666Y-9526247D02*
X53509285Y-9478628D01*
X53509285Y-9478628D02*
X53556904Y-9383390D01*
X50083333Y-91609580D02*
X50035714Y-91657200D01*
X50035714Y-91657200D02*
X49892857Y-91704819D01*
X49892857Y-91704819D02*
X49797619Y-91704819D01*
X49797619Y-91704819D02*
X49654762Y-91657200D01*
X49654762Y-91657200D02*
X49559524Y-91561961D01*
X49559524Y-91561961D02*
X49511905Y-91466723D01*
X49511905Y-91466723D02*
X49464286Y-91276247D01*
X49464286Y-91276247D02*
X49464286Y-91133390D01*
X49464286Y-91133390D02*
X49511905Y-90942914D01*
X49511905Y-90942914D02*
X49559524Y-90847676D01*
X49559524Y-90847676D02*
X49654762Y-90752438D01*
X49654762Y-90752438D02*
X49797619Y-90704819D01*
X49797619Y-90704819D02*
X49892857Y-90704819D01*
X49892857Y-90704819D02*
X50035714Y-90752438D01*
X50035714Y-90752438D02*
X50083333Y-90800057D01*
X50940476Y-91038152D02*
X50940476Y-91704819D01*
X50702381Y-90657200D02*
X50464286Y-91371485D01*
X50464286Y-91371485D02*
X51083333Y-91371485D01*
X41609580Y-84892857D02*
X41657200Y-84940476D01*
X41657200Y-84940476D02*
X41704819Y-85083333D01*
X41704819Y-85083333D02*
X41704819Y-85178571D01*
X41704819Y-85178571D02*
X41657200Y-85321428D01*
X41657200Y-85321428D02*
X41561961Y-85416666D01*
X41561961Y-85416666D02*
X41466723Y-85464285D01*
X41466723Y-85464285D02*
X41276247Y-85511904D01*
X41276247Y-85511904D02*
X41133390Y-85511904D01*
X41133390Y-85511904D02*
X40942914Y-85464285D01*
X40942914Y-85464285D02*
X40847676Y-85416666D01*
X40847676Y-85416666D02*
X40752438Y-85321428D01*
X40752438Y-85321428D02*
X40704819Y-85178571D01*
X40704819Y-85178571D02*
X40704819Y-85083333D01*
X40704819Y-85083333D02*
X40752438Y-84940476D01*
X40752438Y-84940476D02*
X40800057Y-84892857D01*
X41704819Y-83940476D02*
X41704819Y-84511904D01*
X41704819Y-84226190D02*
X40704819Y-84226190D01*
X40704819Y-84226190D02*
X40847676Y-84321428D01*
X40847676Y-84321428D02*
X40942914Y-84416666D01*
X40942914Y-84416666D02*
X40990533Y-84511904D01*
X41038152Y-83083333D02*
X41704819Y-83083333D01*
X40657200Y-83321428D02*
X41371485Y-83559523D01*
X41371485Y-83559523D02*
X41371485Y-82940476D01*
X68357142Y-72859580D02*
X68309523Y-72907200D01*
X68309523Y-72907200D02*
X68166666Y-72954819D01*
X68166666Y-72954819D02*
X68071428Y-72954819D01*
X68071428Y-72954819D02*
X67928571Y-72907200D01*
X67928571Y-72907200D02*
X67833333Y-72811961D01*
X67833333Y-72811961D02*
X67785714Y-72716723D01*
X67785714Y-72716723D02*
X67738095Y-72526247D01*
X67738095Y-72526247D02*
X67738095Y-72383390D01*
X67738095Y-72383390D02*
X67785714Y-72192914D01*
X67785714Y-72192914D02*
X67833333Y-72097676D01*
X67833333Y-72097676D02*
X67928571Y-72002438D01*
X67928571Y-72002438D02*
X68071428Y-71954819D01*
X68071428Y-71954819D02*
X68166666Y-71954819D01*
X68166666Y-71954819D02*
X68309523Y-72002438D01*
X68309523Y-72002438D02*
X68357142Y-72050057D01*
X68738095Y-72050057D02*
X68785714Y-72002438D01*
X68785714Y-72002438D02*
X68880952Y-71954819D01*
X68880952Y-71954819D02*
X69119047Y-71954819D01*
X69119047Y-71954819D02*
X69214285Y-72002438D01*
X69214285Y-72002438D02*
X69261904Y-72050057D01*
X69261904Y-72050057D02*
X69309523Y-72145295D01*
X69309523Y-72145295D02*
X69309523Y-72240533D01*
X69309523Y-72240533D02*
X69261904Y-72383390D01*
X69261904Y-72383390D02*
X68690476Y-72954819D01*
X68690476Y-72954819D02*
X69309523Y-72954819D01*
X70214285Y-71954819D02*
X69738095Y-71954819D01*
X69738095Y-71954819D02*
X69690476Y-72431009D01*
X69690476Y-72431009D02*
X69738095Y-72383390D01*
X69738095Y-72383390D02*
X69833333Y-72335771D01*
X69833333Y-72335771D02*
X70071428Y-72335771D01*
X70071428Y-72335771D02*
X70166666Y-72383390D01*
X70166666Y-72383390D02*
X70214285Y-72431009D01*
X70214285Y-72431009D02*
X70261904Y-72526247D01*
X70261904Y-72526247D02*
X70261904Y-72764342D01*
X70261904Y-72764342D02*
X70214285Y-72859580D01*
X70214285Y-72859580D02*
X70166666Y-72907200D01*
X70166666Y-72907200D02*
X70071428Y-72954819D01*
X70071428Y-72954819D02*
X69833333Y-72954819D01*
X69833333Y-72954819D02*
X69738095Y-72907200D01*
X69738095Y-72907200D02*
X69690476Y-72859580D01*
X57583333Y-92914819D02*
X57250000Y-92438628D01*
X57011905Y-92914819D02*
X57011905Y-91914819D01*
X57011905Y-91914819D02*
X57392857Y-91914819D01*
X57392857Y-91914819D02*
X57488095Y-91962438D01*
X57488095Y-91962438D02*
X57535714Y-92010057D01*
X57535714Y-92010057D02*
X57583333Y-92105295D01*
X57583333Y-92105295D02*
X57583333Y-92248152D01*
X57583333Y-92248152D02*
X57535714Y-92343390D01*
X57535714Y-92343390D02*
X57488095Y-92391009D01*
X57488095Y-92391009D02*
X57392857Y-92438628D01*
X57392857Y-92438628D02*
X57011905Y-92438628D01*
X57916667Y-91914819D02*
X58535714Y-91914819D01*
X58535714Y-91914819D02*
X58202381Y-92295771D01*
X58202381Y-92295771D02*
X58345238Y-92295771D01*
X58345238Y-92295771D02*
X58440476Y-92343390D01*
X58440476Y-92343390D02*
X58488095Y-92391009D01*
X58488095Y-92391009D02*
X58535714Y-92486247D01*
X58535714Y-92486247D02*
X58535714Y-92724342D01*
X58535714Y-92724342D02*
X58488095Y-92819580D01*
X58488095Y-92819580D02*
X58440476Y-92867200D01*
X58440476Y-92867200D02*
X58345238Y-92914819D01*
X58345238Y-92914819D02*
X58059524Y-92914819D01*
X58059524Y-92914819D02*
X57964286Y-92867200D01*
X57964286Y-92867200D02*
X57916667Y-92819580D01*
X63704820Y-88876666D02*
X63228629Y-89209999D01*
X63704820Y-89448094D02*
X62704820Y-89448094D01*
X62704820Y-89448094D02*
X62704820Y-89067142D01*
X62704820Y-89067142D02*
X62752439Y-88971904D01*
X62752439Y-88971904D02*
X62800058Y-88924285D01*
X62800058Y-88924285D02*
X62895296Y-88876666D01*
X62895296Y-88876666D02*
X63038153Y-88876666D01*
X63038153Y-88876666D02*
X63133391Y-88924285D01*
X63133391Y-88924285D02*
X63181010Y-88971904D01*
X63181010Y-88971904D02*
X63228629Y-89067142D01*
X63228629Y-89067142D02*
X63228629Y-89448094D01*
X63704820Y-87924285D02*
X63704820Y-88495713D01*
X63704820Y-88209999D02*
X62704820Y-88209999D01*
X62704820Y-88209999D02*
X62847677Y-88305237D01*
X62847677Y-88305237D02*
X62942915Y-88400475D01*
X62942915Y-88400475D02*
X62990534Y-88495713D01*
X50333333Y-86954819D02*
X50000000Y-86478628D01*
X49761905Y-86954819D02*
X49761905Y-85954819D01*
X49761905Y-85954819D02*
X50142857Y-85954819D01*
X50142857Y-85954819D02*
X50238095Y-86002438D01*
X50238095Y-86002438D02*
X50285714Y-86050057D01*
X50285714Y-86050057D02*
X50333333Y-86145295D01*
X50333333Y-86145295D02*
X50333333Y-86288152D01*
X50333333Y-86288152D02*
X50285714Y-86383390D01*
X50285714Y-86383390D02*
X50238095Y-86431009D01*
X50238095Y-86431009D02*
X50142857Y-86478628D01*
X50142857Y-86478628D02*
X49761905Y-86478628D01*
X51190476Y-86288152D02*
X51190476Y-86954819D01*
X50952381Y-85907200D02*
X50714286Y-86621485D01*
X50714286Y-86621485D02*
X51333333Y-86621485D01*
X30607142Y-45954819D02*
X30273809Y-45478628D01*
X30035714Y-45954819D02*
X30035714Y-44954819D01*
X30035714Y-44954819D02*
X30416666Y-44954819D01*
X30416666Y-44954819D02*
X30511904Y-45002438D01*
X30511904Y-45002438D02*
X30559523Y-45050057D01*
X30559523Y-45050057D02*
X30607142Y-45145295D01*
X30607142Y-45145295D02*
X30607142Y-45288152D01*
X30607142Y-45288152D02*
X30559523Y-45383390D01*
X30559523Y-45383390D02*
X30511904Y-45431009D01*
X30511904Y-45431009D02*
X30416666Y-45478628D01*
X30416666Y-45478628D02*
X30035714Y-45478628D01*
X31559523Y-45954819D02*
X30988095Y-45954819D01*
X31273809Y-45954819D02*
X31273809Y-44954819D01*
X31273809Y-44954819D02*
X31178571Y-45097676D01*
X31178571Y-45097676D02*
X31083333Y-45192914D01*
X31083333Y-45192914D02*
X30988095Y-45240533D01*
X32464285Y-44954819D02*
X31988095Y-44954819D01*
X31988095Y-44954819D02*
X31940476Y-45431009D01*
X31940476Y-45431009D02*
X31988095Y-45383390D01*
X31988095Y-45383390D02*
X32083333Y-45335771D01*
X32083333Y-45335771D02*
X32321428Y-45335771D01*
X32321428Y-45335771D02*
X32416666Y-45383390D01*
X32416666Y-45383390D02*
X32464285Y-45431009D01*
X32464285Y-45431009D02*
X32511904Y-45526247D01*
X32511904Y-45526247D02*
X32511904Y-45764342D01*
X32511904Y-45764342D02*
X32464285Y-45859580D01*
X32464285Y-45859580D02*
X32416666Y-45907200D01*
X32416666Y-45907200D02*
X32321428Y-45954819D01*
X32321428Y-45954819D02*
X32083333Y-45954819D01*
X32083333Y-45954819D02*
X31988095Y-45907200D01*
X31988095Y-45907200D02*
X31940476Y-45859580D01*
X47109580Y-33892857D02*
X47157200Y-33940476D01*
X47157200Y-33940476D02*
X47204819Y-34083333D01*
X47204819Y-34083333D02*
X47204819Y-34178571D01*
X47204819Y-34178571D02*
X47157200Y-34321428D01*
X47157200Y-34321428D02*
X47061961Y-34416666D01*
X47061961Y-34416666D02*
X46966723Y-34464285D01*
X46966723Y-34464285D02*
X46776247Y-34511904D01*
X46776247Y-34511904D02*
X46633390Y-34511904D01*
X46633390Y-34511904D02*
X46442914Y-34464285D01*
X46442914Y-34464285D02*
X46347676Y-34416666D01*
X46347676Y-34416666D02*
X46252438Y-34321428D01*
X46252438Y-34321428D02*
X46204819Y-34178571D01*
X46204819Y-34178571D02*
X46204819Y-34083333D01*
X46204819Y-34083333D02*
X46252438Y-33940476D01*
X46252438Y-33940476D02*
X46300057Y-33892857D01*
X46300057Y-33511904D02*
X46252438Y-33464285D01*
X46252438Y-33464285D02*
X46204819Y-33369047D01*
X46204819Y-33369047D02*
X46204819Y-33130952D01*
X46204819Y-33130952D02*
X46252438Y-33035714D01*
X46252438Y-33035714D02*
X46300057Y-32988095D01*
X46300057Y-32988095D02*
X46395295Y-32940476D01*
X46395295Y-32940476D02*
X46490533Y-32940476D01*
X46490533Y-32940476D02*
X46633390Y-32988095D01*
X46633390Y-32988095D02*
X47204819Y-33559523D01*
X47204819Y-33559523D02*
X47204819Y-32940476D01*
X46204819Y-32321428D02*
X46204819Y-32226190D01*
X46204819Y-32226190D02*
X46252438Y-32130952D01*
X46252438Y-32130952D02*
X46300057Y-32083333D01*
X46300057Y-32083333D02*
X46395295Y-32035714D01*
X46395295Y-32035714D02*
X46585771Y-31988095D01*
X46585771Y-31988095D02*
X46823866Y-31988095D01*
X46823866Y-31988095D02*
X47014342Y-32035714D01*
X47014342Y-32035714D02*
X47109580Y-32083333D01*
X47109580Y-32083333D02*
X47157200Y-32130952D01*
X47157200Y-32130952D02*
X47204819Y-32226190D01*
X47204819Y-32226190D02*
X47204819Y-32321428D01*
X47204819Y-32321428D02*
X47157200Y-32416666D01*
X47157200Y-32416666D02*
X47109580Y-32464285D01*
X47109580Y-32464285D02*
X47014342Y-32511904D01*
X47014342Y-32511904D02*
X46823866Y-32559523D01*
X46823866Y-32559523D02*
X46585771Y-32559523D01*
X46585771Y-32559523D02*
X46395295Y-32511904D01*
X46395295Y-32511904D02*
X46300057Y-32464285D01*
X46300057Y-32464285D02*
X46252438Y-32416666D01*
X46252438Y-32416666D02*
X46204819Y-32321428D01*
X47902142Y-18954819D02*
X47568809Y-18478628D01*
X47330714Y-18954819D02*
X47330714Y-17954819D01*
X47330714Y-17954819D02*
X47711666Y-17954819D01*
X47711666Y-17954819D02*
X47806904Y-18002438D01*
X47806904Y-18002438D02*
X47854523Y-18050057D01*
X47854523Y-18050057D02*
X47902142Y-18145295D01*
X47902142Y-18145295D02*
X47902142Y-18288152D01*
X47902142Y-18288152D02*
X47854523Y-18383390D01*
X47854523Y-18383390D02*
X47806904Y-18431009D01*
X47806904Y-18431009D02*
X47711666Y-18478628D01*
X47711666Y-18478628D02*
X47330714Y-18478628D01*
X48283095Y-18050057D02*
X48330714Y-18002438D01*
X48330714Y-18002438D02*
X48425952Y-17954819D01*
X48425952Y-17954819D02*
X48664047Y-17954819D01*
X48664047Y-17954819D02*
X48759285Y-18002438D01*
X48759285Y-18002438D02*
X48806904Y-18050057D01*
X48806904Y-18050057D02*
X48854523Y-18145295D01*
X48854523Y-18145295D02*
X48854523Y-18240533D01*
X48854523Y-18240533D02*
X48806904Y-18383390D01*
X48806904Y-18383390D02*
X48235476Y-18954819D01*
X48235476Y-18954819D02*
X48854523Y-18954819D01*
X49235476Y-18050057D02*
X49283095Y-18002438D01*
X49283095Y-18002438D02*
X49378333Y-17954819D01*
X49378333Y-17954819D02*
X49616428Y-17954819D01*
X49616428Y-17954819D02*
X49711666Y-18002438D01*
X49711666Y-18002438D02*
X49759285Y-18050057D01*
X49759285Y-18050057D02*
X49806904Y-18145295D01*
X49806904Y-18145295D02*
X49806904Y-18240533D01*
X49806904Y-18240533D02*
X49759285Y-18383390D01*
X49759285Y-18383390D02*
X49187857Y-18954819D01*
X49187857Y-18954819D02*
X49806904Y-18954819D01*
X37857142Y-31704819D02*
X37523809Y-31228628D01*
X37285714Y-31704819D02*
X37285714Y-30704819D01*
X37285714Y-30704819D02*
X37666666Y-30704819D01*
X37666666Y-30704819D02*
X37761904Y-30752438D01*
X37761904Y-30752438D02*
X37809523Y-30800057D01*
X37809523Y-30800057D02*
X37857142Y-30895295D01*
X37857142Y-30895295D02*
X37857142Y-31038152D01*
X37857142Y-31038152D02*
X37809523Y-31133390D01*
X37809523Y-31133390D02*
X37761904Y-31181009D01*
X37761904Y-31181009D02*
X37666666Y-31228628D01*
X37666666Y-31228628D02*
X37285714Y-31228628D01*
X38809523Y-31704819D02*
X38238095Y-31704819D01*
X38523809Y-31704819D02*
X38523809Y-30704819D01*
X38523809Y-30704819D02*
X38428571Y-30847676D01*
X38428571Y-30847676D02*
X38333333Y-30942914D01*
X38333333Y-30942914D02*
X38238095Y-30990533D01*
X39666666Y-30704819D02*
X39476190Y-30704819D01*
X39476190Y-30704819D02*
X39380952Y-30752438D01*
X39380952Y-30752438D02*
X39333333Y-30800057D01*
X39333333Y-30800057D02*
X39238095Y-30942914D01*
X39238095Y-30942914D02*
X39190476Y-31133390D01*
X39190476Y-31133390D02*
X39190476Y-31514342D01*
X39190476Y-31514342D02*
X39238095Y-31609580D01*
X39238095Y-31609580D02*
X39285714Y-31657200D01*
X39285714Y-31657200D02*
X39380952Y-31704819D01*
X39380952Y-31704819D02*
X39571428Y-31704819D01*
X39571428Y-31704819D02*
X39666666Y-31657200D01*
X39666666Y-31657200D02*
X39714285Y-31609580D01*
X39714285Y-31609580D02*
X39761904Y-31514342D01*
X39761904Y-31514342D02*
X39761904Y-31276247D01*
X39761904Y-31276247D02*
X39714285Y-31181009D01*
X39714285Y-31181009D02*
X39666666Y-31133390D01*
X39666666Y-31133390D02*
X39571428Y-31085771D01*
X39571428Y-31085771D02*
X39380952Y-31085771D01*
X39380952Y-31085771D02*
X39285714Y-31133390D01*
X39285714Y-31133390D02*
X39238095Y-31181009D01*
X39238095Y-31181009D02*
X39190476Y-31276247D01*
X21954819Y-79392857D02*
X21478628Y-79726190D01*
X21954819Y-79964285D02*
X20954819Y-79964285D01*
X20954819Y-79964285D02*
X20954819Y-79583333D01*
X20954819Y-79583333D02*
X21002438Y-79488095D01*
X21002438Y-79488095D02*
X21050057Y-79440476D01*
X21050057Y-79440476D02*
X21145295Y-79392857D01*
X21145295Y-79392857D02*
X21288152Y-79392857D01*
X21288152Y-79392857D02*
X21383390Y-79440476D01*
X21383390Y-79440476D02*
X21431009Y-79488095D01*
X21431009Y-79488095D02*
X21478628Y-79583333D01*
X21478628Y-79583333D02*
X21478628Y-79964285D01*
X21050057Y-79011904D02*
X21002438Y-78964285D01*
X21002438Y-78964285D02*
X20954819Y-78869047D01*
X20954819Y-78869047D02*
X20954819Y-78630952D01*
X20954819Y-78630952D02*
X21002438Y-78535714D01*
X21002438Y-78535714D02*
X21050057Y-78488095D01*
X21050057Y-78488095D02*
X21145295Y-78440476D01*
X21145295Y-78440476D02*
X21240533Y-78440476D01*
X21240533Y-78440476D02*
X21383390Y-78488095D01*
X21383390Y-78488095D02*
X21954819Y-79059523D01*
X21954819Y-79059523D02*
X21954819Y-78440476D01*
X20954819Y-77583333D02*
X20954819Y-77773809D01*
X20954819Y-77773809D02*
X21002438Y-77869047D01*
X21002438Y-77869047D02*
X21050057Y-77916666D01*
X21050057Y-77916666D02*
X21192914Y-78011904D01*
X21192914Y-78011904D02*
X21383390Y-78059523D01*
X21383390Y-78059523D02*
X21764342Y-78059523D01*
X21764342Y-78059523D02*
X21859580Y-78011904D01*
X21859580Y-78011904D02*
X21907200Y-77964285D01*
X21907200Y-77964285D02*
X21954819Y-77869047D01*
X21954819Y-77869047D02*
X21954819Y-77678571D01*
X21954819Y-77678571D02*
X21907200Y-77583333D01*
X21907200Y-77583333D02*
X21859580Y-77535714D01*
X21859580Y-77535714D02*
X21764342Y-77488095D01*
X21764342Y-77488095D02*
X21526247Y-77488095D01*
X21526247Y-77488095D02*
X21431009Y-77535714D01*
X21431009Y-77535714D02*
X21383390Y-77583333D01*
X21383390Y-77583333D02*
X21335771Y-77678571D01*
X21335771Y-77678571D02*
X21335771Y-77869047D01*
X21335771Y-77869047D02*
X21383390Y-77964285D01*
X21383390Y-77964285D02*
X21431009Y-78011904D01*
X21431009Y-78011904D02*
X21526247Y-78059523D01*
X41609580Y-56642857D02*
X41657200Y-56690476D01*
X41657200Y-56690476D02*
X41704819Y-56833333D01*
X41704819Y-56833333D02*
X41704819Y-56928571D01*
X41704819Y-56928571D02*
X41657200Y-57071428D01*
X41657200Y-57071428D02*
X41561961Y-57166666D01*
X41561961Y-57166666D02*
X41466723Y-57214285D01*
X41466723Y-57214285D02*
X41276247Y-57261904D01*
X41276247Y-57261904D02*
X41133390Y-57261904D01*
X41133390Y-57261904D02*
X40942914Y-57214285D01*
X40942914Y-57214285D02*
X40847676Y-57166666D01*
X40847676Y-57166666D02*
X40752438Y-57071428D01*
X40752438Y-57071428D02*
X40704819Y-56928571D01*
X40704819Y-56928571D02*
X40704819Y-56833333D01*
X40704819Y-56833333D02*
X40752438Y-56690476D01*
X40752438Y-56690476D02*
X40800057Y-56642857D01*
X41704819Y-55690476D02*
X41704819Y-56261904D01*
X41704819Y-55976190D02*
X40704819Y-55976190D01*
X40704819Y-55976190D02*
X40847676Y-56071428D01*
X40847676Y-56071428D02*
X40942914Y-56166666D01*
X40942914Y-56166666D02*
X40990533Y-56261904D01*
X40704819Y-54833333D02*
X40704819Y-55023809D01*
X40704819Y-55023809D02*
X40752438Y-55119047D01*
X40752438Y-55119047D02*
X40800057Y-55166666D01*
X40800057Y-55166666D02*
X40942914Y-55261904D01*
X40942914Y-55261904D02*
X41133390Y-55309523D01*
X41133390Y-55309523D02*
X41514342Y-55309523D01*
X41514342Y-55309523D02*
X41609580Y-55261904D01*
X41609580Y-55261904D02*
X41657200Y-55214285D01*
X41657200Y-55214285D02*
X41704819Y-55119047D01*
X41704819Y-55119047D02*
X41704819Y-54928571D01*
X41704819Y-54928571D02*
X41657200Y-54833333D01*
X41657200Y-54833333D02*
X41609580Y-54785714D01*
X41609580Y-54785714D02*
X41514342Y-54738095D01*
X41514342Y-54738095D02*
X41276247Y-54738095D01*
X41276247Y-54738095D02*
X41181009Y-54785714D01*
X41181009Y-54785714D02*
X41133390Y-54833333D01*
X41133390Y-54833333D02*
X41085771Y-54928571D01*
X41085771Y-54928571D02*
X41085771Y-55119047D01*
X41085771Y-55119047D02*
X41133390Y-55214285D01*
X41133390Y-55214285D02*
X41181009Y-55261904D01*
X41181009Y-55261904D02*
X41276247Y-55309523D01*
X28954819Y-83142857D02*
X28478628Y-83476190D01*
X28954819Y-83714285D02*
X27954819Y-83714285D01*
X27954819Y-83714285D02*
X27954819Y-83333333D01*
X27954819Y-83333333D02*
X28002438Y-83238095D01*
X28002438Y-83238095D02*
X28050057Y-83190476D01*
X28050057Y-83190476D02*
X28145295Y-83142857D01*
X28145295Y-83142857D02*
X28288152Y-83142857D01*
X28288152Y-83142857D02*
X28383390Y-83190476D01*
X28383390Y-83190476D02*
X28431009Y-83238095D01*
X28431009Y-83238095D02*
X28478628Y-83333333D01*
X28478628Y-83333333D02*
X28478628Y-83714285D01*
X28954819Y-82190476D02*
X28954819Y-82761904D01*
X28954819Y-82476190D02*
X27954819Y-82476190D01*
X27954819Y-82476190D02*
X28097676Y-82571428D01*
X28097676Y-82571428D02*
X28192914Y-82666666D01*
X28192914Y-82666666D02*
X28240533Y-82761904D01*
X27954819Y-81571428D02*
X27954819Y-81476190D01*
X27954819Y-81476190D02*
X28002438Y-81380952D01*
X28002438Y-81380952D02*
X28050057Y-81333333D01*
X28050057Y-81333333D02*
X28145295Y-81285714D01*
X28145295Y-81285714D02*
X28335771Y-81238095D01*
X28335771Y-81238095D02*
X28573866Y-81238095D01*
X28573866Y-81238095D02*
X28764342Y-81285714D01*
X28764342Y-81285714D02*
X28859580Y-81333333D01*
X28859580Y-81333333D02*
X28907200Y-81380952D01*
X28907200Y-81380952D02*
X28954819Y-81476190D01*
X28954819Y-81476190D02*
X28954819Y-81571428D01*
X28954819Y-81571428D02*
X28907200Y-81666666D01*
X28907200Y-81666666D02*
X28859580Y-81714285D01*
X28859580Y-81714285D02*
X28764342Y-81761904D01*
X28764342Y-81761904D02*
X28573866Y-81809523D01*
X28573866Y-81809523D02*
X28335771Y-81809523D01*
X28335771Y-81809523D02*
X28145295Y-81761904D01*
X28145295Y-81761904D02*
X28050057Y-81714285D01*
X28050057Y-81714285D02*
X28002438Y-81666666D01*
X28002438Y-81666666D02*
X27954819Y-81571428D01*
X40902142Y-13454819D02*
X40568809Y-12978628D01*
X40330714Y-13454819D02*
X40330714Y-12454819D01*
X40330714Y-12454819D02*
X40711666Y-12454819D01*
X40711666Y-12454819D02*
X40806904Y-12502438D01*
X40806904Y-12502438D02*
X40854523Y-12550057D01*
X40854523Y-12550057D02*
X40902142Y-12645295D01*
X40902142Y-12645295D02*
X40902142Y-12788152D01*
X40902142Y-12788152D02*
X40854523Y-12883390D01*
X40854523Y-12883390D02*
X40806904Y-12931009D01*
X40806904Y-12931009D02*
X40711666Y-12978628D01*
X40711666Y-12978628D02*
X40330714Y-12978628D01*
X41283095Y-12550057D02*
X41330714Y-12502438D01*
X41330714Y-12502438D02*
X41425952Y-12454819D01*
X41425952Y-12454819D02*
X41664047Y-12454819D01*
X41664047Y-12454819D02*
X41759285Y-12502438D01*
X41759285Y-12502438D02*
X41806904Y-12550057D01*
X41806904Y-12550057D02*
X41854523Y-12645295D01*
X41854523Y-12645295D02*
X41854523Y-12740533D01*
X41854523Y-12740533D02*
X41806904Y-12883390D01*
X41806904Y-12883390D02*
X41235476Y-13454819D01*
X41235476Y-13454819D02*
X41854523Y-13454819D01*
X42759285Y-12454819D02*
X42283095Y-12454819D01*
X42283095Y-12454819D02*
X42235476Y-12931009D01*
X42235476Y-12931009D02*
X42283095Y-12883390D01*
X42283095Y-12883390D02*
X42378333Y-12835771D01*
X42378333Y-12835771D02*
X42616428Y-12835771D01*
X42616428Y-12835771D02*
X42711666Y-12883390D01*
X42711666Y-12883390D02*
X42759285Y-12931009D01*
X42759285Y-12931009D02*
X42806904Y-13026247D01*
X42806904Y-13026247D02*
X42806904Y-13264342D01*
X42806904Y-13264342D02*
X42759285Y-13359580D01*
X42759285Y-13359580D02*
X42711666Y-13407200D01*
X42711666Y-13407200D02*
X42616428Y-13454819D01*
X42616428Y-13454819D02*
X42378333Y-13454819D01*
X42378333Y-13454819D02*
X42283095Y-13407200D01*
X42283095Y-13407200D02*
X42235476Y-13359580D01*
X50333333Y-84319580D02*
X50285714Y-84367200D01*
X50285714Y-84367200D02*
X50142857Y-84414819D01*
X50142857Y-84414819D02*
X50047619Y-84414819D01*
X50047619Y-84414819D02*
X49904762Y-84367200D01*
X49904762Y-84367200D02*
X49809524Y-84271961D01*
X49809524Y-84271961D02*
X49761905Y-84176723D01*
X49761905Y-84176723D02*
X49714286Y-83986247D01*
X49714286Y-83986247D02*
X49714286Y-83843390D01*
X49714286Y-83843390D02*
X49761905Y-83652914D01*
X49761905Y-83652914D02*
X49809524Y-83557676D01*
X49809524Y-83557676D02*
X49904762Y-83462438D01*
X49904762Y-83462438D02*
X50047619Y-83414819D01*
X50047619Y-83414819D02*
X50142857Y-83414819D01*
X50142857Y-83414819D02*
X50285714Y-83462438D01*
X50285714Y-83462438D02*
X50333333Y-83510057D01*
X51238095Y-83414819D02*
X50761905Y-83414819D01*
X50761905Y-83414819D02*
X50714286Y-83891009D01*
X50714286Y-83891009D02*
X50761905Y-83843390D01*
X50761905Y-83843390D02*
X50857143Y-83795771D01*
X50857143Y-83795771D02*
X51095238Y-83795771D01*
X51095238Y-83795771D02*
X51190476Y-83843390D01*
X51190476Y-83843390D02*
X51238095Y-83891009D01*
X51238095Y-83891009D02*
X51285714Y-83986247D01*
X51285714Y-83986247D02*
X51285714Y-84224342D01*
X51285714Y-84224342D02*
X51238095Y-84319580D01*
X51238095Y-84319580D02*
X51190476Y-84367200D01*
X51190476Y-84367200D02*
X51095238Y-84414819D01*
X51095238Y-84414819D02*
X50857143Y-84414819D01*
X50857143Y-84414819D02*
X50761905Y-84367200D01*
X50761905Y-84367200D02*
X50714286Y-84319580D01*
X38152142Y-17109580D02*
X38104523Y-17157200D01*
X38104523Y-17157200D02*
X37961666Y-17204819D01*
X37961666Y-17204819D02*
X37866428Y-17204819D01*
X37866428Y-17204819D02*
X37723571Y-17157200D01*
X37723571Y-17157200D02*
X37628333Y-17061961D01*
X37628333Y-17061961D02*
X37580714Y-16966723D01*
X37580714Y-16966723D02*
X37533095Y-16776247D01*
X37533095Y-16776247D02*
X37533095Y-16633390D01*
X37533095Y-16633390D02*
X37580714Y-16442914D01*
X37580714Y-16442914D02*
X37628333Y-16347676D01*
X37628333Y-16347676D02*
X37723571Y-16252438D01*
X37723571Y-16252438D02*
X37866428Y-16204819D01*
X37866428Y-16204819D02*
X37961666Y-16204819D01*
X37961666Y-16204819D02*
X38104523Y-16252438D01*
X38104523Y-16252438D02*
X38152142Y-16300057D01*
X39104523Y-17204819D02*
X38533095Y-17204819D01*
X38818809Y-17204819D02*
X38818809Y-16204819D01*
X38818809Y-16204819D02*
X38723571Y-16347676D01*
X38723571Y-16347676D02*
X38628333Y-16442914D01*
X38628333Y-16442914D02*
X38533095Y-16490533D01*
X39485476Y-16300057D02*
X39533095Y-16252438D01*
X39533095Y-16252438D02*
X39628333Y-16204819D01*
X39628333Y-16204819D02*
X39866428Y-16204819D01*
X39866428Y-16204819D02*
X39961666Y-16252438D01*
X39961666Y-16252438D02*
X40009285Y-16300057D01*
X40009285Y-16300057D02*
X40056904Y-16395295D01*
X40056904Y-16395295D02*
X40056904Y-16490533D01*
X40056904Y-16490533D02*
X40009285Y-16633390D01*
X40009285Y-16633390D02*
X39437857Y-17204819D01*
X39437857Y-17204819D02*
X40056904Y-17204819D01*
X34511905Y-33454819D02*
X34511905Y-32454819D01*
X34511905Y-32454819D02*
X34750000Y-32454819D01*
X34750000Y-32454819D02*
X34892857Y-32502438D01*
X34892857Y-32502438D02*
X34988095Y-32597676D01*
X34988095Y-32597676D02*
X35035714Y-32692914D01*
X35035714Y-32692914D02*
X35083333Y-32883390D01*
X35083333Y-32883390D02*
X35083333Y-33026247D01*
X35083333Y-33026247D02*
X35035714Y-33216723D01*
X35035714Y-33216723D02*
X34988095Y-33311961D01*
X34988095Y-33311961D02*
X34892857Y-33407200D01*
X34892857Y-33407200D02*
X34750000Y-33454819D01*
X34750000Y-33454819D02*
X34511905Y-33454819D01*
X36035714Y-33454819D02*
X35464286Y-33454819D01*
X35750000Y-33454819D02*
X35750000Y-32454819D01*
X35750000Y-32454819D02*
X35654762Y-32597676D01*
X35654762Y-32597676D02*
X35559524Y-32692914D01*
X35559524Y-32692914D02*
X35464286Y-32740533D01*
X56404762Y-83010057D02*
X56309524Y-82962438D01*
X56309524Y-82962438D02*
X56214286Y-82867200D01*
X56214286Y-82867200D02*
X56071429Y-82724342D01*
X56071429Y-82724342D02*
X55976191Y-82676723D01*
X55976191Y-82676723D02*
X55880953Y-82676723D01*
X55928572Y-82914819D02*
X55833334Y-82867200D01*
X55833334Y-82867200D02*
X55738096Y-82771961D01*
X55738096Y-82771961D02*
X55690477Y-82581485D01*
X55690477Y-82581485D02*
X55690477Y-82248152D01*
X55690477Y-82248152D02*
X55738096Y-82057676D01*
X55738096Y-82057676D02*
X55833334Y-81962438D01*
X55833334Y-81962438D02*
X55928572Y-81914819D01*
X55928572Y-81914819D02*
X56119048Y-81914819D01*
X56119048Y-81914819D02*
X56214286Y-81962438D01*
X56214286Y-81962438D02*
X56309524Y-82057676D01*
X56309524Y-82057676D02*
X56357143Y-82248152D01*
X56357143Y-82248152D02*
X56357143Y-82581485D01*
X56357143Y-82581485D02*
X56309524Y-82771961D01*
X56309524Y-82771961D02*
X56214286Y-82867200D01*
X56214286Y-82867200D02*
X56119048Y-82914819D01*
X56119048Y-82914819D02*
X55928572Y-82914819D01*
X57309524Y-82914819D02*
X56738096Y-82914819D01*
X57023810Y-82914819D02*
X57023810Y-81914819D01*
X57023810Y-81914819D02*
X56928572Y-82057676D01*
X56928572Y-82057676D02*
X56833334Y-82152914D01*
X56833334Y-82152914D02*
X56738096Y-82200533D01*
X47204819Y-25392857D02*
X46728628Y-25726190D01*
X47204819Y-25964285D02*
X46204819Y-25964285D01*
X46204819Y-25964285D02*
X46204819Y-25583333D01*
X46204819Y-25583333D02*
X46252438Y-25488095D01*
X46252438Y-25488095D02*
X46300057Y-25440476D01*
X46300057Y-25440476D02*
X46395295Y-25392857D01*
X46395295Y-25392857D02*
X46538152Y-25392857D01*
X46538152Y-25392857D02*
X46633390Y-25440476D01*
X46633390Y-25440476D02*
X46681009Y-25488095D01*
X46681009Y-25488095D02*
X46728628Y-25583333D01*
X46728628Y-25583333D02*
X46728628Y-25964285D01*
X47204819Y-24440476D02*
X47204819Y-25011904D01*
X47204819Y-24726190D02*
X46204819Y-24726190D01*
X46204819Y-24726190D02*
X46347676Y-24821428D01*
X46347676Y-24821428D02*
X46442914Y-24916666D01*
X46442914Y-24916666D02*
X46490533Y-25011904D01*
X46633390Y-23869047D02*
X46585771Y-23964285D01*
X46585771Y-23964285D02*
X46538152Y-24011904D01*
X46538152Y-24011904D02*
X46442914Y-24059523D01*
X46442914Y-24059523D02*
X46395295Y-24059523D01*
X46395295Y-24059523D02*
X46300057Y-24011904D01*
X46300057Y-24011904D02*
X46252438Y-23964285D01*
X46252438Y-23964285D02*
X46204819Y-23869047D01*
X46204819Y-23869047D02*
X46204819Y-23678571D01*
X46204819Y-23678571D02*
X46252438Y-23583333D01*
X46252438Y-23583333D02*
X46300057Y-23535714D01*
X46300057Y-23535714D02*
X46395295Y-23488095D01*
X46395295Y-23488095D02*
X46442914Y-23488095D01*
X46442914Y-23488095D02*
X46538152Y-23535714D01*
X46538152Y-23535714D02*
X46585771Y-23583333D01*
X46585771Y-23583333D02*
X46633390Y-23678571D01*
X46633390Y-23678571D02*
X46633390Y-23869047D01*
X46633390Y-23869047D02*
X46681009Y-23964285D01*
X46681009Y-23964285D02*
X46728628Y-24011904D01*
X46728628Y-24011904D02*
X46823866Y-24059523D01*
X46823866Y-24059523D02*
X47014342Y-24059523D01*
X47014342Y-24059523D02*
X47109580Y-24011904D01*
X47109580Y-24011904D02*
X47157200Y-23964285D01*
X47157200Y-23964285D02*
X47204819Y-23869047D01*
X47204819Y-23869047D02*
X47204819Y-23678571D01*
X47204819Y-23678571D02*
X47157200Y-23583333D01*
X47157200Y-23583333D02*
X47109580Y-23535714D01*
X47109580Y-23535714D02*
X47014342Y-23488095D01*
X47014342Y-23488095D02*
X46823866Y-23488095D01*
X46823866Y-23488095D02*
X46728628Y-23535714D01*
X46728628Y-23535714D02*
X46681009Y-23583333D01*
X46681009Y-23583333D02*
X46633390Y-23678571D01*
X23384819Y-61892857D02*
X22908628Y-62226190D01*
X23384819Y-62464285D02*
X22384819Y-62464285D01*
X22384819Y-62464285D02*
X22384819Y-62083333D01*
X22384819Y-62083333D02*
X22432438Y-61988095D01*
X22432438Y-61988095D02*
X22480057Y-61940476D01*
X22480057Y-61940476D02*
X22575295Y-61892857D01*
X22575295Y-61892857D02*
X22718152Y-61892857D01*
X22718152Y-61892857D02*
X22813390Y-61940476D01*
X22813390Y-61940476D02*
X22861009Y-61988095D01*
X22861009Y-61988095D02*
X22908628Y-62083333D01*
X22908628Y-62083333D02*
X22908628Y-62464285D01*
X22480057Y-61511904D02*
X22432438Y-61464285D01*
X22432438Y-61464285D02*
X22384819Y-61369047D01*
X22384819Y-61369047D02*
X22384819Y-61130952D01*
X22384819Y-61130952D02*
X22432438Y-61035714D01*
X22432438Y-61035714D02*
X22480057Y-60988095D01*
X22480057Y-60988095D02*
X22575295Y-60940476D01*
X22575295Y-60940476D02*
X22670533Y-60940476D01*
X22670533Y-60940476D02*
X22813390Y-60988095D01*
X22813390Y-60988095D02*
X23384819Y-61559523D01*
X23384819Y-61559523D02*
X23384819Y-60940476D01*
X22384819Y-60607142D02*
X22384819Y-59988095D01*
X22384819Y-59988095D02*
X22765771Y-60321428D01*
X22765771Y-60321428D02*
X22765771Y-60178571D01*
X22765771Y-60178571D02*
X22813390Y-60083333D01*
X22813390Y-60083333D02*
X22861009Y-60035714D01*
X22861009Y-60035714D02*
X22956247Y-59988095D01*
X22956247Y-59988095D02*
X23194342Y-59988095D01*
X23194342Y-59988095D02*
X23289580Y-60035714D01*
X23289580Y-60035714D02*
X23337200Y-60083333D01*
X23337200Y-60083333D02*
X23384819Y-60178571D01*
X23384819Y-60178571D02*
X23384819Y-60464285D01*
X23384819Y-60464285D02*
X23337200Y-60559523D01*
X23337200Y-60559523D02*
X23289580Y-60607142D01*
X12404761Y-47654819D02*
X12071428Y-47178628D01*
X11833333Y-47654819D02*
X11833333Y-46654819D01*
X11833333Y-46654819D02*
X12214285Y-46654819D01*
X12214285Y-46654819D02*
X12309523Y-46702438D01*
X12309523Y-46702438D02*
X12357142Y-46750057D01*
X12357142Y-46750057D02*
X12404761Y-46845295D01*
X12404761Y-46845295D02*
X12404761Y-46988152D01*
X12404761Y-46988152D02*
X12357142Y-47083390D01*
X12357142Y-47083390D02*
X12309523Y-47131009D01*
X12309523Y-47131009D02*
X12214285Y-47178628D01*
X12214285Y-47178628D02*
X11833333Y-47178628D01*
X12690476Y-46654819D02*
X13023809Y-47654819D01*
X13023809Y-47654819D02*
X13357142Y-46654819D01*
X13595238Y-46654819D02*
X14214285Y-46654819D01*
X14214285Y-46654819D02*
X13880952Y-47035771D01*
X13880952Y-47035771D02*
X14023809Y-47035771D01*
X14023809Y-47035771D02*
X14119047Y-47083390D01*
X14119047Y-47083390D02*
X14166666Y-47131009D01*
X14166666Y-47131009D02*
X14214285Y-47226247D01*
X14214285Y-47226247D02*
X14214285Y-47464342D01*
X14214285Y-47464342D02*
X14166666Y-47559580D01*
X14166666Y-47559580D02*
X14119047Y-47607200D01*
X14119047Y-47607200D02*
X14023809Y-47654819D01*
X14023809Y-47654819D02*
X13738095Y-47654819D01*
X13738095Y-47654819D02*
X13642857Y-47607200D01*
X13642857Y-47607200D02*
X13595238Y-47559580D01*
D15*
%TO.C,U5*%
X65136739Y-68477900D02*
X65863261Y-68477900D01*
X67176400Y-68477900D02*
X67176400Y-66522100D01*
X63823600Y-66522100D02*
X63823600Y-68477900D01*
D16*
%TO.C,C24*%
X66011252Y-63235000D02*
X65488748Y-63235000D01*
X66011252Y-61765000D02*
X65488748Y-61765000D01*
%TO.C,C23*%
X66011252Y-74985000D02*
X65488748Y-74985000D01*
X66011252Y-73515000D02*
X65488748Y-73515000D01*
%TO.C,C10*%
X55465000Y-14436267D02*
X55465000Y-14143733D01*
X56485000Y-14436267D02*
X56485000Y-14143733D01*
%TO.C,U6*%
X51045000Y-12615000D02*
X49545000Y-12615000D01*
X51045000Y-12615000D02*
X52545000Y-12615000D01*
X51045000Y-15835000D02*
X49545000Y-15835000D01*
X51045000Y-15835000D02*
X52545000Y-15835000D01*
X48857500Y-12740000D02*
X48617500Y-12410000D01*
X49097500Y-12410000D01*
X48857500Y-12740000D01*
G36*
X48857500Y-12740000D02*
G01*
X48617500Y-12410000D01*
X49097500Y-12410000D01*
X48857500Y-12740000D01*
G37*
D14*
%TO.C,SW1*%
X11000000Y-14750000D02*
X25000000Y-14750000D01*
X11000000Y-18750000D02*
X11000000Y-14750000D01*
X11000000Y-21750000D02*
X12000000Y-22750000D01*
X11000000Y-22750000D02*
X11000000Y-18750000D01*
X25000000Y-14750000D02*
X25000000Y-22750000D01*
X25000000Y-22750000D02*
X11000000Y-22750000D01*
D16*
%TO.C,U1*%
X33440000Y-83750000D02*
X33440000Y-85700000D01*
X33440000Y-83750000D02*
X33440000Y-81800000D01*
X38560000Y-83750000D02*
X38560000Y-85700000D01*
X38560000Y-83750000D02*
X38560000Y-81800000D01*
X33535000Y-86450000D02*
X33205000Y-86690000D01*
X33205000Y-86210000D01*
X33535000Y-86450000D01*
G36*
X33535000Y-86450000D02*
G01*
X33205000Y-86690000D01*
X33205000Y-86210000D01*
X33535000Y-86450000D01*
G37*
%TO.C,U2*%
X33440000Y-69750000D02*
X33440000Y-71700000D01*
X33440000Y-69750000D02*
X33440000Y-67800000D01*
X38560000Y-69750000D02*
X38560000Y-71700000D01*
X38560000Y-69750000D02*
X38560000Y-67800000D01*
X33535000Y-72450000D02*
X33205000Y-72690000D01*
X33205000Y-72210000D01*
X33535000Y-72450000D01*
G36*
X33535000Y-72450000D02*
G01*
X33205000Y-72690000D01*
X33205000Y-72210000D01*
X33535000Y-72450000D01*
G37*
%TO.C,U4*%
X33440000Y-40750000D02*
X33440000Y-42700000D01*
X33440000Y-40750000D02*
X33440000Y-38800000D01*
X38560000Y-40750000D02*
X38560000Y-42700000D01*
X38560000Y-40750000D02*
X38560000Y-38800000D01*
X33535000Y-43450000D02*
X33205000Y-43690000D01*
X33205000Y-43210000D01*
X33535000Y-43450000D01*
G36*
X33535000Y-43450000D02*
G01*
X33205000Y-43690000D01*
X33205000Y-43210000D01*
X33535000Y-43450000D01*
G37*
%TO.C,U3*%
X33440000Y-55500000D02*
X33440000Y-57450000D01*
X33440000Y-55500000D02*
X33440000Y-53550000D01*
X38560000Y-55500000D02*
X38560000Y-57450000D01*
X38560000Y-55500000D02*
X38560000Y-53550000D01*
X33535000Y-58200000D02*
X33205000Y-58440000D01*
X33205000Y-57960000D01*
X33535000Y-58200000D01*
G36*
X33535000Y-58200000D02*
G01*
X33205000Y-58440000D01*
X33205000Y-57960000D01*
X33535000Y-58200000D01*
G37*
%TO.C,U7*%
X51250000Y-26190000D02*
X49300000Y-26190000D01*
X51250000Y-26190000D02*
X53200000Y-26190000D01*
X51250000Y-31310000D02*
X49300000Y-31310000D01*
X51250000Y-31310000D02*
X53200000Y-31310000D01*
X48550000Y-26285000D02*
X48310000Y-25955000D01*
X48790000Y-25955000D01*
X48550000Y-26285000D01*
G36*
X48550000Y-26285000D02*
G01*
X48310000Y-25955000D01*
X48790000Y-25955000D01*
X48550000Y-26285000D01*
G37*
%TO.C,D2*%
X66350000Y-83600000D02*
X64650000Y-83600000D01*
X66350000Y-83600000D02*
X66350000Y-86260000D01*
X64650000Y-83600000D02*
X64650000Y-86260000D01*
%TO.C,C29*%
X38146267Y-46010000D02*
X37853733Y-46010000D01*
X38146267Y-44990000D02*
X37853733Y-44990000D01*
%TO.C,C28*%
X38146267Y-60760000D02*
X37853733Y-60760000D01*
X38146267Y-59740000D02*
X37853733Y-59740000D01*
%TO.C,C27*%
X38146267Y-75010000D02*
X37853733Y-75010000D01*
X38146267Y-73990000D02*
X37853733Y-73990000D01*
%TO.C,R30*%
X43522500Y-73495276D02*
X43522500Y-74004724D01*
X42477500Y-73495276D02*
X42477500Y-74004724D01*
%TO.C,R29*%
X43522500Y-76995276D02*
X43522500Y-77504724D01*
X42477500Y-76995276D02*
X42477500Y-77504724D01*
%TO.C,C26*%
X37896267Y-89010000D02*
X37603733Y-89010000D01*
X37896267Y-87990000D02*
X37603733Y-87990000D01*
%TO.C,R13*%
X34727500Y-63254724D02*
X34727500Y-62745276D01*
X35772500Y-63254724D02*
X35772500Y-62745276D01*
%TO.C,J1*%
X67445000Y-85230001D02*
X67445000Y-87830000D01*
X67445000Y-85230001D02*
X70105000Y-85230001D01*
X67445000Y-87830000D02*
X70105000Y-87830000D01*
X68775000Y-82630000D02*
X70105000Y-82630000D01*
X70105000Y-82630000D02*
X70105000Y-83960000D01*
X70105000Y-85230001D02*
X70105000Y-87830000D01*
%TO.C,C17*%
X39240000Y-41396267D02*
X39240000Y-41103733D01*
X40260000Y-41396267D02*
X40260000Y-41103733D01*
%TO.C,R6*%
X53245276Y-88482500D02*
X53754724Y-88482500D01*
X53245276Y-87437500D02*
X53754724Y-87437500D01*
%TO.C,R27*%
X22022500Y-56745276D02*
X22022500Y-57254724D01*
X20977500Y-56745276D02*
X20977500Y-57254724D01*
%TO.C,C19*%
X62740000Y-85106267D02*
X62740000Y-84813733D01*
X63760000Y-85106267D02*
X63760000Y-84813733D01*
%TO.C,R5*%
X57754724Y-93187500D02*
X57245276Y-93187500D01*
X57754724Y-94232500D02*
X57245276Y-94232500D01*
%TO.C,J2*%
X59420000Y-16620000D02*
X62080000Y-16620000D01*
X59420000Y-14020001D02*
X59420000Y-16620000D01*
X59420000Y-14020001D02*
X62080000Y-14020001D01*
X62080000Y-14020001D02*
X62080000Y-16620000D01*
X60750000Y-11420000D02*
X62080000Y-11420000D01*
X62080000Y-11420000D02*
X62080000Y-12750000D01*
%TO.C,J6*%
X11670000Y-3670000D02*
X11670000Y-6330000D01*
X14269999Y-3670000D02*
X11670000Y-3670000D01*
X14269999Y-3670000D02*
X14269999Y-6330000D01*
X14269999Y-6330000D02*
X11670000Y-6330000D01*
X16870000Y-5000000D02*
X16870000Y-6330000D01*
X16870000Y-6330000D02*
X15540000Y-6330000D01*
%TO.C,C7*%
X34396267Y-60760000D02*
X34103733Y-60760000D01*
X34396267Y-59740000D02*
X34103733Y-59740000D01*
%TO.C,R8*%
X35522500Y-89667224D02*
X35522500Y-89157776D01*
X34477500Y-89667224D02*
X34477500Y-89157776D01*
%TO.C,C8*%
X41896267Y-32490000D02*
X41603733Y-32490000D01*
X41896267Y-33510000D02*
X41603733Y-33510000D01*
%TO.C,C3*%
X46265000Y-77261253D02*
X46265000Y-76738747D01*
X47735000Y-77261253D02*
X47735000Y-76738747D01*
%TO.C,D3*%
X13610000Y-13100000D02*
X13610000Y-11400000D01*
X13610000Y-13100000D02*
X10950000Y-13100000D01*
X13610000Y-11400000D02*
X10950000Y-11400000D01*
%TO.C,C2*%
X57628733Y-88470001D02*
X57921267Y-88470001D01*
X57628733Y-87450001D02*
X57921267Y-87450001D01*
%TO.C,D4*%
X9765000Y-8200000D02*
X9765000Y-10660000D01*
X9765000Y-10660000D02*
X11235000Y-10660000D01*
X11235000Y-10660000D02*
X11235000Y-8200000D01*
%TO.C,R28*%
X12977500Y-9254724D02*
X12977500Y-8745276D01*
X14022500Y-9254724D02*
X14022500Y-8745276D01*
%TO.C,C6*%
X31490000Y-85896267D02*
X31490000Y-85603733D01*
X32510000Y-85896267D02*
X32510000Y-85603733D01*
%TO.C,C13*%
X41648733Y-17990000D02*
X41941267Y-17990000D01*
X41648733Y-19010000D02*
X41941267Y-19010000D01*
%TO.C,C22*%
X64146267Y-71260000D02*
X63853733Y-71260000D01*
X64146267Y-70240000D02*
X63853733Y-70240000D01*
%TO.C,C15*%
X39240000Y-70396267D02*
X39240000Y-70103733D01*
X40260000Y-70396267D02*
X40260000Y-70103733D01*
%TO.C,C18*%
X52353733Y-24490000D02*
X52646267Y-24490000D01*
X52353733Y-25510000D02*
X52646267Y-25510000D01*
%TO.C,FB1*%
X53910242Y-93150000D02*
X53089758Y-93150000D01*
X53910242Y-94270000D02*
X53089758Y-94270000D01*
%TO.C,R20*%
X52040276Y-18022500D02*
X52549724Y-18022500D01*
X52040276Y-16977500D02*
X52549724Y-16977500D01*
%TO.C,R2*%
X55977500Y-26254724D02*
X55977500Y-25745276D01*
X57022500Y-26254724D02*
X57022500Y-25745276D01*
%TO.C,RV2*%
X-5920000Y-64120000D02*
X-5920000Y-57880000D01*
X4080000Y-57880000D02*
X-5920000Y-57880000D01*
X4080000Y-64120000D02*
X-5920000Y-64120000D01*
X4080000Y-64620000D02*
X4080000Y-57380000D01*
X9080000Y-57380000D02*
X4080000Y-57380000D01*
X9080000Y-64620000D02*
X4080000Y-64620000D01*
X9080000Y-70070000D02*
X9080000Y-51930000D01*
X19820000Y-51930000D02*
X9080000Y-51930000D01*
X19820000Y-70070000D02*
X9080000Y-70070000D01*
X19820000Y-70070000D02*
X19820000Y-51930000D01*
%TO.C,R17*%
X44727500Y-28754724D02*
X44727500Y-28245276D01*
X45772500Y-28754724D02*
X45772500Y-28245276D01*
%TO.C,R21*%
X45290276Y-16227500D02*
X45799724Y-16227500D01*
X45290276Y-17272500D02*
X45799724Y-17272500D01*
%TO.C,C9*%
X41603733Y-28990000D02*
X41896267Y-28990000D01*
X41603733Y-30010000D02*
X41896267Y-30010000D01*
%TO.C,R9*%
X29727500Y-86004724D02*
X29727500Y-85495276D01*
X30772500Y-86004724D02*
X30772500Y-85495276D01*
%TO.C,R14*%
X34977500Y-48504724D02*
X34977500Y-47995276D01*
X36022500Y-48504724D02*
X36022500Y-47995276D01*
%TO.C,R11*%
X34504724Y-73977500D02*
X33995276Y-73977500D01*
X34504724Y-75022500D02*
X33995276Y-75022500D01*
%TO.C,R7*%
X55977500Y-30004724D02*
X55977500Y-29495276D01*
X57022500Y-30004724D02*
X57022500Y-29495276D01*
%TO.C,C11*%
X45398733Y-15010000D02*
X45691267Y-15010000D01*
X45398733Y-13990000D02*
X45691267Y-13990000D01*
%TO.C,R24*%
X22022500Y-85495276D02*
X22022500Y-86004724D01*
X20977500Y-85495276D02*
X20977500Y-86004724D01*
%TO.C,C21*%
X65896267Y-64760000D02*
X65603733Y-64760000D01*
X65896267Y-63740000D02*
X65603733Y-63740000D01*
%TO.C,C1*%
X61760000Y-84813733D02*
X61760000Y-85106267D01*
X60740000Y-84813733D02*
X60740000Y-85106267D01*
%TO.C,RV1*%
X19820000Y-95070000D02*
X19820000Y-76930000D01*
X19820000Y-95070000D02*
X9080000Y-95070000D01*
X19820000Y-76930000D02*
X9080000Y-76930000D01*
X9080000Y-95070000D02*
X9080000Y-76930000D01*
X9080000Y-89620000D02*
X4080000Y-89620000D01*
X9080000Y-82380000D02*
X4080000Y-82380000D01*
X4080000Y-89620000D02*
X4080000Y-82380000D01*
X4080000Y-89120000D02*
X-5920000Y-89120000D01*
X4080000Y-82880000D02*
X-5920000Y-82880000D01*
X-5920000Y-89120000D02*
X-5920000Y-82880000D01*
%TO.C,R12*%
X35772500Y-77504724D02*
X35772500Y-76995276D01*
X34727500Y-77504724D02*
X34727500Y-76995276D01*
%TO.C,R19*%
X52040276Y-10477500D02*
X52549724Y-10477500D01*
X52040276Y-11522500D02*
X52549724Y-11522500D01*
%TO.C,C4*%
X52988747Y-89725000D02*
X53511253Y-89725000D01*
X52988747Y-91195000D02*
X53511253Y-91195000D01*
%TO.C,C14*%
X39240000Y-84396267D02*
X39240000Y-84103733D01*
X40260000Y-84396267D02*
X40260000Y-84103733D01*
%TO.C,C25*%
X65896267Y-73010000D02*
X65603733Y-73010000D01*
X65896267Y-71990000D02*
X65603733Y-71990000D01*
%TO.C,R3*%
X57495276Y-90232500D02*
X58004724Y-90232500D01*
X57495276Y-89187500D02*
X58004724Y-89187500D01*
D17*
%TO.C,G\u002A\u002A\u002A*%
G36*
X61696379Y-41993297D02*
G01*
X61741895Y-42008808D01*
X61785025Y-42044434D01*
X61802565Y-42062587D01*
X61848440Y-42120214D01*
X61868257Y-42174747D01*
X61871114Y-42216242D01*
X61855364Y-42315981D01*
X61811917Y-42400660D01*
X61764939Y-42446601D01*
X61751910Y-42457655D01*
X61751910Y-42465925D01*
X61769571Y-42471901D01*
X61809524Y-42476071D01*
X61876400Y-42478929D01*
X61974832Y-42480959D01*
X62105728Y-42482613D01*
X62244609Y-42483635D01*
X62385841Y-42483788D01*
X62517968Y-42483121D01*
X62629539Y-42481683D01*
X62693444Y-42480107D01*
X62785467Y-42477681D01*
X62843545Y-42478476D01*
X62874375Y-42483423D01*
X62884655Y-42493455D01*
X62882344Y-42506389D01*
X62883101Y-42533271D01*
X62905889Y-42538274D01*
X62938118Y-42520930D01*
X62949800Y-42508895D01*
X62971393Y-42494523D01*
X63012199Y-42485215D01*
X63079049Y-42480120D01*
X63178776Y-42478388D01*
X63195198Y-42478366D01*
X63318192Y-42480602D01*
X63409466Y-42488764D01*
X63477838Y-42505035D01*
X63532118Y-42531594D01*
X63581123Y-42570625D01*
X63585818Y-42575054D01*
X63620704Y-42615659D01*
X63637336Y-42661103D01*
X63641776Y-42728588D01*
X63641787Y-42733837D01*
X63626106Y-42838985D01*
X63578799Y-42918665D01*
X63499469Y-42973515D01*
X63490814Y-42977227D01*
X63455896Y-42983261D01*
X63385087Y-42988697D01*
X63283193Y-42993517D01*
X63155024Y-42997700D01*
X63005388Y-43001226D01*
X62839095Y-43004077D01*
X62660952Y-43006233D01*
X62475768Y-43007674D01*
X62288351Y-43008380D01*
X62103512Y-43008332D01*
X61926057Y-43007510D01*
X61760795Y-43005895D01*
X61612535Y-43003467D01*
X61486087Y-43000207D01*
X61386258Y-42996095D01*
X61317857Y-42991110D01*
X61288110Y-42986204D01*
X61238414Y-42974050D01*
X61206819Y-42974094D01*
X61204119Y-42975756D01*
X61196159Y-43001447D01*
X61188320Y-43055492D01*
X61182925Y-43117639D01*
X61183887Y-43208603D01*
X61195862Y-43303638D01*
X61216237Y-43391052D01*
X61242407Y-43459151D01*
X61266610Y-43492589D01*
X61273091Y-43495781D01*
X61285738Y-43498675D01*
X61306453Y-43501286D01*
X61337138Y-43503627D01*
X61379697Y-43505714D01*
X61436031Y-43507561D01*
X61508044Y-43509185D01*
X61597638Y-43510597D01*
X61706716Y-43511814D01*
X61837179Y-43512851D01*
X61990932Y-43513721D01*
X62169875Y-43514440D01*
X62375913Y-43515023D01*
X62610947Y-43515484D01*
X62876881Y-43515838D01*
X63175616Y-43516099D01*
X63509055Y-43516283D01*
X63879101Y-43516404D01*
X64287657Y-43516477D01*
X64354127Y-43516484D01*
X65035938Y-43516561D01*
X65102084Y-43587389D01*
X65144170Y-43639521D01*
X65163532Y-43689686D01*
X65168229Y-43758872D01*
X65168230Y-43759570D01*
X65163083Y-43831044D01*
X65142389Y-43884154D01*
X65105063Y-43932866D01*
X65041897Y-44004808D01*
X63385272Y-44004808D01*
X63075679Y-44004925D01*
X62804597Y-44005298D01*
X62569832Y-44005961D01*
X62369193Y-44006948D01*
X62200484Y-44008292D01*
X62061514Y-44010027D01*
X61950087Y-44012187D01*
X61864012Y-44014805D01*
X61801095Y-44017916D01*
X61759142Y-44021552D01*
X61735960Y-44025748D01*
X61729325Y-44030249D01*
X61744435Y-44049185D01*
X61785260Y-44088214D01*
X61845613Y-44142150D01*
X61919310Y-44205802D01*
X62000164Y-44273980D01*
X62081991Y-44341496D01*
X62158605Y-44403159D01*
X62223820Y-44453781D01*
X62271451Y-44488171D01*
X62285883Y-44497184D01*
X62312433Y-44501068D01*
X62375217Y-44504873D01*
X62469762Y-44508485D01*
X62591598Y-44511791D01*
X62736252Y-44514677D01*
X62899254Y-44517028D01*
X63076132Y-44518730D01*
X63150930Y-44519211D01*
X63357276Y-44520413D01*
X63526850Y-44521667D01*
X63663580Y-44523180D01*
X63771401Y-44525156D01*
X63854243Y-44527803D01*
X63916039Y-44531324D01*
X63960720Y-44535927D01*
X63992217Y-44541815D01*
X64014462Y-44549196D01*
X64031386Y-44558274D01*
X64042267Y-44565817D01*
X64090354Y-44613194D01*
X64132324Y-44673766D01*
X64136443Y-44681651D01*
X64159734Y-44769856D01*
X64146771Y-44857563D01*
X64101290Y-44936672D01*
X64027025Y-44999085D01*
X63979567Y-45021765D01*
X63936116Y-45029826D01*
X63855334Y-45035978D01*
X63740554Y-45040086D01*
X63595112Y-45042018D01*
X63475848Y-45041998D01*
X63346213Y-45041909D01*
X63231412Y-45042866D01*
X63137284Y-45044733D01*
X63069669Y-45047378D01*
X63034406Y-45050664D01*
X63030644Y-45052242D01*
X63045259Y-45070129D01*
X63083792Y-45103974D01*
X63127312Y-45138308D01*
X63182333Y-45180222D01*
X63259150Y-45239056D01*
X63347358Y-45306825D01*
X63431948Y-45371996D01*
X63639337Y-45532022D01*
X65569968Y-45532199D01*
X65895029Y-45532269D01*
X66181868Y-45532443D01*
X66432968Y-45532768D01*
X66650811Y-45533283D01*
X66837886Y-45534036D01*
X66996668Y-45535068D01*
X67129646Y-45536425D01*
X67239301Y-45538149D01*
X67328117Y-45540284D01*
X67398577Y-45542875D01*
X67453164Y-45545966D01*
X67494361Y-45549597D01*
X67524652Y-45553815D01*
X67546519Y-45558664D01*
X67562447Y-45564186D01*
X67569386Y-45567431D01*
X67653495Y-45629225D01*
X67704384Y-45706812D01*
X67722069Y-45792484D01*
X67706567Y-45878535D01*
X67657894Y-45957259D01*
X67576069Y-46020948D01*
X67568385Y-46025011D01*
X67553418Y-46031618D01*
X67534167Y-46037358D01*
X67507869Y-46042290D01*
X67471755Y-46046471D01*
X67423060Y-46049960D01*
X67359016Y-46052814D01*
X67276855Y-46055091D01*
X67173815Y-46056850D01*
X67047125Y-46058149D01*
X66894020Y-46059043D01*
X66711733Y-46059594D01*
X66497496Y-46059857D01*
X66248545Y-46059891D01*
X65962111Y-46059755D01*
X65911098Y-46059720D01*
X65660875Y-46059733D01*
X65422783Y-46060115D01*
X65199907Y-46060839D01*
X64995332Y-46061876D01*
X64812144Y-46063200D01*
X64653427Y-46064783D01*
X64522267Y-46066598D01*
X64421749Y-46068618D01*
X64354959Y-46070815D01*
X64324982Y-46073162D01*
X64323598Y-46073797D01*
X64337796Y-46092298D01*
X64376811Y-46132782D01*
X64435272Y-46189924D01*
X64507809Y-46258398D01*
X64537300Y-46285687D01*
X64617753Y-46360274D01*
X64690247Y-46428472D01*
X64748061Y-46483886D01*
X64784470Y-46520121D01*
X64790068Y-46526131D01*
X64800359Y-46536834D01*
X64812838Y-46545626D01*
X64831307Y-46552690D01*
X64859568Y-46558206D01*
X64901424Y-46562359D01*
X64960676Y-46565329D01*
X65041126Y-46567299D01*
X65146576Y-46568451D01*
X65280829Y-46568966D01*
X65447687Y-46569028D01*
X65650951Y-46568818D01*
X65680381Y-46568781D01*
X65914797Y-46568995D01*
X66115679Y-46570268D01*
X66281739Y-46572569D01*
X66411687Y-46575872D01*
X66504237Y-46580147D01*
X66558099Y-46585365D01*
X66570866Y-46588679D01*
X66642586Y-46648887D01*
X66684313Y-46734822D01*
X66694672Y-46818242D01*
X66690493Y-46885874D01*
X66672434Y-46933564D01*
X66632213Y-46981691D01*
X66625474Y-46988494D01*
X66556274Y-47057693D01*
X65933486Y-47057693D01*
X65778950Y-47058115D01*
X65638384Y-47059309D01*
X65516716Y-47061170D01*
X65418870Y-47063592D01*
X65349773Y-47066467D01*
X65314350Y-47069689D01*
X65310697Y-47071145D01*
X65322160Y-47092384D01*
X65352809Y-47137750D01*
X65397034Y-47199090D01*
X65419227Y-47228878D01*
X65477322Y-47307994D01*
X65533589Y-47387789D01*
X65577652Y-47453480D01*
X65584786Y-47464744D01*
X65617506Y-47517000D01*
X65640198Y-47552694D01*
X65646318Y-47561875D01*
X65666872Y-47562718D01*
X65725128Y-47563508D01*
X65818083Y-47564238D01*
X65942732Y-47564898D01*
X66096072Y-47565480D01*
X66275101Y-47565973D01*
X66476814Y-47566372D01*
X66698207Y-47566665D01*
X66936279Y-47566844D01*
X67188024Y-47566900D01*
X67337930Y-47566873D01*
X67640434Y-47566819D01*
X67904910Y-47566903D01*
X68134032Y-47567177D01*
X68330477Y-47567696D01*
X68496922Y-47568512D01*
X68636043Y-47569679D01*
X68750514Y-47571252D01*
X68843013Y-47573283D01*
X68916216Y-47575827D01*
X68972799Y-47578936D01*
X69015438Y-47582664D01*
X69046808Y-47587065D01*
X69069587Y-47592192D01*
X69086450Y-47598099D01*
X69094828Y-47602033D01*
X69179380Y-47664204D01*
X69230624Y-47742026D01*
X69248560Y-47827805D01*
X69233190Y-47913852D01*
X69184511Y-47992474D01*
X69102525Y-48055980D01*
X69094828Y-48060025D01*
X69079641Y-48066642D01*
X69059960Y-48072387D01*
X69032993Y-48077325D01*
X68995954Y-48081514D01*
X68946053Y-48085015D01*
X68880501Y-48087890D01*
X68796510Y-48090199D01*
X68691290Y-48092005D01*
X68562054Y-48093365D01*
X68406012Y-48094343D01*
X68220375Y-48094999D01*
X68002355Y-48095393D01*
X67749162Y-48095588D01*
X67462981Y-48095642D01*
X67214816Y-48095744D01*
X66978806Y-48096029D01*
X66758062Y-48096481D01*
X66555695Y-48097087D01*
X66374814Y-48097828D01*
X66218531Y-48098694D01*
X66089954Y-48099666D01*
X65992196Y-48100729D01*
X65928364Y-48101869D01*
X65901572Y-48103071D01*
X65900922Y-48103291D01*
X65907065Y-48125408D01*
X65922468Y-48171742D01*
X65929486Y-48191867D01*
X65947088Y-48253077D01*
X65966158Y-48336857D01*
X65982668Y-48425449D01*
X65983160Y-48428481D01*
X66008269Y-48584135D01*
X67781237Y-48584211D01*
X68090673Y-48584248D01*
X68362015Y-48584367D01*
X68597873Y-48584626D01*
X68800859Y-48585081D01*
X68973585Y-48585787D01*
X69118661Y-48586803D01*
X69238698Y-48588183D01*
X69336309Y-48589985D01*
X69414102Y-48592264D01*
X69474690Y-48595078D01*
X69520685Y-48598483D01*
X69554697Y-48602535D01*
X69579336Y-48607291D01*
X69597215Y-48612807D01*
X69610943Y-48619140D01*
X69619247Y-48623945D01*
X69698634Y-48691010D01*
X69741610Y-48774741D01*
X69751207Y-48846971D01*
X69734307Y-48945890D01*
X69680782Y-49027104D01*
X69631086Y-49067225D01*
X69621191Y-49073369D01*
X69609831Y-49078862D01*
X69594779Y-49083746D01*
X69573810Y-49088059D01*
X69544697Y-49091842D01*
X69505214Y-49095135D01*
X69453136Y-49097979D01*
X69386236Y-49100413D01*
X69302291Y-49102478D01*
X69199070Y-49104213D01*
X69074351Y-49105660D01*
X68925907Y-49106857D01*
X68751512Y-49107845D01*
X68548940Y-49108665D01*
X68315965Y-49109356D01*
X68050362Y-49109959D01*
X67749903Y-49110513D01*
X67412366Y-49111059D01*
X67180310Y-49111416D01*
X65946157Y-49113302D01*
X65933412Y-49179448D01*
X65919466Y-49227460D01*
X65892953Y-49299879D01*
X65858565Y-49384244D01*
X65841861Y-49422587D01*
X65808984Y-49499838D01*
X65785209Y-49562407D01*
X65773666Y-49601656D01*
X65773780Y-49610306D01*
X65795420Y-49612115D01*
X65854440Y-49613848D01*
X65947520Y-49615477D01*
X66071334Y-49616973D01*
X66222559Y-49618311D01*
X66397873Y-49619464D01*
X66593952Y-49620405D01*
X66807472Y-49621107D01*
X67035111Y-49621542D01*
X67180895Y-49621668D01*
X67459943Y-49621711D01*
X67701170Y-49621758D01*
X67907459Y-49622091D01*
X68081694Y-49622996D01*
X68226756Y-49624755D01*
X68345533Y-49627653D01*
X68440903Y-49631975D01*
X68515752Y-49638003D01*
X68572963Y-49646022D01*
X68615419Y-49656314D01*
X68646003Y-49669168D01*
X68667598Y-49684862D01*
X68683087Y-49703684D01*
X68695355Y-49725915D01*
X68707284Y-49751842D01*
X68717291Y-49772973D01*
X68741054Y-49831319D01*
X68743476Y-49880653D01*
X68732187Y-49927892D01*
X68699771Y-49994677D01*
X68651869Y-50053550D01*
X68646589Y-50058196D01*
X68584337Y-50110578D01*
X66948537Y-50110577D01*
X65312736Y-50110578D01*
X65194689Y-50181845D01*
X65047337Y-50258279D01*
X64877941Y-50325556D01*
X64705126Y-50376308D01*
X64700121Y-50377489D01*
X64611068Y-50391371D01*
X64493878Y-50399798D01*
X64360742Y-50402775D01*
X64223861Y-50400303D01*
X64095430Y-50392389D01*
X63987647Y-50379036D01*
X63977605Y-50377241D01*
X63657016Y-50297974D01*
X63335775Y-50180097D01*
X63016756Y-50025555D01*
X62702835Y-49836290D01*
X62396885Y-49614244D01*
X62101784Y-49361361D01*
X61820404Y-49079584D01*
X61555621Y-48770856D01*
X61505067Y-48706250D01*
X61447569Y-48633595D01*
X61393590Y-48568797D01*
X61351682Y-48521992D01*
X61339257Y-48509698D01*
X61222969Y-48430008D01*
X61087031Y-48380201D01*
X60941458Y-48362284D01*
X60796260Y-48378261D01*
X60749517Y-48391518D01*
X60636152Y-48447576D01*
X60530827Y-48533019D01*
X60445579Y-48636727D01*
X60406810Y-48708249D01*
X60359069Y-48858980D01*
X60349742Y-49001404D01*
X60379273Y-49136715D01*
X60448108Y-49266107D01*
X60556689Y-49390771D01*
X60705462Y-49511901D01*
X60706352Y-49512531D01*
X61035162Y-49752359D01*
X61350769Y-49996663D01*
X61644708Y-50238712D01*
X61885354Y-50450541D01*
X62072589Y-50621466D01*
X62742657Y-50619948D01*
X62936567Y-50619717D01*
X63094237Y-50620333D01*
X63220129Y-50622304D01*
X63318709Y-50626139D01*
X63394439Y-50632347D01*
X63451782Y-50641438D01*
X63495204Y-50653919D01*
X63529166Y-50670300D01*
X63558133Y-50691090D01*
X63585818Y-50716081D01*
X63620704Y-50756684D01*
X63637336Y-50802129D01*
X63641776Y-50869613D01*
X63641787Y-50874862D01*
X63634457Y-50958610D01*
X63609602Y-51019596D01*
X63597665Y-51036341D01*
X63566102Y-51071874D01*
X63530652Y-51099095D01*
X63485669Y-51119085D01*
X63425498Y-51132925D01*
X63344489Y-51141698D01*
X63236992Y-51146484D01*
X63097356Y-51148367D01*
X63011511Y-51148558D01*
X62887692Y-51149355D01*
X62779004Y-51151579D01*
X62691538Y-51154978D01*
X62631379Y-51159303D01*
X62604616Y-51164302D01*
X62603806Y-51165363D01*
X62617313Y-51189331D01*
X62650362Y-51225817D01*
X62655686Y-51230906D01*
X62688436Y-51265954D01*
X62738914Y-51325021D01*
X62800152Y-51399766D01*
X62863216Y-51479326D01*
X62933339Y-51566988D01*
X62984280Y-51624695D01*
X63019789Y-51656126D01*
X63043611Y-51664956D01*
X63050479Y-51663100D01*
X63074942Y-51660783D01*
X63137273Y-51658456D01*
X63234636Y-51656154D01*
X63364191Y-51653907D01*
X63523104Y-51651742D01*
X63708536Y-51649693D01*
X63917650Y-51647788D01*
X64147609Y-51646058D01*
X64395576Y-51644534D01*
X64658713Y-51643244D01*
X64934185Y-51642220D01*
X65041443Y-51641907D01*
X65367613Y-51641044D01*
X65655571Y-51640351D01*
X65907811Y-51639873D01*
X66126827Y-51639651D01*
X66315112Y-51639729D01*
X66475158Y-51640149D01*
X66609460Y-51640955D01*
X66720512Y-51642189D01*
X66810805Y-51643894D01*
X66882835Y-51646113D01*
X66939092Y-51648889D01*
X66982075Y-51652265D01*
X67014272Y-51656284D01*
X67038179Y-51660988D01*
X67056290Y-51666421D01*
X67071096Y-51672625D01*
X67079893Y-51676971D01*
X67153690Y-51735131D01*
X67198776Y-51813477D01*
X67213741Y-51901998D01*
X67197174Y-51990689D01*
X67147664Y-52069540D01*
X67136749Y-52080428D01*
X67097831Y-52112673D01*
X67055778Y-52135908D01*
X67003868Y-52151144D01*
X66935375Y-52159393D01*
X66843579Y-52161665D01*
X66721753Y-52158972D01*
X66636773Y-52155624D01*
X66560325Y-52153446D01*
X66447397Y-52151798D01*
X66302210Y-52150671D01*
X66128991Y-52150068D01*
X65931958Y-52149985D01*
X65715334Y-52150422D01*
X65483343Y-52151376D01*
X65240206Y-52152844D01*
X64990145Y-52154827D01*
X64822546Y-52156424D01*
X63340976Y-52171517D01*
X63466280Y-52418171D01*
X63591581Y-52664825D01*
X64608872Y-52669225D01*
X64856152Y-52670209D01*
X65130456Y-52671150D01*
X65421019Y-52672022D01*
X65717077Y-52672796D01*
X66007867Y-52673445D01*
X66282626Y-52673942D01*
X66530589Y-52674260D01*
X66596436Y-52674313D01*
X67566709Y-52675000D01*
X67628961Y-52727382D01*
X67694690Y-52805509D01*
X67723457Y-52893265D01*
X67715303Y-52983325D01*
X67670273Y-53068363D01*
X67626688Y-53112993D01*
X67566709Y-53163462D01*
X65665306Y-53163462D01*
X65340890Y-53163523D01*
X65054842Y-53163729D01*
X64804828Y-53164118D01*
X64588509Y-53164726D01*
X64403552Y-53165591D01*
X64247618Y-53166748D01*
X64118373Y-53168235D01*
X64013479Y-53170089D01*
X63930601Y-53172346D01*
X63867403Y-53175043D01*
X63821548Y-53178217D01*
X63790699Y-53181905D01*
X63772524Y-53186143D01*
X63764682Y-53190969D01*
X63763903Y-53193412D01*
X63767760Y-53227183D01*
X63777924Y-53288190D01*
X63792278Y-53363842D01*
X63793816Y-53371497D01*
X63810592Y-53457114D01*
X63825607Y-53538125D01*
X63835443Y-53595954D01*
X63847157Y-53672276D01*
X65347237Y-53675800D01*
X65608982Y-53676314D01*
X65872551Y-53676641D01*
X66132971Y-53676788D01*
X66385267Y-53676758D01*
X66624463Y-53676557D01*
X66845587Y-53676191D01*
X67043667Y-53675664D01*
X67213726Y-53674982D01*
X67350788Y-53674151D01*
X67410310Y-53673631D01*
X67608310Y-53672426D01*
X67767624Y-53673258D01*
X67890219Y-53676183D01*
X67978068Y-53681256D01*
X68033141Y-53688536D01*
X68045662Y-53691818D01*
X68130955Y-53738159D01*
X68188867Y-53806282D01*
X68219046Y-53887725D01*
X68221139Y-53974027D01*
X68194796Y-54056725D01*
X68139663Y-54127358D01*
X68065706Y-54173380D01*
X68018625Y-54185176D01*
X67947607Y-54193918D01*
X67862733Y-54199441D01*
X67774082Y-54201577D01*
X67691734Y-54200161D01*
X67625767Y-54195028D01*
X67586262Y-54186011D01*
X67580184Y-54181374D01*
X67550318Y-54167095D01*
X67503011Y-54174080D01*
X67471380Y-54189067D01*
X67441128Y-54195220D01*
X67379444Y-54199152D01*
X67295558Y-54200508D01*
X67206797Y-54199181D01*
X67147996Y-54198134D01*
X67052256Y-54197256D01*
X66923338Y-54196550D01*
X66765006Y-54196023D01*
X66581023Y-54195678D01*
X66375153Y-54195521D01*
X66151160Y-54195556D01*
X65912807Y-54195789D01*
X65663858Y-54196223D01*
X65408077Y-54196864D01*
X65402072Y-54196881D01*
X63834712Y-54201443D01*
X63798772Y-54389704D01*
X63781511Y-54479384D01*
X63765797Y-54559738D01*
X63754093Y-54618222D01*
X63750818Y-54633935D01*
X63738805Y-54689904D01*
X65364293Y-54689936D01*
X65660985Y-54689989D01*
X65919700Y-54690175D01*
X66143169Y-54690551D01*
X66334122Y-54691175D01*
X66495285Y-54692102D01*
X66629389Y-54693392D01*
X66739165Y-54695102D01*
X66827341Y-54697288D01*
X66896647Y-54700007D01*
X66949811Y-54703319D01*
X66989563Y-54707279D01*
X67018632Y-54711945D01*
X67039748Y-54717374D01*
X67055641Y-54723624D01*
X67059571Y-54725553D01*
X67143543Y-54787369D01*
X67194443Y-54865117D01*
X67212273Y-54950998D01*
X67197032Y-55037214D01*
X67148719Y-55115962D01*
X67067336Y-55179445D01*
X67059571Y-55183541D01*
X67045169Y-55189851D01*
X67026482Y-55195373D01*
X67000877Y-55200157D01*
X66965720Y-55204255D01*
X66918379Y-55207719D01*
X66856218Y-55210597D01*
X66776606Y-55212944D01*
X66676908Y-55214809D01*
X66554491Y-55216245D01*
X66406721Y-55217301D01*
X66230964Y-55218030D01*
X66024588Y-55218483D01*
X65784958Y-55218711D01*
X65509442Y-55218765D01*
X65251780Y-55218713D01*
X64989607Y-55218697D01*
X64739357Y-55218804D01*
X64503985Y-55219027D01*
X64286448Y-55219356D01*
X64089705Y-55219784D01*
X63916711Y-55220301D01*
X63770423Y-55220900D01*
X63653796Y-55221573D01*
X63569792Y-55222309D01*
X63521362Y-55223102D01*
X63510170Y-55223715D01*
X63479958Y-55273747D01*
X63447352Y-55333109D01*
X63418790Y-55389353D01*
X63400707Y-55430031D01*
X63397556Y-55441485D01*
X63413774Y-55447665D01*
X63463285Y-55452766D01*
X63547378Y-55456819D01*
X63667339Y-55459861D01*
X63824457Y-55461927D01*
X64020020Y-55463053D01*
X64192317Y-55463302D01*
X64403260Y-55463412D01*
X64577395Y-55464045D01*
X64718620Y-55465658D01*
X64830834Y-55468706D01*
X64917933Y-55473644D01*
X64983816Y-55480929D01*
X65032380Y-55491017D01*
X65067524Y-55504362D01*
X65093143Y-55521421D01*
X65113137Y-55542650D01*
X65131403Y-55568503D01*
X65134678Y-55573485D01*
X65161546Y-55644915D01*
X65167476Y-55732459D01*
X65152884Y-55817573D01*
X65128052Y-55869611D01*
X65110926Y-55892691D01*
X65092871Y-55912073D01*
X65070410Y-55928055D01*
X65040064Y-55940939D01*
X64998356Y-55951024D01*
X64941808Y-55958610D01*
X64866940Y-55963995D01*
X64770275Y-55967481D01*
X64648334Y-55969366D01*
X64497641Y-55969950D01*
X64314717Y-55969534D01*
X64096083Y-55968416D01*
X63988702Y-55967786D01*
X63004437Y-55961940D01*
X62883732Y-56087658D01*
X62797314Y-56168016D01*
X62720754Y-56215159D01*
X62645720Y-56232288D01*
X62563887Y-56222603D01*
X62545552Y-56217607D01*
X62472502Y-56181458D01*
X62435537Y-56126479D01*
X62431980Y-56068702D01*
X62431614Y-56031825D01*
X62420614Y-56023011D01*
X62420476Y-56023094D01*
X62409812Y-56012139D01*
X62404040Y-55970522D01*
X62403647Y-55939476D01*
X62410263Y-55873863D01*
X62432314Y-55821117D01*
X62477829Y-55762246D01*
X62479243Y-55760640D01*
X62522422Y-55712357D01*
X62554752Y-55677536D01*
X62565667Y-55666827D01*
X62590612Y-55640801D01*
X62633557Y-55590157D01*
X62688163Y-55522904D01*
X62748090Y-55447053D01*
X62807000Y-55370613D01*
X62858554Y-55301593D01*
X62892227Y-55254200D01*
X63048996Y-54990089D01*
X63175929Y-54704030D01*
X63269285Y-54405310D01*
X63307981Y-54221795D01*
X63331532Y-53986602D01*
X63326136Y-53732801D01*
X63292701Y-53469449D01*
X63232133Y-53205611D01*
X63193891Y-53082052D01*
X63121871Y-52896838D01*
X63025447Y-52691800D01*
X62909623Y-52475256D01*
X62779408Y-52255519D01*
X62639810Y-52040905D01*
X62495837Y-51839730D01*
X62352495Y-51660309D01*
X62304987Y-51605957D01*
X61933941Y-51211574D01*
X61550430Y-50842912D01*
X61146388Y-50492797D01*
X60713750Y-50154058D01*
X60483810Y-49986444D01*
X60334106Y-49875841D01*
X60215055Y-49778068D01*
X60121092Y-49687379D01*
X60046652Y-49598029D01*
X59986169Y-49504271D01*
X59950600Y-49435957D01*
X59876232Y-49237931D01*
X59839456Y-49034219D01*
X59840958Y-48830709D01*
X59864279Y-48695088D01*
X59930477Y-48501195D01*
X60031146Y-48326427D01*
X60167083Y-48168187D01*
X60325161Y-48034288D01*
X60490454Y-47938708D01*
X60668677Y-47879085D01*
X60865547Y-47853061D01*
X60934388Y-47851443D01*
X61120734Y-47863393D01*
X61290448Y-47901001D01*
X61448124Y-47966905D01*
X61598364Y-48063740D01*
X61745765Y-48194143D01*
X61894925Y-48360751D01*
X61955028Y-48436711D01*
X62041283Y-48542106D01*
X62150403Y-48664769D01*
X62274059Y-48795820D01*
X62403919Y-48926376D01*
X62504198Y-49022190D01*
X62715819Y-49203692D01*
X62945739Y-49372900D01*
X63185858Y-49524983D01*
X63428077Y-49655108D01*
X63664295Y-49758444D01*
X63835137Y-49816180D01*
X63983409Y-49850197D01*
X64147939Y-49873240D01*
X64315131Y-49884397D01*
X64471386Y-49882754D01*
X64601915Y-49867633D01*
X64794645Y-49810433D01*
X64968010Y-49717796D01*
X65121033Y-49590599D01*
X65252745Y-49429716D01*
X65362172Y-49236024D01*
X65399378Y-49149824D01*
X65429539Y-49066194D01*
X65443426Y-49000840D01*
X65444007Y-48936167D01*
X65440847Y-48903702D01*
X65438125Y-48804801D01*
X65454027Y-48745345D01*
X65473131Y-48675041D01*
X65473497Y-48576204D01*
X65455802Y-48456075D01*
X65420723Y-48321899D01*
X65411901Y-48294671D01*
X65344068Y-48114689D01*
X65261767Y-47940537D01*
X65161877Y-47767767D01*
X65041278Y-47591934D01*
X64896850Y-47408591D01*
X64725472Y-47213292D01*
X64524024Y-47001590D01*
X64457108Y-46934064D01*
X64300802Y-46780501D01*
X64142519Y-46631191D01*
X63977995Y-46482548D01*
X63802965Y-46330986D01*
X63613164Y-46172920D01*
X63404329Y-46004764D01*
X63172195Y-45822930D01*
X62912497Y-45623834D01*
X62776803Y-45521086D01*
X62491411Y-45305118D01*
X62236950Y-45111060D01*
X62011337Y-44937011D01*
X61812487Y-44781073D01*
X61638316Y-44641346D01*
X61486742Y-44515931D01*
X61355678Y-44402928D01*
X61243042Y-44300438D01*
X61146749Y-44206560D01*
X61064715Y-44119397D01*
X60994857Y-44037047D01*
X60935089Y-43957613D01*
X60883329Y-43879193D01*
X60837491Y-43799890D01*
X60795493Y-43717802D01*
X60793289Y-43713246D01*
X60708626Y-43498547D01*
X60664306Y-43289229D01*
X60660336Y-43085224D01*
X60696720Y-42886465D01*
X60773463Y-42692885D01*
X60885903Y-42510774D01*
X60985078Y-42392996D01*
X61109373Y-42272496D01*
X61245715Y-42160634D01*
X61381032Y-42068761D01*
X61421174Y-42045873D01*
X61520475Y-42004016D01*
X61619184Y-41990003D01*
X61629419Y-41989904D01*
X61696379Y-41993297D01*
G37*
G36*
X55856340Y-42000234D02*
G01*
X55916505Y-42033031D01*
X55966092Y-42072084D01*
X56039627Y-42135033D01*
X56132028Y-42217238D01*
X56238218Y-42314057D01*
X56353114Y-42420851D01*
X56471638Y-42532979D01*
X56588711Y-42645800D01*
X56609976Y-42666545D01*
X56689441Y-42742690D01*
X56763931Y-42811298D01*
X56826074Y-42865767D01*
X56868500Y-42899494D01*
X56874560Y-42903539D01*
X56932842Y-42944591D01*
X56984113Y-42988735D01*
X57018478Y-43026765D01*
X57027204Y-43045591D01*
X57043255Y-43065535D01*
X57081537Y-43090592D01*
X57127649Y-43121868D01*
X57194928Y-43176244D01*
X57276352Y-43247460D01*
X57364897Y-43329255D01*
X57453536Y-43415368D01*
X57507123Y-43469909D01*
X57560075Y-43522308D01*
X57603607Y-43560570D01*
X57629127Y-43577215D01*
X57630499Y-43577404D01*
X57654608Y-43592349D01*
X57668310Y-43607229D01*
X57688560Y-43629223D01*
X57695620Y-43638462D01*
X57729785Y-43678350D01*
X57756447Y-43698807D01*
X57759887Y-43699520D01*
X57783672Y-43712548D01*
X57832718Y-43752103D01*
X57907819Y-43818892D01*
X58009773Y-43913621D01*
X58044082Y-43946230D01*
X58116421Y-44014984D01*
X58139811Y-44036611D01*
X58188988Y-44082080D01*
X58268384Y-44151914D01*
X58323710Y-44198158D01*
X58355742Y-44225373D01*
X58413499Y-44275857D01*
X58492501Y-44345595D01*
X58588262Y-44430576D01*
X58696298Y-44526786D01*
X58812127Y-44630213D01*
X58931264Y-44736844D01*
X59049225Y-44842666D01*
X59161527Y-44943667D01*
X59263686Y-45035834D01*
X59351219Y-45115154D01*
X59419641Y-45177615D01*
X59461874Y-45216756D01*
X59486072Y-45238725D01*
X59533191Y-45280892D01*
X59595656Y-45336494D01*
X59644348Y-45379691D01*
X59729022Y-45455206D01*
X59819031Y-45536278D01*
X59899516Y-45609499D01*
X59926746Y-45634537D01*
X59972140Y-45676095D01*
X60043084Y-45740560D01*
X60134835Y-45823645D01*
X60242650Y-45921062D01*
X60361789Y-46028527D01*
X60487510Y-46141752D01*
X60554976Y-46202440D01*
X60676666Y-46312801D01*
X60788940Y-46416431D01*
X60888077Y-46509756D01*
X60970358Y-46589200D01*
X61032062Y-46651190D01*
X61069469Y-46692152D01*
X61079054Y-46705968D01*
X61091238Y-46758611D01*
X61097497Y-46825913D01*
X61097717Y-46839453D01*
X61095289Y-46881725D01*
X61084226Y-46917373D01*
X61058849Y-46955390D01*
X61013486Y-47004769D01*
X60960337Y-47057194D01*
X60896718Y-47117646D01*
X60811521Y-47196760D01*
X60713719Y-47286298D01*
X60612283Y-47378022D01*
X60558374Y-47426258D01*
X60477682Y-47498341D01*
X60372792Y-47592338D01*
X60249695Y-47702866D01*
X60114385Y-47824533D01*
X59972852Y-47951956D01*
X59831093Y-48079746D01*
X59754447Y-48148913D01*
X59607528Y-48281499D01*
X59438494Y-48433946D01*
X59255504Y-48598899D01*
X59066718Y-48769007D01*
X58880295Y-48936919D01*
X58704391Y-49095282D01*
X58594351Y-49194301D01*
X58443650Y-49329986D01*
X58288398Y-49469965D01*
X58134406Y-49608984D01*
X57987492Y-49741786D01*
X57853467Y-49863117D01*
X57738147Y-49967721D01*
X57647957Y-50049784D01*
X57566084Y-50123949D01*
X57458240Y-50220840D01*
X57329054Y-50336339D01*
X57183158Y-50466329D01*
X57025177Y-50606690D01*
X56859740Y-50753305D01*
X56691477Y-50902056D01*
X56528566Y-51045699D01*
X56372099Y-51183616D01*
X56222126Y-51316097D01*
X56081967Y-51440188D01*
X55954942Y-51552938D01*
X55844369Y-51651395D01*
X55753569Y-51732607D01*
X55685860Y-51793622D01*
X55644562Y-51831489D01*
X55638610Y-51837130D01*
X55579560Y-51889835D01*
X55541796Y-51911522D01*
X55521009Y-51902823D01*
X55512892Y-51864372D01*
X55512487Y-51855663D01*
X55512388Y-51831404D01*
X55512374Y-51768227D01*
X55512443Y-51667922D01*
X55512591Y-51532274D01*
X55512814Y-51363071D01*
X55513109Y-51162101D01*
X55513476Y-50931152D01*
X55513908Y-50672011D01*
X55514404Y-50386465D01*
X55514960Y-50076303D01*
X55515573Y-49743313D01*
X55516240Y-49389281D01*
X55516958Y-49015994D01*
X55517722Y-48625242D01*
X55518531Y-48218811D01*
X55519382Y-47798489D01*
X55520271Y-47366063D01*
X55521114Y-46961409D01*
X55527020Y-44147276D01*
X58126242Y-44147276D01*
X58133689Y-44164029D01*
X58139811Y-44160844D01*
X58142247Y-44136691D01*
X58139811Y-44133708D01*
X58127711Y-44136502D01*
X58126242Y-44147276D01*
X55527020Y-44147276D01*
X55527212Y-44055690D01*
X58004127Y-44055690D01*
X58019790Y-44066972D01*
X58031264Y-44071924D01*
X58055161Y-44067034D01*
X58058400Y-44055690D01*
X58044082Y-44037717D01*
X58031265Y-44039455D01*
X58006688Y-44052246D01*
X58004127Y-44055690D01*
X55527212Y-44055690D01*
X55527981Y-43689343D01*
X57658133Y-43689343D01*
X57668310Y-43699520D01*
X57678485Y-43689343D01*
X57668309Y-43679167D01*
X57658133Y-43689343D01*
X55527981Y-43689343D01*
X55531290Y-42112801D01*
X55594535Y-42049557D01*
X55672437Y-41998288D01*
X55762893Y-41981684D01*
X55856340Y-42000234D01*
G37*
G36*
X57956775Y-50491486D02*
G01*
X57997000Y-50532186D01*
X58055658Y-50594543D01*
X58128556Y-50674076D01*
X58211499Y-50766305D01*
X58239016Y-50797247D01*
X58333708Y-50903359D01*
X58428505Y-51008424D01*
X58516783Y-51105186D01*
X58591922Y-51186390D01*
X58647297Y-51244780D01*
X58650321Y-51247885D01*
X58706864Y-51307569D01*
X58750492Y-51356964D01*
X58774700Y-51388551D01*
X58777524Y-51394953D01*
X58785403Y-51414134D01*
X58811223Y-51448350D01*
X58858262Y-51501404D01*
X58929796Y-51577098D01*
X58972976Y-51621745D01*
X59026609Y-51681068D01*
X59068934Y-51735499D01*
X59091111Y-51773625D01*
X59091468Y-51774695D01*
X59108847Y-51805814D01*
X59123962Y-51809742D01*
X59145876Y-51816360D01*
X59163918Y-51839975D01*
X59175784Y-51872874D01*
X59163738Y-51881250D01*
X59151446Y-51893906D01*
X59155143Y-51903376D01*
X59183540Y-51917281D01*
X59207225Y-51915458D01*
X59238408Y-51915667D01*
X59245633Y-51925427D01*
X59258918Y-51951038D01*
X59292255Y-51991421D01*
X59307831Y-52007636D01*
X59345432Y-52054272D01*
X59359798Y-52092021D01*
X59358628Y-52099541D01*
X59364834Y-52128450D01*
X59387343Y-52139738D01*
X59426511Y-52166148D01*
X59439774Y-52189032D01*
X59456326Y-52216212D01*
X59468257Y-52217843D01*
X59493663Y-52221971D01*
X59521640Y-52250157D01*
X59541538Y-52287957D01*
X59543272Y-52319585D01*
X59546004Y-52358963D01*
X59561995Y-52383692D01*
X59582061Y-52410573D01*
X59576669Y-52438574D01*
X59561936Y-52462875D01*
X59538565Y-52507577D01*
X59530569Y-52537719D01*
X59516428Y-52555187D01*
X59475149Y-52599629D01*
X59408448Y-52669308D01*
X59318039Y-52762484D01*
X59205639Y-52877420D01*
X59072963Y-53012378D01*
X58921725Y-53165621D01*
X58753644Y-53335409D01*
X58570432Y-53520005D01*
X58373806Y-53717671D01*
X58165482Y-53926670D01*
X57947174Y-54145262D01*
X57720599Y-54371710D01*
X57701761Y-54390518D01*
X55872953Y-56216347D01*
X55766232Y-56216347D01*
X55697756Y-56212878D01*
X55650761Y-56197495D01*
X55606269Y-56162731D01*
X55590314Y-56147148D01*
X55521114Y-56077949D01*
X55519498Y-55602717D01*
X55519139Y-55493342D01*
X55518686Y-55348733D01*
X55518155Y-55174363D01*
X55517562Y-54975701D01*
X55516922Y-54758220D01*
X55516253Y-54527391D01*
X55515569Y-54288685D01*
X55514889Y-54047574D01*
X55514410Y-53875802D01*
X55510938Y-52624119D01*
X55633053Y-52509338D01*
X55708524Y-52439744D01*
X55789711Y-52366961D01*
X55859227Y-52306573D01*
X55860127Y-52305812D01*
X55894350Y-52276244D01*
X55955579Y-52222671D01*
X56040388Y-52148125D01*
X56145354Y-52055636D01*
X56267054Y-51948237D01*
X56402059Y-51828959D01*
X56546950Y-51700834D01*
X56698300Y-51566892D01*
X56852687Y-51430166D01*
X57006684Y-51293687D01*
X57156869Y-51160485D01*
X57299817Y-51033596D01*
X57432104Y-50916046D01*
X57550305Y-50810870D01*
X57650997Y-50721098D01*
X57730755Y-50649762D01*
X57734818Y-50646119D01*
X57807945Y-50581596D01*
X57870499Y-50528412D01*
X57916154Y-50491804D01*
X57938584Y-50477007D01*
X57939177Y-50476924D01*
X57956775Y-50491486D01*
G37*
G36*
X65385734Y-50629628D02*
G01*
X65556250Y-50629931D01*
X65693883Y-50630660D01*
X65802543Y-50631996D01*
X65886141Y-50634123D01*
X65948588Y-50637224D01*
X65993795Y-50641482D01*
X66025673Y-50647079D01*
X66048131Y-50654197D01*
X66065083Y-50663020D01*
X66077522Y-50671586D01*
X66150850Y-50746201D01*
X66189429Y-50833076D01*
X66191995Y-50924834D01*
X66157284Y-51014098D01*
X66140328Y-51038130D01*
X66118142Y-51064794D01*
X66094818Y-51086783D01*
X66066418Y-51104545D01*
X66028999Y-51118532D01*
X65978623Y-51129193D01*
X65911347Y-51136978D01*
X65823233Y-51142338D01*
X65710340Y-51145723D01*
X65568726Y-51147582D01*
X65394452Y-51148367D01*
X65183577Y-51148527D01*
X65173971Y-51148527D01*
X64961369Y-51148412D01*
X64785524Y-51147708D01*
X64642489Y-51145848D01*
X64528315Y-51142265D01*
X64439056Y-51136391D01*
X64370762Y-51127661D01*
X64319487Y-51115506D01*
X64281282Y-51099360D01*
X64252201Y-51078655D01*
X64228294Y-51052825D01*
X64205614Y-51021303D01*
X64196800Y-51008169D01*
X64159732Y-50936296D01*
X64154711Y-50870090D01*
X64181013Y-50794172D01*
X64186249Y-50783659D01*
X64226564Y-50724047D01*
X64276077Y-50674155D01*
X64279307Y-50671720D01*
X64294641Y-50661342D01*
X64312249Y-50652823D01*
X64336043Y-50645981D01*
X64369932Y-50640630D01*
X64417829Y-50636589D01*
X64483644Y-50633674D01*
X64571287Y-50631701D01*
X64684668Y-50630488D01*
X64827701Y-50629850D01*
X65004294Y-50629604D01*
X65178423Y-50629568D01*
X65385734Y-50629628D01*
G37*
G36*
X65728858Y-44517422D02*
G01*
X65931611Y-44519185D01*
X66097650Y-44521038D01*
X66230962Y-44523180D01*
X66335540Y-44525808D01*
X66415372Y-44529121D01*
X66474448Y-44533318D01*
X66516757Y-44538598D01*
X66546290Y-44545158D01*
X66567037Y-44553198D01*
X66578294Y-44559699D01*
X66653172Y-44629419D01*
X66691942Y-44717602D01*
X66698323Y-44776458D01*
X66681867Y-44874176D01*
X66629023Y-44954351D01*
X66566362Y-45002979D01*
X66548049Y-45013012D01*
X66526535Y-45021197D01*
X66497753Y-45027724D01*
X66457632Y-45032779D01*
X66402104Y-45036550D01*
X66327099Y-45039225D01*
X66228549Y-45040990D01*
X66102384Y-45042034D01*
X65944535Y-45042543D01*
X65750934Y-45042705D01*
X65703809Y-45042713D01*
X65474126Y-45042154D01*
X65277923Y-45040453D01*
X65116570Y-45037644D01*
X64991434Y-45033762D01*
X64903885Y-45028842D01*
X64855290Y-45022918D01*
X64849002Y-45021142D01*
X64794380Y-44991672D01*
X64739243Y-44949382D01*
X64735738Y-44946100D01*
X64701072Y-44905881D01*
X64684407Y-44860990D01*
X64679795Y-44794429D01*
X64679768Y-44786136D01*
X64684975Y-44710517D01*
X64704482Y-44655929D01*
X64732149Y-44617314D01*
X64787303Y-44569449D01*
X64852367Y-44535300D01*
X64859353Y-44533054D01*
X64904667Y-44526492D01*
X64990525Y-44521514D01*
X65116797Y-44518121D01*
X65283353Y-44516318D01*
X65490062Y-44516105D01*
X65728858Y-44517422D01*
G37*
G36*
X68584337Y-46569231D02*
G01*
X68645598Y-46620779D01*
X68710058Y-46697609D01*
X68739733Y-46786272D01*
X68731930Y-46878384D01*
X68730148Y-46884029D01*
X68697904Y-46945799D01*
X68650502Y-47001861D01*
X68645598Y-47006145D01*
X68584337Y-47057693D01*
X67978067Y-47057693D01*
X67804936Y-47057601D01*
X67667793Y-47057117D01*
X67561922Y-47055926D01*
X67482606Y-47053716D01*
X67425128Y-47050171D01*
X67384773Y-47044974D01*
X67356821Y-47037815D01*
X67336559Y-47028379D01*
X67319266Y-47016351D01*
X67315702Y-47013570D01*
X67269182Y-46963167D01*
X67229709Y-46897288D01*
X67206720Y-46833256D01*
X67204284Y-46809028D01*
X67212532Y-46773244D01*
X67231399Y-46722500D01*
X67232415Y-46720149D01*
X67268944Y-46661887D01*
X67315775Y-46613298D01*
X67333027Y-46600722D01*
X67352318Y-46590799D01*
X67378363Y-46583213D01*
X67415878Y-46577652D01*
X67469580Y-46573802D01*
X67544183Y-46571349D01*
X67644408Y-46569979D01*
X67774967Y-46569378D01*
X67940578Y-46569233D01*
X67978067Y-46569230D01*
X68584337Y-46569231D01*
G37*
G36*
X70724480Y-44869792D02*
G01*
X70743916Y-44888969D01*
X70744832Y-44892547D01*
X70731685Y-44893936D01*
X70724480Y-44890145D01*
X70705043Y-44870968D01*
X70704127Y-44867391D01*
X70717274Y-44866001D01*
X70724480Y-44869792D01*
G37*
G36*
X62434536Y-42026793D02*
G01*
X62436963Y-42058602D01*
X62432930Y-42065802D01*
X62423679Y-42059733D01*
X62422240Y-42039090D01*
X62427211Y-42017373D01*
X62434536Y-42026793D01*
G37*
G36*
X62414184Y-42189614D02*
G01*
X62416610Y-42221422D01*
X62412577Y-42228623D01*
X62403327Y-42222552D01*
X62401888Y-42201910D01*
X62406858Y-42180193D01*
X62414184Y-42189614D01*
G37*
G36*
X62373144Y-42017041D02*
G01*
X62375580Y-42041195D01*
X62373144Y-42044178D01*
X62361044Y-42041384D01*
X62359576Y-42030609D01*
X62367023Y-42013857D01*
X62373144Y-42017041D01*
G37*
G36*
X62250939Y-41984815D02*
G01*
X62253627Y-42026485D01*
X62250939Y-42035697D01*
X62243511Y-42038254D01*
X62240674Y-42010256D01*
X62243872Y-41981364D01*
X62250939Y-41984815D01*
G37*
G36*
X70989063Y-45032613D02*
G01*
X70978887Y-45042789D01*
X70968710Y-45032612D01*
X70978887Y-45022436D01*
X70989063Y-45032613D01*
G37*
G36*
X70846596Y-44951202D02*
G01*
X70836419Y-44961379D01*
X70826242Y-44951202D01*
X70836420Y-44941026D01*
X70846596Y-44951202D01*
G37*
G36*
X70846595Y-44829087D02*
G01*
X70836419Y-44839263D01*
X70826242Y-44829087D01*
X70836419Y-44818911D01*
X70846595Y-44829087D01*
G37*
G36*
X70826242Y-44503446D02*
G01*
X70816066Y-44513622D01*
X70805890Y-44503446D01*
X70816066Y-44493270D01*
X70826242Y-44503446D01*
G37*
G36*
X70805890Y-44645914D02*
G01*
X70795713Y-44656090D01*
X70785537Y-44645914D01*
X70795713Y-44635738D01*
X70805890Y-44645914D01*
G37*
G36*
X70785538Y-44523799D02*
G01*
X70775362Y-44533975D01*
X70765186Y-44523799D01*
X70775361Y-44513622D01*
X70785538Y-44523799D01*
G37*
G36*
X70785537Y-44462741D02*
G01*
X70775361Y-44472917D01*
X70765185Y-44462741D01*
X70775361Y-44452565D01*
X70785537Y-44462741D01*
G37*
G36*
X70765185Y-44706971D02*
G01*
X70755008Y-44717148D01*
X70744832Y-44706972D01*
X70755008Y-44696795D01*
X70765185Y-44706971D01*
G37*
G36*
X70765185Y-44605209D02*
G01*
X70755008Y-44615385D01*
X70744832Y-44605209D01*
X70755008Y-44595033D01*
X70765185Y-44605209D01*
G37*
G36*
X70724480Y-44768029D02*
G01*
X70714303Y-44778205D01*
X70704127Y-44768029D01*
X70714303Y-44757853D01*
X70724480Y-44768029D01*
G37*
G36*
X62705568Y-42162901D02*
G01*
X62695392Y-42173077D01*
X62685216Y-42162901D01*
X62695392Y-42152725D01*
X62705568Y-42162901D01*
G37*
G36*
X62685217Y-42101843D02*
G01*
X62675040Y-42112020D01*
X62664864Y-42101843D01*
X62675040Y-42091667D01*
X62685217Y-42101843D01*
G37*
G36*
X62542749Y-42285017D02*
G01*
X62532572Y-42295194D01*
X62522396Y-42285018D01*
X62532572Y-42274840D01*
X62542749Y-42285017D01*
G37*
G36*
X62542749Y-42203606D02*
G01*
X62532572Y-42213783D01*
X62522396Y-42203606D01*
X62532572Y-42193430D01*
X62542749Y-42203606D01*
G37*
G36*
X62481691Y-41939023D02*
G01*
X62471515Y-41949199D01*
X62461338Y-41939022D01*
X62471515Y-41928847D01*
X62481691Y-41939023D01*
G37*
G36*
X62420633Y-41959375D02*
G01*
X62410457Y-41969552D01*
X62400281Y-41959375D01*
X62410457Y-41949199D01*
X62420633Y-41959375D01*
G37*
G36*
X61932173Y-41124920D02*
G01*
X61921996Y-41135096D01*
X61911819Y-41124920D01*
X61921997Y-41114744D01*
X61932173Y-41124920D01*
G37*
G36*
X61810057Y-41287741D02*
G01*
X61799881Y-41297917D01*
X61789705Y-41287741D01*
X61799881Y-41277565D01*
X61810057Y-41287741D01*
G37*
G36*
X60141146Y-53112582D02*
G01*
X60130970Y-53122758D01*
X60120793Y-53112581D01*
X60130970Y-53102404D01*
X60141146Y-53112582D01*
G37*
D16*
%TO.C,R1*%
X61772500Y-88455276D02*
X61772500Y-88964724D01*
X60727500Y-88455276D02*
X60727500Y-88964724D01*
%TO.C,R4*%
X53245276Y-86482500D02*
X53754724Y-86482500D01*
X53245276Y-85437500D02*
X53754724Y-85437500D01*
%TO.C,R15*%
X34754724Y-46022500D02*
X34245276Y-46022500D01*
X34754724Y-44977500D02*
X34245276Y-44977500D01*
%TO.C,C20*%
X44740000Y-32396267D02*
X44740000Y-32103733D01*
X45760000Y-32396267D02*
X45760000Y-32103733D01*
%TO.C,R22*%
X45290276Y-17977500D02*
X45799724Y-17977500D01*
X45290276Y-19022500D02*
X45799724Y-19022500D01*
%TO.C,R16*%
X42004724Y-30727500D02*
X41495276Y-30727500D01*
X42004724Y-31772500D02*
X41495276Y-31772500D01*
%TO.C,R26*%
X22022500Y-81745276D02*
X22022500Y-82254724D01*
X20977500Y-81745276D02*
X20977500Y-82254724D01*
%TO.C,C16*%
X39240000Y-56146267D02*
X39240000Y-55853733D01*
X40260000Y-56146267D02*
X40260000Y-55853733D01*
%TO.C,R10*%
X27977500Y-86004724D02*
X27977500Y-85495276D01*
X29022500Y-86004724D02*
X29022500Y-85495276D01*
%TO.C,R25*%
X45290276Y-12477500D02*
X45799724Y-12477500D01*
X45290276Y-13522500D02*
X45799724Y-13522500D01*
%TO.C,C5*%
X53646267Y-83450000D02*
X53353733Y-83450000D01*
X53646267Y-84470000D02*
X53353733Y-84470000D01*
%TO.C,C12*%
X41648733Y-16240000D02*
X41941267Y-16240000D01*
X41648733Y-17260000D02*
X41941267Y-17260000D01*
%TO.C,D1*%
X39610000Y-33850000D02*
X39610000Y-32150000D01*
X39610000Y-33850000D02*
X36950000Y-33850000D01*
X39610000Y-32150000D02*
X36950000Y-32150000D01*
%TO.C,Q1*%
X57525000Y-86520001D02*
X58175000Y-86520000D01*
X57525000Y-86520001D02*
X56875000Y-86520000D01*
X57525000Y-83399999D02*
X58175000Y-83400000D01*
X57525000Y-83399999D02*
X56875000Y-83400000D01*
X58927500Y-86800000D02*
X58447500Y-86799999D01*
X58687500Y-86470000D01*
X58927500Y-86800000D01*
G36*
X58927500Y-86800000D02*
G01*
X58447500Y-86799999D01*
X58687500Y-86470000D01*
X58927500Y-86800000D01*
G37*
%TO.C,R18*%
X44727500Y-25004724D02*
X44727500Y-24495276D01*
X45772500Y-25004724D02*
X45772500Y-24495276D01*
%TO.C,R23*%
X22022500Y-60995276D02*
X22022500Y-61504724D01*
X20977500Y-60995276D02*
X20977500Y-61504724D01*
%TO.C,RV3*%
X-5920000Y-40120000D02*
X-5920000Y-33880000D01*
X4080000Y-33880000D02*
X-5920000Y-33880000D01*
X4080000Y-40120000D02*
X-5920000Y-40120000D01*
X4080000Y-40620000D02*
X4080000Y-33380000D01*
X9080000Y-33380000D02*
X4080000Y-33380000D01*
X9080000Y-40620000D02*
X4080000Y-40620000D01*
X9080000Y-46070000D02*
X9080000Y-27930000D01*
X19820000Y-27930000D02*
X9080000Y-27930000D01*
X19820000Y-46070000D02*
X9080000Y-46070000D01*
X19820000Y-46070000D02*
X19820000Y-27930000D01*
%TD*%
M02*
