%TF.GenerationSoftware,KiCad,Pcbnew,8.0.8*%
%TF.CreationDate,2025-03-23T00:17:45+01:00*%
%TF.ProjectId,am_receiver_v2,616d5f72-6563-4656-9976-65725f76322e,rev?*%
%TF.SameCoordinates,Original*%
%TF.FileFunction,Legend,Bot*%
%TF.FilePolarity,Positive*%
%FSLAX46Y46*%
G04 Gerber Fmt 4.6, Leading zero omitted, Abs format (unit mm)*
G04 Created by KiCad (PCBNEW 8.0.8) date 2025-03-23 00:17:45*
%MOMM*%
%LPD*%
G01*
G04 APERTURE LIST*
%ADD10C,0.300000*%
%ADD11C,0.000000*%
G04 APERTURE END LIST*
D10*
X70877742Y-86766917D02*
X70877742Y-86052632D01*
X70449171Y-86909774D02*
X71949171Y-86409774D01*
X71949171Y-86409774D02*
X70449171Y-85909774D01*
X70449171Y-85409775D02*
X71949171Y-85409775D01*
X71949171Y-85409775D02*
X70449171Y-84552632D01*
X70449171Y-84552632D02*
X71949171Y-84552632D01*
X71949171Y-84052631D02*
X71949171Y-83195489D01*
X70449171Y-83624060D02*
X71949171Y-83624060D01*
D11*
%TO.C,G\u002A\u002A\u002A*%
G36*
X37476670Y-30885449D02*
G01*
X37783799Y-30928953D01*
X38114270Y-31056684D01*
X38477753Y-31277004D01*
X38883913Y-31598285D01*
X39342420Y-32028891D01*
X39862939Y-32577190D01*
X40455138Y-33251548D01*
X41128686Y-34060333D01*
X41471549Y-34475788D01*
X42038978Y-35137282D01*
X42578769Y-35724720D01*
X43113348Y-36256745D01*
X43665142Y-36751999D01*
X44256580Y-37229123D01*
X44910087Y-37706758D01*
X45648092Y-38203548D01*
X46493021Y-38738135D01*
X47467301Y-39329160D01*
X47934718Y-39606637D01*
X48718078Y-40060224D01*
X49394458Y-40433780D01*
X49984935Y-40737942D01*
X50510584Y-40983350D01*
X50992484Y-41180643D01*
X51451708Y-41340461D01*
X52623949Y-41789307D01*
X53697994Y-42362407D01*
X54649209Y-43048340D01*
X55475095Y-43842699D01*
X56173150Y-44741074D01*
X56740875Y-45739060D01*
X57175768Y-46832245D01*
X57475330Y-48016223D01*
X57637060Y-49286586D01*
X57658458Y-50638924D01*
X57537023Y-52068830D01*
X57453802Y-52633671D01*
X57142165Y-54121197D01*
X56710959Y-55490469D01*
X56158672Y-56743050D01*
X55483793Y-57880500D01*
X54684811Y-58904381D01*
X53760212Y-59816258D01*
X52708488Y-60617691D01*
X51528126Y-61310239D01*
X50217613Y-61895470D01*
X48775438Y-62374940D01*
X47200092Y-62750215D01*
X47181175Y-62753942D01*
X46755370Y-62836507D01*
X46369255Y-62907714D01*
X45996812Y-62971189D01*
X45612034Y-63030561D01*
X45188906Y-63089458D01*
X44701418Y-63151508D01*
X44123557Y-63220340D01*
X43429310Y-63299581D01*
X42592666Y-63392859D01*
X41422713Y-63536892D01*
X40087665Y-63739739D01*
X38750444Y-63986970D01*
X37381331Y-64285125D01*
X35950605Y-64640743D01*
X34428545Y-65060362D01*
X32785432Y-65550520D01*
X32539531Y-65625926D01*
X32031022Y-65779815D01*
X31585125Y-65912026D01*
X31226597Y-66015366D01*
X30980197Y-66082643D01*
X30870684Y-66106666D01*
X30745872Y-66073851D01*
X30547368Y-65935964D01*
X30383920Y-65744655D01*
X30316000Y-65559568D01*
X30324147Y-65450108D01*
X30369115Y-65322822D01*
X30469534Y-65206567D01*
X30643386Y-65092052D01*
X30908647Y-64969984D01*
X31283296Y-64831072D01*
X31785309Y-64666023D01*
X32432666Y-64465544D01*
X33090373Y-64266300D01*
X33936162Y-64015296D01*
X34690420Y-63799393D01*
X35394010Y-63607537D01*
X36087797Y-63428682D01*
X36812650Y-63251776D01*
X37609430Y-63065772D01*
X38035691Y-62968593D01*
X38640769Y-62834463D01*
X39176952Y-62722663D01*
X39678157Y-62627654D01*
X40178302Y-62543897D01*
X40711308Y-62465856D01*
X41311091Y-62387991D01*
X42011570Y-62304764D01*
X42846666Y-62210638D01*
X43095970Y-62182787D01*
X44117405Y-62063932D01*
X44999753Y-61951992D01*
X45767415Y-61843075D01*
X46444790Y-61733286D01*
X47056280Y-61618731D01*
X47626284Y-61495518D01*
X48179203Y-61359754D01*
X49056228Y-61106064D01*
X50364511Y-60613304D01*
X51542157Y-60015663D01*
X52590998Y-59310901D01*
X53512863Y-58496773D01*
X54309582Y-57571038D01*
X54982986Y-56531453D01*
X55534904Y-55375777D01*
X55967168Y-54101767D01*
X56281608Y-52707180D01*
X56480053Y-51189774D01*
X56502093Y-50907077D01*
X56517582Y-49634987D01*
X56392443Y-48437675D01*
X56130180Y-47321600D01*
X55734297Y-46293229D01*
X55208297Y-45359019D01*
X54555684Y-44525435D01*
X53779962Y-43798937D01*
X52884634Y-43185988D01*
X51873203Y-42693050D01*
X51792396Y-42661106D01*
X51368840Y-42511095D01*
X50930308Y-42380064D01*
X50506009Y-42273953D01*
X50125152Y-42198704D01*
X49816947Y-42160259D01*
X49610605Y-42164557D01*
X49535333Y-42217540D01*
X49564609Y-42298092D01*
X49680151Y-42503605D01*
X49868261Y-42800764D01*
X50112662Y-43164840D01*
X50397077Y-43571106D01*
X50705228Y-43994831D01*
X50858904Y-44209015D01*
X51049664Y-44498383D01*
X51180250Y-44726782D01*
X51228666Y-44857944D01*
X51228073Y-44870859D01*
X51165616Y-45046315D01*
X51031671Y-45244245D01*
X50834676Y-45473265D01*
X50121504Y-45355233D01*
X49792462Y-45310089D01*
X49205364Y-45263219D01*
X48589594Y-45247687D01*
X47994008Y-45263027D01*
X47467462Y-45308774D01*
X47058809Y-45384458D01*
X46799491Y-45465191D01*
X46222585Y-45736228D01*
X45764820Y-46094069D01*
X45440687Y-46525527D01*
X45264675Y-47017414D01*
X45183744Y-47241053D01*
X45000210Y-47449028D01*
X44974136Y-47465717D01*
X44870311Y-47517047D01*
X44747217Y-47537610D01*
X44568393Y-47525710D01*
X44509117Y-47515636D01*
X44297376Y-47479651D01*
X43897704Y-47397738D01*
X43599229Y-47336890D01*
X43284187Y-47278130D01*
X43116856Y-47251960D01*
X43064082Y-47243705D01*
X42974134Y-47239644D01*
X42979771Y-47312606D01*
X43029183Y-47504990D01*
X43112581Y-47769692D01*
X43213282Y-48109819D01*
X43348519Y-48878422D01*
X43367496Y-49646509D01*
X43270894Y-50372582D01*
X43059392Y-51015142D01*
X42814990Y-51436734D01*
X42352276Y-51972573D01*
X41728928Y-52494577D01*
X40949716Y-53000044D01*
X40019413Y-53486273D01*
X38942789Y-53950560D01*
X37724617Y-54390207D01*
X36369666Y-54802511D01*
X35920360Y-54925493D01*
X35247993Y-55097668D01*
X34571071Y-55254685D01*
X33856835Y-55403228D01*
X33072528Y-55549980D01*
X32185391Y-55701624D01*
X31162666Y-55864844D01*
X30676156Y-55940992D01*
X30020325Y-56045118D01*
X29393099Y-56146255D01*
X28829171Y-56238751D01*
X28363240Y-56316953D01*
X28030000Y-56375210D01*
X27609273Y-56449086D01*
X27221002Y-56506503D01*
X26945506Y-56527402D01*
X26753818Y-56511684D01*
X26616972Y-56459249D01*
X26506000Y-56370000D01*
X26453647Y-56311457D01*
X26338514Y-56056676D01*
X26370549Y-55802647D01*
X26536957Y-55586475D01*
X26824940Y-55445258D01*
X26907807Y-55425511D01*
X27190546Y-55368164D01*
X27606087Y-55291303D01*
X28131177Y-55198861D01*
X28742563Y-55094768D01*
X29416992Y-54982954D01*
X30131209Y-54867350D01*
X30861963Y-54751885D01*
X31586000Y-54640492D01*
X32979580Y-54405441D01*
X34333409Y-54129366D01*
X35619254Y-53819121D01*
X36824447Y-53479200D01*
X37936322Y-53114098D01*
X38942211Y-52728311D01*
X39829445Y-52326334D01*
X40585359Y-51912662D01*
X41197284Y-51491790D01*
X41652552Y-51068214D01*
X41972149Y-50605071D01*
X42185718Y-50018112D01*
X42249012Y-49360515D01*
X42161639Y-48636922D01*
X41923209Y-47851984D01*
X41658396Y-47165635D01*
X38463698Y-44466974D01*
X38417233Y-44427718D01*
X37776575Y-43885344D01*
X37167650Y-43367840D01*
X36604436Y-42887224D01*
X36100916Y-42455513D01*
X35671068Y-42084724D01*
X35328874Y-41786874D01*
X35088313Y-41573982D01*
X34963365Y-41458064D01*
X34670450Y-41105995D01*
X34388396Y-40565502D01*
X34261992Y-39991278D01*
X34275630Y-39748532D01*
X35393697Y-39748532D01*
X35464869Y-40157241D01*
X35701317Y-40566814D01*
X36101525Y-40972251D01*
X36159620Y-41020903D01*
X36372346Y-41200013D01*
X36690579Y-41468689D01*
X37098155Y-41813254D01*
X37578910Y-42220035D01*
X38116682Y-42675358D01*
X38695306Y-43165549D01*
X39298618Y-43676932D01*
X42058237Y-46016702D01*
X42708166Y-46058412D01*
X42849992Y-46067182D01*
X43116856Y-46078189D01*
X43253067Y-46067973D01*
X43286182Y-46031708D01*
X43243752Y-45964561D01*
X43231826Y-45950419D01*
X42546703Y-45130673D01*
X41806511Y-44232240D01*
X41038958Y-43289522D01*
X40271753Y-42336918D01*
X39532605Y-41408831D01*
X38849221Y-40539662D01*
X38249311Y-39763811D01*
X38078275Y-39542859D01*
X37803527Y-39199363D01*
X37567664Y-38918443D01*
X37391438Y-38724511D01*
X37295602Y-38641977D01*
X37223887Y-38624418D01*
X37001603Y-38599831D01*
X36722575Y-38590317D01*
X36262743Y-38654533D01*
X35865706Y-38859581D01*
X35564876Y-39203059D01*
X35489319Y-39345695D01*
X35393697Y-39748532D01*
X34275630Y-39748532D01*
X34294977Y-39404165D01*
X34491089Y-38825014D01*
X34717452Y-38445447D01*
X35143091Y-37994327D01*
X35684821Y-37664126D01*
X36346962Y-37451645D01*
X36578258Y-37402212D01*
X36314958Y-36974295D01*
X36296897Y-36944624D01*
X35970383Y-36271538D01*
X35732964Y-35507930D01*
X35589723Y-34696853D01*
X35559595Y-34138166D01*
X36696116Y-34138166D01*
X36722983Y-34660020D01*
X36793008Y-35118666D01*
X36862564Y-35375605D01*
X37010650Y-35800784D01*
X37175446Y-36177000D01*
X37242728Y-36303001D01*
X37498166Y-36726516D01*
X37854644Y-37262678D01*
X38304180Y-37900986D01*
X38838794Y-38630942D01*
X39450502Y-39442046D01*
X40131328Y-40323801D01*
X40873288Y-41265705D01*
X41668401Y-42257262D01*
X42508688Y-43287971D01*
X43386167Y-44347333D01*
X43457666Y-44432982D01*
X43784549Y-44824624D01*
X44069557Y-45166202D01*
X44296025Y-45437738D01*
X44447289Y-45619252D01*
X44506685Y-45690766D01*
X44509117Y-45691863D01*
X44587269Y-45638531D01*
X44746942Y-45493619D01*
X44957017Y-45285152D01*
X45224855Y-45039554D01*
X45860370Y-44627739D01*
X46617955Y-44332936D01*
X47497281Y-44155254D01*
X48498026Y-44094803D01*
X49365718Y-44093333D01*
X49079300Y-43691166D01*
X48976414Y-43542727D01*
X48650748Y-43003388D01*
X48421828Y-42502358D01*
X48295835Y-42059556D01*
X48278948Y-41694900D01*
X48377345Y-41428311D01*
X48410895Y-41378406D01*
X48426542Y-41307730D01*
X48378534Y-41229735D01*
X48245936Y-41125412D01*
X48007813Y-40975752D01*
X47643229Y-40761748D01*
X46877847Y-40312234D01*
X45841951Y-39682055D01*
X44926657Y-39092426D01*
X44111355Y-38526628D01*
X43375433Y-37967944D01*
X42698281Y-37399656D01*
X42059286Y-36805045D01*
X41437839Y-36167394D01*
X40813329Y-35469985D01*
X40165144Y-34696099D01*
X40154453Y-34682993D01*
X39569922Y-33976296D01*
X39073587Y-33398152D01*
X38656279Y-32938847D01*
X38308830Y-32588668D01*
X38022065Y-32337901D01*
X37786819Y-32176833D01*
X37627818Y-32089432D01*
X37482062Y-32033434D01*
X37373394Y-32055953D01*
X37236837Y-32154331D01*
X37185350Y-32201112D01*
X37016327Y-32419590D01*
X36876963Y-32682915D01*
X36855653Y-32739624D01*
X36764336Y-33123341D01*
X36710529Y-33607730D01*
X36696116Y-34138166D01*
X35559595Y-34138166D01*
X35545746Y-33881360D01*
X35606115Y-33104502D01*
X35775915Y-32409333D01*
X35953288Y-32006939D01*
X36261361Y-31548678D01*
X36631135Y-31194571D01*
X37038708Y-30966247D01*
X37460178Y-30885333D01*
X37476670Y-30885449D01*
G37*
G36*
X52754749Y-48288599D02*
G01*
X53167767Y-48456628D01*
X53520631Y-48738848D01*
X53776023Y-49121171D01*
X53783770Y-49138391D01*
X53914541Y-49556212D01*
X53902901Y-49944317D01*
X53747499Y-50361210D01*
X53681470Y-50479432D01*
X53376550Y-50836197D01*
X52999961Y-51065833D01*
X52582796Y-51168796D01*
X52450469Y-51161583D01*
X52156147Y-51145538D01*
X51751104Y-50996516D01*
X51398759Y-50722181D01*
X51130203Y-50322988D01*
X51016430Y-49952715D01*
X51017669Y-49689241D01*
X52167074Y-49689241D01*
X52181796Y-49872772D01*
X52282054Y-49987484D01*
X52450469Y-50019498D01*
X52643379Y-49951890D01*
X52739541Y-49769879D01*
X52743180Y-49698102D01*
X52673384Y-49504721D01*
X52515497Y-49403766D01*
X52317637Y-49433593D01*
X52233108Y-49511305D01*
X52167074Y-49689241D01*
X51017669Y-49689241D01*
X51018586Y-49494268D01*
X51162656Y-49057460D01*
X51436345Y-48676470D01*
X51827353Y-48385478D01*
X51897514Y-48351469D01*
X52318892Y-48248850D01*
X52754749Y-48288599D01*
G37*
G36*
X45603596Y-40548938D02*
G01*
X45792332Y-40630505D01*
X45969455Y-40814656D01*
X46168774Y-41130000D01*
X46239676Y-41242503D01*
X46477772Y-41542340D01*
X46737193Y-41793893D01*
X46839553Y-41878209D01*
X46998783Y-42038816D01*
X47062702Y-42187988D01*
X47063483Y-42383900D01*
X47047714Y-42483735D01*
X46913743Y-42739291D01*
X46679692Y-42879414D01*
X46381005Y-42878420D01*
X46342237Y-42865911D01*
X46120187Y-42735612D01*
X45850146Y-42512854D01*
X45571514Y-42236064D01*
X45323694Y-41943667D01*
X45146088Y-41674092D01*
X45031670Y-41401354D01*
X44978383Y-41062463D01*
X45038316Y-40788110D01*
X45204075Y-40604374D01*
X45468273Y-40537333D01*
X45603596Y-40548938D01*
G37*
%TD*%
M02*
