M48
; DRILL file {KiCad 8.0.8} date 2025-03-23T00:17:50+0100
; FORMAT={-:-/ absolute / metric / decimal}
; #@! TF.CreationDate,2025-03-23T00:17:50+01:00
; #@! TF.GenerationSoftware,Kicad,Pcbnew,8.0.8
; #@! TF.FileFunction,Plated,1,2,PTH
FMAT,2
METRIC
; #@! TA.AperFunction,Plated,PTH,ViaDrill
T1C0.350
; #@! TA.AperFunction,Plated,PTH,ComponentDrill
T2C0.800
; #@! TA.AperFunction,Plated,PTH,ComponentDrill
T3C1.000
; #@! TA.AperFunction,Plated,PTH,ComponentDrill
T4C1.200
%
G90
G05
T1
X1.0Y-5.0
X1.0Y-10.0
X1.0Y-15.0
X1.0Y-20.0
X1.0Y-25.0
X1.0Y-30.0
X1.0Y-35.0
X1.0Y-40.0
X1.0Y-45.0
X1.0Y-50.0
X1.0Y-55.0
X1.0Y-60.0
X1.0Y-65.0
X1.0Y-70.0
X1.0Y-75.0
X1.0Y-80.0
X1.0Y-85.0
X1.0Y-90.0
X1.0Y-95.0
X2.0Y-2.0
X2.0Y-98.0
X5.0Y-1.0
X5.0Y-99.0
X8.5Y-8.25
X8.5Y-10.25
X8.75Y-4.25
X8.75Y-5.75
X9.5Y-12.5
X10.0Y-1.0
X10.0Y-3.75
X10.0Y-5.0
X10.0Y-6.25
X10.0Y-99.0
X15.0Y-1.0
X15.0Y-99.0
X15.75Y-13.5
X16.0Y-24.0
X16.75Y-31.0
X16.75Y-33.25
X16.75Y-39.5
X16.75Y-45.0
X16.75Y-50.5
X16.75Y-54.25
X16.75Y-58.25
X16.75Y-62.5
X16.75Y-67.5
X16.75Y-79.0
X16.75Y-84.0
X16.75Y-87.5
X16.75Y-91.0
X19.0Y-24.0
X20.0Y-1.0
X20.0Y-99.0
X20.75Y-42.25
X21.0Y-34.75
X22.25Y-90.5
X22.75Y-24.0
X23.5Y-39.75
X23.75Y-87.75
X24.5Y-31.5
X24.75Y-76.25
X24.75Y-78.75
X24.75Y-81.25
X25.0Y-1.0
X25.0Y-99.0
X25.5Y-90.5
X26.0Y-58.75
X26.25Y-12.0
X26.5Y-24.0
X26.5Y-37.0
X27.0Y-87.75
X27.5Y-28.75
X28.493Y-69.132
X28.5Y-57.0
X28.5Y-60.25
X28.5Y-63.25
X28.5Y-66.25
X28.5Y-72.25
X28.5Y-75.5
X28.5Y-78.75
X28.75Y-90.5
X29.25Y-34.25
X29.5Y-24.0
X30.0Y-1.0
X30.0Y-26.5
X30.0Y-99.0
X30.25Y-81.25
X30.25Y-83.75
X30.25Y-88.5
X31.0Y-53.25
X31.0Y-58.0
X31.25Y-38.25
X31.25Y-40.75
X31.25Y-43.5
X31.5Y-66.5
X31.5Y-69.75
X31.5Y-73.25
X31.75Y-23.75
X31.75Y-31.75
X32.0Y-77.0
X32.25Y-47.25
X32.25Y-49.5
X32.5Y-63.25
X33.5Y-22.0
X33.75Y-29.75
X34.25Y-40.75
X34.25Y-55.5
X34.25Y-69.75
X34.25Y-83.75
X34.75Y-34.5
X35.0Y-1.0
X35.0Y-99.0
X35.5Y-20.0
X35.5Y-51.0
X36.0Y-27.5
X36.75Y-11.25
X36.75Y-14.75
X36.75Y-18.25
X36.75Y-63.5
X36.75Y-77.75
X37.0Y-46.75
X37.0Y-61.5
X37.0Y-75.75
X37.0Y-89.75
X37.25Y-92.75
X37.75Y-8.75
X38.25Y-35.25
X38.75Y-90.25
X39.0Y-63.5
X39.0Y-65.0
X39.0Y-77.75
X39.25Y-26.5
X39.25Y-43.75
X39.25Y-47.25
X39.25Y-49.0
X39.25Y-50.75
X39.25Y-53.0
X39.25Y-58.5
X39.25Y-72.75
X39.25Y-86.75
X39.75Y-6.75
X39.75Y-61.75
X39.75Y-67.25
X39.75Y-79.5
X39.75Y-81.25
X40.0Y-1.0
X40.0Y-99.0
X40.25Y-43.75
X40.25Y-58.5
X40.25Y-72.75
X40.25Y-86.75
X41.25Y-38.5
X41.25Y-77.75
X41.25Y-90.25
X41.25Y-92.75
X41.75Y-21.75
X42.5Y-86.75
X42.5Y-88.75
X42.75Y-26.5
X43.0Y-42.0
X43.0Y-71.5
X43.0Y-79.75
X43.0Y-81.25
X43.25Y-60.25
X43.25Y-64.25
X43.25Y-67.25
X43.5Y-48.25
X43.5Y-51.0
X43.5Y-53.75
X43.5Y-56.5
X43.545Y-13.0
X43.545Y-14.5
X44.0Y-6.75
X44.5Y-90.25
X44.5Y-92.75
X45.0Y-1.0
X45.0Y-99.0
X45.75Y-86.75
X45.75Y-88.75
X46.25Y-84.0
X46.363Y-31.387
X46.5Y-43.5
X46.5Y-48.25
X46.5Y-51.0
X46.5Y-53.75
X46.5Y-56.75
X46.5Y-60.25
X46.5Y-64.25
X46.5Y-67.5
X46.5Y-71.5
X46.5Y-74.25
X47.25Y-6.75
X47.5Y-74.25
X47.5Y-92.0
X47.75Y-82.5
X48.25Y-86.75
X48.25Y-88.75
X48.75Y-32.5
X49.033Y-21.987
X49.75Y-6.75
X50.0Y-1.0
X50.0Y-76.25
X50.0Y-80.0
X50.0Y-82.5
X50.0Y-85.5
X50.0Y-87.5
X50.0Y-90.0
X50.0Y-92.5
X50.0Y-95.0
X50.0Y-97.5
X50.25Y-12.75
X50.295Y-15.835
X51.0Y-54.75
X51.25Y-27.5
X51.25Y-30.0
X51.25Y-32.5
X51.75Y-12.75
X51.795Y-15.835
X52.25Y-6.75
X52.5Y-76.25
X52.5Y-80.0
X52.5Y-97.5
X52.75Y-65.5
X53.0Y-37.5
X53.5Y-71.25
X53.75Y-32.5
X54.5Y-92.0
X55.0Y-1.0
X55.0Y-6.75
X55.0Y-76.25
X55.0Y-80.0
X55.0Y-97.5
X55.75Y-91.25
X56.0Y-21.75
X56.25Y-37.0
X56.25Y-63.5
X56.5Y-28.0
X57.5Y-12.75
X57.5Y-13.75
X57.5Y-15.08
X57.5Y-16.08
X57.5Y-76.25
X57.5Y-80.0
X57.5Y-97.5
X57.75Y-6.75
X58.0Y-71.0
X60.0Y-1.0
X60.0Y-23.5
X60.0Y-26.5
X60.0Y-76.25
X60.0Y-80.0
X60.0Y-87.0
X60.0Y-88.75
X60.0Y-91.0
X60.0Y-97.5
X60.5Y-57.75
X60.75Y-6.75
X61.25Y-91.0
X62.5Y-33.0
X62.5Y-76.25
X62.5Y-80.0
X62.5Y-92.5
X62.5Y-95.0
X62.5Y-97.5
X62.75Y-37.75
X63.25Y-62.0
X63.25Y-63.25
X63.25Y-64.5
X63.25Y-69.0
X63.25Y-72.5
X63.25Y-74.25
X63.25Y-87.5
X63.5Y-8.0
X63.75Y-23.5
X63.75Y-26.5
X64.75Y-11.25
X64.75Y-13.75
X64.75Y-16.25
X64.75Y-87.5
X65.0Y-1.0
X65.0Y-80.0
X65.0Y-92.5
X65.0Y-99.0
X65.75Y-18.0
X65.75Y-19.0
X66.25Y-87.5
X67.5Y-80.0
X67.5Y-90.0
X67.5Y-92.5
X68.75Y-23.5
X68.75Y-26.5
X69.5Y-76.0
X70.0Y-1.0
X70.0Y-33.5
X70.0Y-80.0
X70.0Y-90.0
X70.0Y-99.0
X70.25Y-51.0
X70.5Y-40.25
X70.75Y-56.25
X71.75Y-62.25
X71.75Y-65.0
X71.75Y-67.75
X71.75Y-70.5
X72.5Y-80.0
X72.5Y-82.5
X72.5Y-85.0
X72.5Y-87.5
X72.5Y-90.0
X74.0Y-74.5
X75.0Y-1.0
X75.0Y-99.0
X78.0Y-2.0
X78.0Y-98.0
X79.0Y-5.0
X79.0Y-10.0
X79.0Y-15.0
X79.0Y-20.0
X79.0Y-25.0
X79.0Y-30.0
X79.0Y-35.0
X79.0Y-40.0
X79.0Y-45.0
X79.0Y-50.0
X79.0Y-55.0
X79.0Y-60.0
X79.0Y-65.0
X79.0Y-70.0
X79.0Y-75.0
X79.0Y-80.0
X79.0Y-85.0
X79.0Y-90.0
X79.0Y-95.0
T3
X13.0Y-5.0
X15.54Y-5.0
X60.75Y-12.75
X60.75Y-15.29
X68.775Y-83.96
X68.775Y-86.5
T4
X13.0Y-32.0
X13.0Y-37.0
X13.0Y-42.0
X13.0Y-56.0
X13.0Y-61.0
X13.0Y-66.0
X13.0Y-81.0
X13.0Y-86.0
X13.0Y-91.0
T2
G00X13.5Y-18.1
M15
G01X13.5Y-19.4
M16
G05
G00X18.0Y-18.1
M15
G01X18.0Y-19.4
M16
G05
G00X22.5Y-18.1
M15
G01X22.5Y-19.4
M16
G05
M30
