%TF.GenerationSoftware,KiCad,Pcbnew,8.0.8*%
%TF.CreationDate,2025-03-23T00:17:45+01:00*%
%TF.ProjectId,am_receiver_v2,616d5f72-6563-4656-9976-65725f76322e,rev?*%
%TF.SameCoordinates,Original*%
%TF.FileFunction,Copper,L2,Bot*%
%TF.FilePolarity,Positive*%
%FSLAX46Y46*%
G04 Gerber Fmt 4.6, Leading zero omitted, Abs format (unit mm)*
G04 Created by KiCad (PCBNEW 8.0.8) date 2025-03-23 00:17:45*
%MOMM*%
%LPD*%
G01*
G04 APERTURE LIST*
G04 Aperture macros list*
%AMRoundRect*
0 Rectangle with rounded corners*
0 $1 Rounding radius*
0 $2 $3 $4 $5 $6 $7 $8 $9 X,Y pos of 4 corners*
0 Add a 4 corners polygon primitive as box body*
4,1,4,$2,$3,$4,$5,$6,$7,$8,$9,$2,$3,0*
0 Add four circle primitives for the rounded corners*
1,1,$1+$1,$2,$3*
1,1,$1+$1,$4,$5*
1,1,$1+$1,$6,$7*
1,1,$1+$1,$8,$9*
0 Add four rect primitives between the rounded corners*
20,1,$1+$1,$2,$3,$4,$5,0*
20,1,$1+$1,$4,$5,$6,$7,0*
20,1,$1+$1,$6,$7,$8,$9,0*
20,1,$1+$1,$8,$9,$2,$3,0*%
G04 Aperture macros list end*
%TA.AperFunction,ComponentPad*%
%ADD10RoundRect,0.500000X-0.600000X-1.500000X0.600000X-1.500000X0.600000X1.500000X-0.600000X1.500000X0*%
%TD*%
%TA.AperFunction,ComponentPad*%
%ADD11R,1.700000X1.700000*%
%TD*%
%TA.AperFunction,ComponentPad*%
%ADD12O,1.700000X1.700000*%
%TD*%
%TA.AperFunction,ComponentPad*%
%ADD13R,3.000000X3.000000*%
%TD*%
%TA.AperFunction,ComponentPad*%
%ADD14C,3.000000*%
%TD*%
%TA.AperFunction,ViaPad*%
%ADD15C,0.850000*%
%TD*%
%TA.AperFunction,Conductor*%
%ADD16C,0.203200*%
%TD*%
%TA.AperFunction,Conductor*%
%ADD17C,1.016000*%
%TD*%
%TA.AperFunction,Conductor*%
%ADD18C,0.508000*%
%TD*%
%TA.AperFunction,Conductor*%
%ADD19C,0.254000*%
%TD*%
G04 APERTURE END LIST*
D10*
%TO.P,SW1,1,A*%
%TO.N,VCC*%
X13500000Y-18750000D03*
%TO.P,SW1,2,B*%
%TO.N,Net-(J6-Pin_1)*%
X18000000Y-18750000D03*
%TO.P,SW1,3,C*%
%TO.N,unconnected-(SW1-C-Pad3)*%
X22500000Y-18750000D03*
%TD*%
D11*
%TO.P,J1,1,Pin_1*%
%TO.N,/am_receiver_v2_rf/RF_IN*%
X68775000Y-83960000D03*
D12*
%TO.P,J1,2,Pin_2*%
%TO.N,GND*%
X68775000Y-86500000D03*
%TD*%
D11*
%TO.P,J2,1,Pin_1*%
%TO.N,/am_receiver_v2_audio/SPK-*%
X60750000Y-12750000D03*
D12*
%TO.P,J2,2,Pin_2*%
%TO.N,/am_receiver_v2_audio/SPK+*%
X60750000Y-15290000D03*
%TD*%
D11*
%TO.P,J6,1,Pin_1*%
%TO.N,Net-(J6-Pin_1)*%
X15540000Y-5000000D03*
D12*
%TO.P,J6,2,Pin_2*%
%TO.N,GND*%
X13000000Y-5000000D03*
%TD*%
D13*
%TO.P,RV2,1,1*%
%TO.N,Net-(R27-Pad1)*%
X13000000Y-56000000D03*
D14*
%TO.P,RV2,2,2*%
%TO.N,Net-(R23-Pad1)*%
X13000000Y-61000000D03*
%TO.P,RV2,3,3*%
%TO.N,Net-(C7-Pad2)*%
X13000000Y-66000000D03*
%TD*%
%TO.P,RV1,3,3*%
%TO.N,Net-(C6-Pad2)*%
X13000000Y-91000000D03*
%TO.P,RV1,2,2*%
%TO.N,Net-(R24-Pad1)*%
X13000000Y-86000000D03*
D13*
%TO.P,RV1,1,1*%
%TO.N,Net-(R26-Pad1)*%
X13000000Y-81000000D03*
%TD*%
%TO.P,RV3,1,1*%
%TO.N,GND*%
X13000000Y-32000000D03*
D14*
%TO.P,RV3,2,2*%
%TO.N,Net-(C13-Pad1)*%
X13000000Y-37000000D03*
%TO.P,RV3,3,3*%
%TO.N,/am_receiver_v2_audio/INPUT*%
X13000000Y-42000000D03*
%TD*%
D15*
%TO.N,GND*%
X43500000Y-51000000D03*
X46500000Y-51000000D03*
X46500000Y-60250000D03*
X43250000Y-60250000D03*
X32250000Y-49500000D03*
X32250000Y-47250000D03*
X36750000Y-63500000D03*
X36750000Y-77750000D03*
X39750000Y-79500000D03*
X39000000Y-65000000D03*
X39000000Y-63500000D03*
X39250000Y-53000000D03*
X39250000Y-50750000D03*
X39250000Y-49000000D03*
X34750000Y-34500000D03*
X38250000Y-35250000D03*
X32000000Y-77000000D03*
X31500000Y-73250000D03*
X31500000Y-69750000D03*
X31500000Y-66500000D03*
X32500000Y-63250000D03*
X35500000Y-51000000D03*
X1000000Y-5000000D03*
X1000000Y-10000000D03*
X1000000Y-15000000D03*
X1000000Y-20000000D03*
X1000000Y-25000000D03*
X1000000Y-30000000D03*
X1000000Y-35000000D03*
X1000000Y-40000000D03*
X1000000Y-45000000D03*
X1000000Y-50000000D03*
X1000000Y-55000000D03*
X1000000Y-60000000D03*
X1000000Y-65000000D03*
X1000000Y-70000000D03*
X1000000Y-75000000D03*
X1000000Y-80000000D03*
X1000000Y-85000000D03*
X1000000Y-90000000D03*
X1000000Y-95000000D03*
X2000000Y-98000000D03*
X5000000Y-99000000D03*
X10000000Y-99000000D03*
X15000000Y-99000000D03*
X20000000Y-99000000D03*
X25000000Y-99000000D03*
X30000000Y-99000000D03*
X35000000Y-99000000D03*
X40000000Y-99000000D03*
X45000000Y-99000000D03*
X65000000Y-99000000D03*
X70000000Y-99000000D03*
X75000000Y-99000000D03*
X78000000Y-98000000D03*
X79000000Y-95000000D03*
X79000000Y-90000000D03*
X79000000Y-85000000D03*
X79000000Y-80000000D03*
X79000000Y-75000000D03*
X79000000Y-70000000D03*
X79000000Y-65000000D03*
X79000000Y-60000000D03*
X79000000Y-55000000D03*
X79000000Y-50000000D03*
X79000000Y-45000000D03*
X79000000Y-40000000D03*
X79000000Y-35000000D03*
X79000000Y-30000000D03*
X79000000Y-25000000D03*
X79000000Y-20000000D03*
X79000000Y-15000000D03*
X79000000Y-10000000D03*
X79000000Y-5000000D03*
X78000000Y-2000000D03*
X75000000Y-1000000D03*
X70000000Y-1000000D03*
X65000000Y-1000000D03*
X60000000Y-1000000D03*
X55000000Y-1000000D03*
X50000000Y-1000000D03*
X45000000Y-1000000D03*
X40000000Y-1000000D03*
X35000000Y-1000000D03*
X30000000Y-1000000D03*
X25000000Y-1000000D03*
X20000000Y-1000000D03*
X15000000Y-1000000D03*
X10000000Y-1000000D03*
X5000000Y-1000000D03*
X2000000Y-2000000D03*
X53500000Y-71250000D03*
X51000000Y-54750000D03*
X70250000Y-51000000D03*
X70750000Y-56250000D03*
X70500000Y-40250000D03*
X70000000Y-33500000D03*
X62750000Y-37750000D03*
X53000000Y-37500000D03*
X52750000Y-65500000D03*
X58000000Y-71000000D03*
X60500000Y-57750000D03*
X62500000Y-33000000D03*
X56250000Y-63500000D03*
X56250000Y-37000000D03*
X56000000Y-21750000D03*
X49032629Y-21986966D03*
X41750000Y-21750000D03*
X30000000Y-26500000D03*
X27500000Y-28750000D03*
X24500000Y-31500000D03*
X21000000Y-34750000D03*
X20750000Y-42250000D03*
X23500000Y-39750000D03*
X26500000Y-37000000D03*
X29250000Y-34250000D03*
X31750000Y-31750000D03*
X33750000Y-29750000D03*
X36000000Y-27500000D03*
X39250000Y-26500000D03*
X42750000Y-26500000D03*
X31250000Y-40750000D03*
X69500000Y-76000000D03*
X74000000Y-74500000D03*
X71750000Y-70500000D03*
X71750000Y-67750000D03*
X71750000Y-65000000D03*
X71750000Y-62250000D03*
X26000000Y-58750000D03*
X28500000Y-57000000D03*
X28500000Y-60250000D03*
X28500000Y-63250000D03*
X28500000Y-66250000D03*
X28493137Y-69131797D03*
X28500000Y-72250000D03*
X28500000Y-75500000D03*
X16750000Y-91000000D03*
X16750000Y-87500000D03*
X16750000Y-84000000D03*
X16750000Y-79000000D03*
X16750000Y-67500000D03*
X16750000Y-62500000D03*
X16750000Y-58250000D03*
X16750000Y-50500000D03*
X16750000Y-54250000D03*
X16750000Y-45000000D03*
X16750000Y-39500000D03*
X16750000Y-33250000D03*
X16750000Y-31000000D03*
X26250000Y-12000000D03*
X8750000Y-5750000D03*
X8750000Y-4250000D03*
X10000000Y-6250000D03*
X10000000Y-5000000D03*
X10000000Y-3750000D03*
X9500000Y-12500000D03*
X8500000Y-10250000D03*
X8500000Y-8250000D03*
X15750000Y-13500000D03*
X16000000Y-24000000D03*
X19000000Y-24000000D03*
X22750000Y-24000000D03*
X26500000Y-24000000D03*
X29500000Y-24000000D03*
X31750000Y-23750000D03*
X33500000Y-22000000D03*
X35500000Y-20000000D03*
X36750000Y-18250000D03*
X36750000Y-14750000D03*
X36750000Y-11250000D03*
X37750000Y-8750000D03*
X39750000Y-6750000D03*
X44000000Y-6750000D03*
X47250000Y-6750000D03*
X49750000Y-6750000D03*
X52250000Y-6750000D03*
X55000000Y-6750000D03*
X57750000Y-6750000D03*
X60750000Y-6750000D03*
X63500000Y-8000000D03*
X64750000Y-11250000D03*
X64750000Y-13750000D03*
X64750000Y-16250000D03*
X68750000Y-26500000D03*
X68750000Y-23500000D03*
X60000000Y-26500000D03*
X63750000Y-26500000D03*
X63750000Y-23500000D03*
X60000000Y-23500000D03*
X43500000Y-48250000D03*
X46500000Y-43500000D03*
X46500000Y-48250000D03*
X31000000Y-58000000D03*
X31000000Y-53250000D03*
X31250000Y-43500000D03*
X31250000Y-38250000D03*
X41250000Y-38500000D03*
X43000000Y-42000000D03*
X39250000Y-47250000D03*
X39750000Y-61750000D03*
X46500000Y-71500000D03*
X46500000Y-67500000D03*
X46500000Y-64250000D03*
X46500000Y-56750000D03*
X46500000Y-53750000D03*
X43500000Y-53750000D03*
X43500000Y-56500000D03*
X43250000Y-64250000D03*
X43250000Y-67250000D03*
X39750000Y-67250000D03*
X39750000Y-81250000D03*
X43000000Y-81250000D03*
X43000000Y-79750000D03*
X41250000Y-77750000D03*
X39000000Y-77750000D03*
%TO.N,VCC*%
X65750000Y-19000000D03*
X65750000Y-18000000D03*
X43545000Y-13000000D03*
%TO.N,GND*%
X43545000Y-14500000D03*
X51795000Y-15835000D03*
X50295000Y-15835000D03*
X51750000Y-12750000D03*
X50250000Y-12750000D03*
%TO.N,VCC*%
X57500000Y-16080000D03*
%TO.N,GND*%
X57500000Y-13750000D03*
X55000000Y-76250000D03*
X60000000Y-76250000D03*
X57500000Y-76250000D03*
X62500000Y-76250000D03*
X52500000Y-76250000D03*
X50000000Y-76250000D03*
X43000000Y-71500000D03*
X47500000Y-74250000D03*
X46500000Y-74250000D03*
X47750000Y-82500000D03*
X45750000Y-88750000D03*
X45750000Y-86750000D03*
X44500000Y-92750000D03*
X44500000Y-90250000D03*
X28750000Y-90500000D03*
X22250000Y-90500000D03*
X25500000Y-90500000D03*
X24750000Y-76250000D03*
X24750000Y-78750000D03*
X24750000Y-81250000D03*
X28500000Y-78750000D03*
X23750000Y-87750000D03*
X27000000Y-87750000D03*
X30250000Y-81250000D03*
%TO.N,Net-(C6-Pad2)*%
X30250000Y-83750000D03*
X30250000Y-88500000D03*
%TO.N,GND*%
X53750000Y-32500000D03*
X51250000Y-32500000D03*
X48750000Y-32500000D03*
X51250000Y-27500000D03*
X51250000Y-30000000D03*
%TO.N,/am_receiver_v2_bpf/Vcom2*%
X56500000Y-28000000D03*
X46362501Y-31387499D03*
%TO.N,GND*%
X60000000Y-91000000D03*
X60000000Y-87000000D03*
X60000000Y-88750000D03*
X61250000Y-91000000D03*
X63250000Y-87500000D03*
X64750000Y-87500000D03*
X66250000Y-87500000D03*
X55750000Y-91250000D03*
X54500000Y-92000000D03*
X38750000Y-90250000D03*
X37250000Y-92750000D03*
X41250000Y-92750000D03*
X41250000Y-90250000D03*
X47500000Y-92000000D03*
X42500000Y-88750000D03*
X48250000Y-88750000D03*
X48250000Y-86750000D03*
X42500000Y-86750000D03*
X46250000Y-84000000D03*
X63250000Y-69000000D03*
X50000000Y-82500000D03*
X50000000Y-85500000D03*
X50000000Y-87500000D03*
X50000000Y-90000000D03*
X50000000Y-92500000D03*
X50000000Y-95000000D03*
X50000000Y-97500000D03*
X52500000Y-97500000D03*
X55000000Y-97500000D03*
X57500000Y-97500000D03*
X60000000Y-97500000D03*
X62500000Y-97500000D03*
X62500000Y-95000000D03*
X62500000Y-92500000D03*
X65000000Y-92500000D03*
X67500000Y-92500000D03*
X67500000Y-90000000D03*
X70000000Y-90000000D03*
X72500000Y-90000000D03*
X72500000Y-87500000D03*
X72500000Y-85000000D03*
X72500000Y-82500000D03*
X72500000Y-80000000D03*
X70000000Y-80000000D03*
X67500000Y-80000000D03*
X65000000Y-80000000D03*
X62500000Y-80000000D03*
X60000000Y-80000000D03*
X57500000Y-80000000D03*
X55000000Y-80000000D03*
X52500000Y-80000000D03*
X50000000Y-80000000D03*
%TO.N,/am_receiver_v2_bpf/Vcom*%
X37000000Y-89750000D03*
X37000000Y-75750000D03*
X37000000Y-61500000D03*
X37000000Y-46750000D03*
%TO.N,GND*%
X40250000Y-43750000D03*
X39250000Y-43750000D03*
X40250000Y-58500000D03*
X39250000Y-58500000D03*
X40250000Y-72750000D03*
X39250000Y-72750000D03*
X63250000Y-74250000D03*
X63250000Y-72500000D03*
X63250000Y-64500000D03*
X63250000Y-63250000D03*
X63250000Y-62000000D03*
X34250000Y-40750000D03*
X34250000Y-55500000D03*
X34250000Y-69750000D03*
X34250000Y-83750000D03*
X40250000Y-86750000D03*
X39250000Y-86750000D03*
%TO.N,VCC*%
X57500000Y-15080000D03*
%TO.N,GND*%
X57500000Y-12750000D03*
%TD*%
D16*
%TO.N,VCC*%
X55580000Y-15080000D02*
X57500000Y-15080000D01*
X55000000Y-14500000D02*
X55580000Y-15080000D01*
X48250000Y-13000000D02*
X49750000Y-14500000D01*
X43545000Y-13000000D02*
X48250000Y-13000000D01*
X49750000Y-14500000D02*
X55000000Y-14500000D01*
D17*
X57500000Y-15080000D02*
X57500000Y-16500000D01*
X57500000Y-16500000D02*
X59500000Y-18500000D01*
X59500000Y-18500000D02*
X65500000Y-18500000D01*
D18*
X65750000Y-18000000D02*
X65750000Y-19000000D01*
D16*
%TO.N,/am_receiver_v2_bpf/Vcom*%
X37750000Y-47500000D02*
X37000000Y-46750000D01*
X37750000Y-60750000D02*
X37750000Y-47500000D01*
X37000000Y-61500000D02*
X37750000Y-60750000D01*
X37750000Y-62250000D02*
X37000000Y-61500000D01*
X37750000Y-75000000D02*
X37750000Y-62250000D01*
X37000000Y-75750000D02*
X37750000Y-75000000D01*
X37750000Y-76500000D02*
X37000000Y-75750000D01*
X37750000Y-89000000D02*
X37750000Y-76500000D01*
X37000000Y-89750000D02*
X37750000Y-89000000D01*
D19*
%TO.N,Net-(C6-Pad2)*%
X30250000Y-88500000D02*
X30250000Y-83750000D01*
D16*
%TO.N,/am_receiver_v2_bpf/Vcom2*%
X46475002Y-31500000D02*
X46362501Y-31387499D01*
X56000000Y-31500000D02*
X46475002Y-31500000D01*
X56500000Y-28000000D02*
X56500000Y-31000000D01*
X56500000Y-31000000D02*
X56000000Y-31500000D01*
%TD*%
%TA.AperFunction,Conductor*%
%TO.N,GND*%
G36*
X77503280Y-500715D02*
G01*
X77754411Y-517175D01*
X77767457Y-518893D01*
X78011051Y-567346D01*
X78023745Y-570747D01*
X78258941Y-650586D01*
X78271086Y-655617D01*
X78493829Y-765462D01*
X78505225Y-772041D01*
X78711739Y-910029D01*
X78722172Y-918035D01*
X78898611Y-1072767D01*
X78908902Y-1081792D01*
X78918207Y-1091097D01*
X79081962Y-1277824D01*
X79089970Y-1288260D01*
X79227958Y-1494774D01*
X79234537Y-1506170D01*
X79344379Y-1728907D01*
X79349415Y-1741064D01*
X79429249Y-1976246D01*
X79432655Y-1988957D01*
X79481106Y-2232542D01*
X79482824Y-2245588D01*
X79499285Y-2496719D01*
X79499500Y-2503299D01*
X79499500Y-97496700D01*
X79499285Y-97503280D01*
X79482824Y-97754411D01*
X79481106Y-97767457D01*
X79432655Y-98011042D01*
X79429249Y-98023753D01*
X79349415Y-98258935D01*
X79344379Y-98271092D01*
X79234537Y-98493829D01*
X79227958Y-98505225D01*
X79089970Y-98711739D01*
X79081959Y-98722179D01*
X78918207Y-98908902D01*
X78908902Y-98918207D01*
X78722179Y-99081959D01*
X78711739Y-99089970D01*
X78505225Y-99227958D01*
X78493829Y-99234537D01*
X78271092Y-99344379D01*
X78258935Y-99349415D01*
X78023753Y-99429249D01*
X78011042Y-99432655D01*
X77767457Y-99481106D01*
X77754411Y-99482824D01*
X77503280Y-99499285D01*
X77496700Y-99499500D01*
X2503300Y-99499500D01*
X2496720Y-99499285D01*
X2245588Y-99482824D01*
X2232542Y-99481106D01*
X1988957Y-99432655D01*
X1976246Y-99429249D01*
X1741064Y-99349415D01*
X1728907Y-99344379D01*
X1506170Y-99234537D01*
X1494774Y-99227958D01*
X1288260Y-99089970D01*
X1277824Y-99081962D01*
X1091097Y-98918207D01*
X1081792Y-98908902D01*
X1042474Y-98864068D01*
X918035Y-98722172D01*
X910029Y-98711739D01*
X772041Y-98505225D01*
X765462Y-98493829D01*
X655620Y-98271092D01*
X650584Y-98258935D01*
X570747Y-98023745D01*
X567346Y-98011051D01*
X518893Y-97767457D01*
X517175Y-97754411D01*
X500715Y-97503280D01*
X500500Y-97496700D01*
X500500Y-94878709D01*
X23149500Y-94878709D01*
X23149500Y-95121290D01*
X23181159Y-95361774D01*
X23181160Y-95361783D01*
X23243945Y-95596100D01*
X23243946Y-95596102D01*
X23336775Y-95820211D01*
X23458063Y-96030289D01*
X23605730Y-96222733D01*
X23777266Y-96394269D01*
X23969710Y-96541936D01*
X24179788Y-96663224D01*
X24403897Y-96756053D01*
X24403899Y-96756054D01*
X24507214Y-96783737D01*
X24638211Y-96818838D01*
X24638213Y-96818838D01*
X24638216Y-96818839D01*
X24638225Y-96818840D01*
X24878710Y-96850500D01*
X24878712Y-96850500D01*
X25121290Y-96850500D01*
X25361774Y-96818840D01*
X25361783Y-96818839D01*
X25361784Y-96818838D01*
X25361789Y-96818838D01*
X25596100Y-96756054D01*
X25820212Y-96663224D01*
X26030289Y-96541936D01*
X26222738Y-96394265D01*
X26394265Y-96222738D01*
X26541936Y-96030289D01*
X26663224Y-95820212D01*
X26756054Y-95596100D01*
X26818838Y-95361789D01*
X26850500Y-95121288D01*
X26850500Y-94878712D01*
X26850500Y-94878709D01*
X73149500Y-94878709D01*
X73149500Y-95121290D01*
X73181159Y-95361774D01*
X73181160Y-95361783D01*
X73243945Y-95596100D01*
X73243946Y-95596102D01*
X73336775Y-95820211D01*
X73458063Y-96030289D01*
X73605730Y-96222733D01*
X73777266Y-96394269D01*
X73969710Y-96541936D01*
X74179788Y-96663224D01*
X74403897Y-96756053D01*
X74403899Y-96756054D01*
X74507214Y-96783737D01*
X74638211Y-96818838D01*
X74638213Y-96818838D01*
X74638216Y-96818839D01*
X74638225Y-96818840D01*
X74878710Y-96850500D01*
X74878712Y-96850500D01*
X75121290Y-96850500D01*
X75361774Y-96818840D01*
X75361783Y-96818839D01*
X75361784Y-96818838D01*
X75361789Y-96818838D01*
X75596100Y-96756054D01*
X75820212Y-96663224D01*
X76030289Y-96541936D01*
X76222738Y-96394265D01*
X76394265Y-96222738D01*
X76541936Y-96030289D01*
X76663224Y-95820212D01*
X76756054Y-95596100D01*
X76818838Y-95361789D01*
X76850500Y-95121288D01*
X76850500Y-94878712D01*
X76818838Y-94638211D01*
X76756054Y-94403900D01*
X76663224Y-94179788D01*
X76541936Y-93969710D01*
X76394269Y-93777266D01*
X76222733Y-93605730D01*
X76030289Y-93458063D01*
X75820211Y-93336775D01*
X75596102Y-93243946D01*
X75596100Y-93243945D01*
X75361783Y-93181160D01*
X75361774Y-93181159D01*
X75121290Y-93149500D01*
X75121288Y-93149500D01*
X74878712Y-93149500D01*
X74878710Y-93149500D01*
X74638225Y-93181159D01*
X74638216Y-93181160D01*
X74403899Y-93243945D01*
X74403897Y-93243946D01*
X74179788Y-93336775D01*
X73969710Y-93458063D01*
X73777266Y-93605730D01*
X73605730Y-93777266D01*
X73458063Y-93969710D01*
X73336775Y-94179788D01*
X73243946Y-94403897D01*
X73243945Y-94403899D01*
X73181160Y-94638216D01*
X73181159Y-94638225D01*
X73149500Y-94878709D01*
X26850500Y-94878709D01*
X26818838Y-94638211D01*
X26756054Y-94403900D01*
X26663224Y-94179788D01*
X26541936Y-93969710D01*
X26394269Y-93777266D01*
X26222733Y-93605730D01*
X26030289Y-93458063D01*
X25820211Y-93336775D01*
X25596102Y-93243946D01*
X25596100Y-93243945D01*
X25361783Y-93181160D01*
X25361774Y-93181159D01*
X25121290Y-93149500D01*
X25121288Y-93149500D01*
X24878712Y-93149500D01*
X24878710Y-93149500D01*
X24638225Y-93181159D01*
X24638216Y-93181160D01*
X24403899Y-93243945D01*
X24403897Y-93243946D01*
X24179788Y-93336775D01*
X23969710Y-93458063D01*
X23777266Y-93605730D01*
X23605730Y-93777266D01*
X23458063Y-93969710D01*
X23336775Y-94179788D01*
X23243946Y-94403897D01*
X23243945Y-94403899D01*
X23181160Y-94638216D01*
X23181159Y-94638225D01*
X23149500Y-94878709D01*
X500500Y-94878709D01*
X500500Y-91000000D01*
X11088229Y-91000000D01*
X11107688Y-91272073D01*
X11107688Y-91272076D01*
X11107689Y-91272079D01*
X11165670Y-91538612D01*
X11260987Y-91794168D01*
X11260988Y-91794169D01*
X11260990Y-91794172D01*
X11260992Y-91794178D01*
X11337983Y-91935177D01*
X11391717Y-92033584D01*
X11391718Y-92033585D01*
X11555177Y-92251941D01*
X11748058Y-92444822D01*
X11966414Y-92608281D01*
X11966415Y-92608282D01*
X11966419Y-92608284D01*
X12205822Y-92739008D01*
X12205829Y-92739010D01*
X12205830Y-92739011D01*
X12205831Y-92739012D01*
X12461387Y-92834329D01*
X12461392Y-92834331D01*
X12727927Y-92892312D01*
X13000000Y-92911771D01*
X13272073Y-92892312D01*
X13538608Y-92834331D01*
X13705448Y-92772102D01*
X13794168Y-92739012D01*
X13794168Y-92739011D01*
X13794178Y-92739008D01*
X14033581Y-92608284D01*
X14251944Y-92444820D01*
X14444820Y-92251944D01*
X14608284Y-92033581D01*
X14739008Y-91794178D01*
X14834331Y-91538608D01*
X14892312Y-91272073D01*
X14911771Y-91000000D01*
X14892312Y-90727927D01*
X14834331Y-90461392D01*
X14800850Y-90371625D01*
X14739012Y-90205831D01*
X14739011Y-90205830D01*
X14739010Y-90205829D01*
X14739008Y-90205822D01*
X14608284Y-89966419D01*
X14608282Y-89966415D01*
X14608281Y-89966414D01*
X14444822Y-89748058D01*
X14251941Y-89555177D01*
X14033585Y-89391718D01*
X14033584Y-89391717D01*
X13924036Y-89331900D01*
X13794178Y-89260992D01*
X13794172Y-89260990D01*
X13794169Y-89260988D01*
X13794168Y-89260987D01*
X13538612Y-89165670D01*
X13538613Y-89165670D01*
X13272079Y-89107689D01*
X13272076Y-89107688D01*
X13272073Y-89107688D01*
X13000000Y-89088229D01*
X12727927Y-89107688D01*
X12727923Y-89107688D01*
X12727920Y-89107689D01*
X12461387Y-89165670D01*
X12205831Y-89260987D01*
X12205830Y-89260988D01*
X12205824Y-89260991D01*
X12205822Y-89260992D01*
X12149028Y-89292003D01*
X11966415Y-89391717D01*
X11966414Y-89391718D01*
X11748058Y-89555177D01*
X11555177Y-89748058D01*
X11391718Y-89966414D01*
X11391717Y-89966415D01*
X11260988Y-90205830D01*
X11260987Y-90205831D01*
X11165670Y-90461387D01*
X11107689Y-90727920D01*
X11107688Y-90727923D01*
X11107688Y-90727927D01*
X11088229Y-91000000D01*
X500500Y-91000000D01*
X500500Y-86000000D01*
X11088229Y-86000000D01*
X11107688Y-86272073D01*
X11107688Y-86272076D01*
X11107689Y-86272079D01*
X11165670Y-86538612D01*
X11260987Y-86794168D01*
X11260988Y-86794169D01*
X11260990Y-86794172D01*
X11260992Y-86794178D01*
X11321498Y-86904986D01*
X11391717Y-87033584D01*
X11391718Y-87033585D01*
X11555177Y-87251941D01*
X11748058Y-87444822D01*
X11966414Y-87608281D01*
X11966415Y-87608282D01*
X11966419Y-87608284D01*
X12205822Y-87739008D01*
X12205829Y-87739010D01*
X12205830Y-87739011D01*
X12205831Y-87739012D01*
X12461387Y-87834329D01*
X12461392Y-87834331D01*
X12727927Y-87892312D01*
X13000000Y-87911771D01*
X13272073Y-87892312D01*
X13538608Y-87834331D01*
X13705448Y-87772102D01*
X13794168Y-87739012D01*
X13794168Y-87739011D01*
X13794178Y-87739008D01*
X14033581Y-87608284D01*
X14251944Y-87444820D01*
X14444820Y-87251944D01*
X14608284Y-87033581D01*
X14739008Y-86794178D01*
X14834331Y-86538608D01*
X14892312Y-86272073D01*
X14911771Y-86000000D01*
X14892312Y-85727927D01*
X14834331Y-85461392D01*
X14817783Y-85417027D01*
X14739012Y-85205831D01*
X14739011Y-85205830D01*
X14739010Y-85205829D01*
X14739008Y-85205822D01*
X14608284Y-84966419D01*
X14608282Y-84966415D01*
X14608281Y-84966414D01*
X14444822Y-84748058D01*
X14251941Y-84555177D01*
X14033585Y-84391718D01*
X14033584Y-84391717D01*
X13935177Y-84337983D01*
X13794178Y-84260992D01*
X13794172Y-84260990D01*
X13794169Y-84260988D01*
X13794168Y-84260987D01*
X13538612Y-84165670D01*
X13538613Y-84165670D01*
X13272079Y-84107689D01*
X13272076Y-84107688D01*
X13272073Y-84107688D01*
X13000000Y-84088229D01*
X12727927Y-84107688D01*
X12727923Y-84107688D01*
X12727920Y-84107689D01*
X12461387Y-84165670D01*
X12205831Y-84260987D01*
X12205830Y-84260988D01*
X12205824Y-84260991D01*
X12205822Y-84260992D01*
X12149028Y-84292003D01*
X11966415Y-84391717D01*
X11966414Y-84391718D01*
X11748058Y-84555177D01*
X11555177Y-84748058D01*
X11391718Y-84966414D01*
X11391717Y-84966415D01*
X11295136Y-85143292D01*
X11263184Y-85201809D01*
X11260988Y-85205830D01*
X11260987Y-85205831D01*
X11165670Y-85461387D01*
X11107689Y-85727920D01*
X11107688Y-85727923D01*
X11107688Y-85727927D01*
X11088229Y-86000000D01*
X500500Y-86000000D01*
X500500Y-83750000D01*
X29413518Y-83750000D01*
X29431796Y-83923912D01*
X29485835Y-84090225D01*
X29485836Y-84090228D01*
X29573271Y-84241671D01*
X29573272Y-84241672D01*
X29690260Y-84371601D01*
X29715549Y-84428400D01*
X29716100Y-84438915D01*
X29716100Y-87811084D01*
X29696887Y-87870215D01*
X29690261Y-87878398D01*
X29573270Y-88008330D01*
X29485836Y-88159771D01*
X29485835Y-88159774D01*
X29431796Y-88326087D01*
X29413518Y-88500000D01*
X29431796Y-88673912D01*
X29485835Y-88840225D01*
X29485836Y-88840228D01*
X29551786Y-88954458D01*
X29573272Y-88991672D01*
X29603809Y-89025587D01*
X29690281Y-89121625D01*
X29690285Y-89121628D01*
X29747343Y-89163083D01*
X29831759Y-89224415D01*
X29991513Y-89295542D01*
X30162564Y-89331900D01*
X30162565Y-89331900D01*
X30337435Y-89331900D01*
X30337436Y-89331900D01*
X30508487Y-89295542D01*
X30668241Y-89224415D01*
X30809716Y-89121627D01*
X30926728Y-88991672D01*
X31014164Y-88840228D01*
X31068203Y-88673914D01*
X31086482Y-88500000D01*
X31068203Y-88326086D01*
X31014164Y-88159772D01*
X30926728Y-88008328D01*
X30809739Y-87878398D01*
X30784451Y-87821599D01*
X30783900Y-87811084D01*
X30783900Y-84438915D01*
X30803113Y-84379784D01*
X30809740Y-84371601D01*
X30853126Y-84323414D01*
X30926728Y-84241672D01*
X31014164Y-84090228D01*
X31068203Y-83923914D01*
X31086482Y-83750000D01*
X31068203Y-83576086D01*
X31014164Y-83409772D01*
X30926728Y-83258328D01*
X30877421Y-83203568D01*
X30809718Y-83128374D01*
X30809714Y-83128371D01*
X30668244Y-83025587D01*
X30668243Y-83025586D01*
X30668241Y-83025585D01*
X30508487Y-82954458D01*
X30337436Y-82918100D01*
X30162564Y-82918100D01*
X30077038Y-82936279D01*
X29991512Y-82954458D01*
X29831755Y-83025587D01*
X29690285Y-83128371D01*
X29690281Y-83128374D01*
X29573270Y-83258330D01*
X29485836Y-83409771D01*
X29485835Y-83409774D01*
X29431796Y-83576087D01*
X29413518Y-83750000D01*
X500500Y-83750000D01*
X500500Y-79467969D01*
X11093100Y-79467969D01*
X11093100Y-82532030D01*
X11108190Y-82627303D01*
X11108191Y-82627306D01*
X11154499Y-82718191D01*
X11166708Y-82742151D01*
X11257849Y-82833292D01*
X11372694Y-82891809D01*
X11443631Y-82903044D01*
X11467969Y-82906899D01*
X11467974Y-82906900D01*
X11467976Y-82906900D01*
X14532026Y-82906900D01*
X14532030Y-82906899D01*
X14627306Y-82891809D01*
X14742151Y-82833292D01*
X14833292Y-82742151D01*
X14891809Y-82627306D01*
X14906900Y-82532024D01*
X14906900Y-79467976D01*
X14891809Y-79372694D01*
X14833292Y-79257849D01*
X14742151Y-79166708D01*
X14742150Y-79166707D01*
X14627306Y-79108191D01*
X14627303Y-79108190D01*
X14532030Y-79093100D01*
X14532024Y-79093100D01*
X11467976Y-79093100D01*
X11467969Y-79093100D01*
X11372696Y-79108190D01*
X11372693Y-79108191D01*
X11257849Y-79166707D01*
X11166707Y-79257849D01*
X11108191Y-79372693D01*
X11108190Y-79372696D01*
X11093100Y-79467969D01*
X500500Y-79467969D01*
X500500Y-66000000D01*
X11088229Y-66000000D01*
X11107688Y-66272073D01*
X11107688Y-66272076D01*
X11107689Y-66272079D01*
X11165670Y-66538612D01*
X11260987Y-66794168D01*
X11260988Y-66794169D01*
X11260990Y-66794172D01*
X11260992Y-66794178D01*
X11337983Y-66935177D01*
X11391717Y-67033584D01*
X11391718Y-67033585D01*
X11555177Y-67251941D01*
X11748058Y-67444822D01*
X11966414Y-67608281D01*
X11966415Y-67608282D01*
X11966419Y-67608284D01*
X12205822Y-67739008D01*
X12205829Y-67739010D01*
X12205830Y-67739011D01*
X12205831Y-67739012D01*
X12461387Y-67834329D01*
X12461392Y-67834331D01*
X12727927Y-67892312D01*
X13000000Y-67911771D01*
X13272073Y-67892312D01*
X13538608Y-67834331D01*
X13705448Y-67772102D01*
X13794168Y-67739012D01*
X13794168Y-67739011D01*
X13794178Y-67739008D01*
X14033581Y-67608284D01*
X14251944Y-67444820D01*
X14444820Y-67251944D01*
X14608284Y-67033581D01*
X14739008Y-66794178D01*
X14834331Y-66538608D01*
X14892312Y-66272073D01*
X14911771Y-66000000D01*
X14892312Y-65727927D01*
X14834331Y-65461392D01*
X14817783Y-65417027D01*
X14739012Y-65205831D01*
X14739011Y-65205830D01*
X14739010Y-65205829D01*
X14739008Y-65205822D01*
X14608284Y-64966419D01*
X14608282Y-64966415D01*
X14608281Y-64966414D01*
X14444822Y-64748058D01*
X14251941Y-64555177D01*
X14033585Y-64391718D01*
X14033584Y-64391717D01*
X13935177Y-64337983D01*
X13794178Y-64260992D01*
X13794172Y-64260990D01*
X13794169Y-64260988D01*
X13794168Y-64260987D01*
X13538612Y-64165670D01*
X13538613Y-64165670D01*
X13272079Y-64107689D01*
X13272076Y-64107688D01*
X13272073Y-64107688D01*
X13000000Y-64088229D01*
X12727927Y-64107688D01*
X12727923Y-64107688D01*
X12727920Y-64107689D01*
X12461387Y-64165670D01*
X12205831Y-64260987D01*
X12205830Y-64260988D01*
X12205824Y-64260991D01*
X12205822Y-64260992D01*
X12149028Y-64292003D01*
X11966415Y-64391717D01*
X11966414Y-64391718D01*
X11748058Y-64555177D01*
X11555177Y-64748058D01*
X11391718Y-64966414D01*
X11391717Y-64966415D01*
X11260988Y-65205830D01*
X11260987Y-65205831D01*
X11165670Y-65461387D01*
X11107689Y-65727920D01*
X11107688Y-65727923D01*
X11107688Y-65727927D01*
X11088229Y-66000000D01*
X500500Y-66000000D01*
X500500Y-61000000D01*
X11088229Y-61000000D01*
X11107688Y-61272073D01*
X11107688Y-61272076D01*
X11107689Y-61272079D01*
X11165670Y-61538612D01*
X11260987Y-61794168D01*
X11260988Y-61794169D01*
X11260990Y-61794172D01*
X11260992Y-61794178D01*
X11339400Y-61937772D01*
X11391715Y-62033580D01*
X11391718Y-62033585D01*
X11555177Y-62251941D01*
X11748058Y-62444822D01*
X11966414Y-62608281D01*
X11966415Y-62608282D01*
X11966419Y-62608284D01*
X12205822Y-62739008D01*
X12205829Y-62739010D01*
X12205830Y-62739011D01*
X12205831Y-62739012D01*
X12461387Y-62834329D01*
X12461392Y-62834331D01*
X12727927Y-62892312D01*
X13000000Y-62911771D01*
X13272073Y-62892312D01*
X13538608Y-62834331D01*
X13705448Y-62772102D01*
X13794168Y-62739012D01*
X13794168Y-62739011D01*
X13794178Y-62739008D01*
X14033581Y-62608284D01*
X14251944Y-62444820D01*
X14444820Y-62251944D01*
X14608284Y-62033581D01*
X14739008Y-61794178D01*
X14834331Y-61538608D01*
X14892312Y-61272073D01*
X14911771Y-61000000D01*
X14892312Y-60727927D01*
X14834331Y-60461392D01*
X14817783Y-60417027D01*
X14739012Y-60205831D01*
X14739011Y-60205830D01*
X14739010Y-60205829D01*
X14739008Y-60205822D01*
X14608284Y-59966419D01*
X14608282Y-59966415D01*
X14608281Y-59966414D01*
X14444822Y-59748058D01*
X14251941Y-59555177D01*
X14033585Y-59391718D01*
X14033584Y-59391717D01*
X13935177Y-59337983D01*
X13794178Y-59260992D01*
X13794172Y-59260990D01*
X13794169Y-59260988D01*
X13794168Y-59260987D01*
X13538612Y-59165670D01*
X13538613Y-59165670D01*
X13272079Y-59107689D01*
X13272076Y-59107688D01*
X13272073Y-59107688D01*
X13000000Y-59088229D01*
X12727927Y-59107688D01*
X12727923Y-59107688D01*
X12727920Y-59107689D01*
X12461387Y-59165670D01*
X12205831Y-59260987D01*
X12205830Y-59260988D01*
X12205824Y-59260991D01*
X12205822Y-59260992D01*
X12149028Y-59292003D01*
X11966415Y-59391717D01*
X11966414Y-59391718D01*
X11748058Y-59555177D01*
X11555177Y-59748058D01*
X11391718Y-59966414D01*
X11391717Y-59966415D01*
X11260988Y-60205830D01*
X11260987Y-60205831D01*
X11165670Y-60461387D01*
X11107689Y-60727920D01*
X11107688Y-60727923D01*
X11107688Y-60727927D01*
X11088229Y-61000000D01*
X500500Y-61000000D01*
X500500Y-54467969D01*
X11093100Y-54467969D01*
X11093100Y-57532030D01*
X11108190Y-57627303D01*
X11108191Y-57627306D01*
X11166708Y-57742151D01*
X11257849Y-57833292D01*
X11372694Y-57891809D01*
X11443631Y-57903044D01*
X11467969Y-57906899D01*
X11467974Y-57906900D01*
X11467976Y-57906900D01*
X14532026Y-57906900D01*
X14532030Y-57906899D01*
X14627306Y-57891809D01*
X14742151Y-57833292D01*
X14833292Y-57742151D01*
X14891809Y-57627306D01*
X14906900Y-57532024D01*
X14906900Y-54467976D01*
X14891809Y-54372694D01*
X14833292Y-54257849D01*
X14742151Y-54166708D01*
X14742150Y-54166707D01*
X14627306Y-54108191D01*
X14627303Y-54108190D01*
X14532030Y-54093100D01*
X14532024Y-54093100D01*
X11467976Y-54093100D01*
X11467969Y-54093100D01*
X11372696Y-54108190D01*
X11372693Y-54108191D01*
X11257849Y-54166707D01*
X11166707Y-54257849D01*
X11108191Y-54372693D01*
X11108190Y-54372696D01*
X11093100Y-54467969D01*
X500500Y-54467969D01*
X500500Y-46750000D01*
X36163518Y-46750000D01*
X36181796Y-46923912D01*
X36181797Y-46923914D01*
X36235836Y-47090228D01*
X36323272Y-47241672D01*
X36366444Y-47289620D01*
X36440281Y-47371625D01*
X36440284Y-47371627D01*
X36581759Y-47474415D01*
X36741513Y-47545542D01*
X36912564Y-47581900D01*
X36912565Y-47581900D01*
X37071102Y-47581900D01*
X37130233Y-47601113D01*
X37142237Y-47611365D01*
X37212035Y-47681163D01*
X37240261Y-47736561D01*
X37241500Y-47752298D01*
X37241500Y-60497701D01*
X37222287Y-60556832D01*
X37212035Y-60568836D01*
X37142236Y-60638635D01*
X37086838Y-60666861D01*
X37071101Y-60668100D01*
X36912564Y-60668100D01*
X36891671Y-60672541D01*
X36741512Y-60704458D01*
X36581755Y-60775587D01*
X36440285Y-60878371D01*
X36440281Y-60878374D01*
X36323270Y-61008330D01*
X36235836Y-61159771D01*
X36235835Y-61159774D01*
X36181796Y-61326087D01*
X36163518Y-61500000D01*
X36181796Y-61673912D01*
X36181797Y-61673914D01*
X36235836Y-61840228D01*
X36323272Y-61991672D01*
X36361006Y-62033580D01*
X36440281Y-62121625D01*
X36440284Y-62121627D01*
X36581759Y-62224415D01*
X36741513Y-62295542D01*
X36912564Y-62331900D01*
X36912565Y-62331900D01*
X37071102Y-62331900D01*
X37130233Y-62351113D01*
X37142237Y-62361365D01*
X37212035Y-62431163D01*
X37240261Y-62486561D01*
X37241500Y-62502298D01*
X37241500Y-74747701D01*
X37222287Y-74806832D01*
X37212035Y-74818836D01*
X37142236Y-74888635D01*
X37086838Y-74916861D01*
X37071101Y-74918100D01*
X36912564Y-74918100D01*
X36891671Y-74922541D01*
X36741512Y-74954458D01*
X36581755Y-75025587D01*
X36440285Y-75128371D01*
X36440281Y-75128374D01*
X36323270Y-75258330D01*
X36235836Y-75409771D01*
X36235835Y-75409774D01*
X36181796Y-75576087D01*
X36163518Y-75750000D01*
X36181796Y-75923912D01*
X36181797Y-75923914D01*
X36235836Y-76090228D01*
X36323272Y-76241672D01*
X36366444Y-76289620D01*
X36440281Y-76371625D01*
X36440284Y-76371627D01*
X36581759Y-76474415D01*
X36741513Y-76545542D01*
X36912564Y-76581900D01*
X36912565Y-76581900D01*
X37071102Y-76581900D01*
X37130233Y-76601113D01*
X37142237Y-76611365D01*
X37212035Y-76681163D01*
X37240261Y-76736561D01*
X37241500Y-76752298D01*
X37241500Y-88747701D01*
X37222287Y-88806832D01*
X37212035Y-88818836D01*
X37142236Y-88888635D01*
X37086838Y-88916861D01*
X37071101Y-88918100D01*
X36912564Y-88918100D01*
X36891671Y-88922541D01*
X36741512Y-88954458D01*
X36581755Y-89025587D01*
X36440285Y-89128371D01*
X36440281Y-89128374D01*
X36323270Y-89258330D01*
X36235836Y-89409771D01*
X36235835Y-89409774D01*
X36181796Y-89576087D01*
X36163518Y-89750000D01*
X36181796Y-89923912D01*
X36235835Y-90090225D01*
X36235836Y-90090228D01*
X36302578Y-90205830D01*
X36323272Y-90241672D01*
X36366444Y-90289620D01*
X36440281Y-90371625D01*
X36440284Y-90371627D01*
X36581759Y-90474415D01*
X36741513Y-90545542D01*
X36912564Y-90581900D01*
X36912565Y-90581900D01*
X37087435Y-90581900D01*
X37087436Y-90581900D01*
X37258487Y-90545542D01*
X37418241Y-90474415D01*
X37559716Y-90371627D01*
X37676728Y-90241672D01*
X37764164Y-90090228D01*
X37818203Y-89923914D01*
X37836482Y-89750000D01*
X37830335Y-89691526D01*
X37843261Y-89630714D01*
X37859245Y-89609881D01*
X38156901Y-89312227D01*
X38223847Y-89196274D01*
X38232741Y-89163079D01*
X38258500Y-89066945D01*
X38258500Y-86296799D01*
X67736717Y-86296799D01*
X67736719Y-86296800D01*
X68314968Y-86296800D01*
X68309075Y-86307007D01*
X68275000Y-86434174D01*
X68275000Y-86565826D01*
X68309075Y-86692993D01*
X68314968Y-86703200D01*
X67736718Y-86703200D01*
X67737038Y-86706462D01*
X67737039Y-86706467D01*
X67797259Y-86904986D01*
X67797262Y-86904994D01*
X67895054Y-87087951D01*
X67895063Y-87087964D01*
X68026667Y-87248322D01*
X68026677Y-87248332D01*
X68187035Y-87379936D01*
X68187048Y-87379945D01*
X68370005Y-87477737D01*
X68370013Y-87477740D01*
X68568532Y-87537960D01*
X68568537Y-87537961D01*
X68571799Y-87538282D01*
X68571800Y-87538281D01*
X68571800Y-86960031D01*
X68582007Y-86965925D01*
X68709174Y-87000000D01*
X68840826Y-87000000D01*
X68967993Y-86965925D01*
X68978200Y-86960031D01*
X68978200Y-87538282D01*
X68981462Y-87537961D01*
X68981467Y-87537960D01*
X69179986Y-87477740D01*
X69179994Y-87477737D01*
X69362951Y-87379945D01*
X69362964Y-87379936D01*
X69523322Y-87248332D01*
X69523332Y-87248322D01*
X69654936Y-87087964D01*
X69654945Y-87087951D01*
X69752737Y-86904994D01*
X69752740Y-86904986D01*
X69812960Y-86706467D01*
X69812961Y-86706462D01*
X69813282Y-86703200D01*
X69235032Y-86703200D01*
X69240925Y-86692993D01*
X69275000Y-86565826D01*
X69275000Y-86434174D01*
X69240925Y-86307007D01*
X69235032Y-86296800D01*
X69813281Y-86296800D01*
X69813282Y-86296799D01*
X69812961Y-86293537D01*
X69812960Y-86293532D01*
X69752740Y-86095013D01*
X69752737Y-86095005D01*
X69654945Y-85912048D01*
X69654936Y-85912035D01*
X69523332Y-85751677D01*
X69523322Y-85751667D01*
X69362964Y-85620063D01*
X69362951Y-85620054D01*
X69179994Y-85522262D01*
X69179987Y-85522259D01*
X68981463Y-85462039D01*
X68978200Y-85461717D01*
X68978200Y-86039968D01*
X68967993Y-86034075D01*
X68840826Y-86000000D01*
X68709174Y-86000000D01*
X68582007Y-86034075D01*
X68571800Y-86039968D01*
X68571800Y-85461717D01*
X68568536Y-85462039D01*
X68568535Y-85462039D01*
X68370012Y-85522259D01*
X68370005Y-85522262D01*
X68187048Y-85620054D01*
X68187035Y-85620063D01*
X68026677Y-85751667D01*
X68026667Y-85751677D01*
X67895063Y-85912035D01*
X67895054Y-85912048D01*
X67797262Y-86095005D01*
X67797259Y-86095013D01*
X67737039Y-86293532D01*
X67737038Y-86293537D01*
X67736717Y-86296799D01*
X38258500Y-86296799D01*
X38258500Y-83077969D01*
X67518100Y-83077969D01*
X67518100Y-84842030D01*
X67533190Y-84937303D01*
X67533191Y-84937306D01*
X67591708Y-85052151D01*
X67682849Y-85143292D01*
X67797694Y-85201809D01*
X67868631Y-85213044D01*
X67892969Y-85216899D01*
X67892974Y-85216900D01*
X67892976Y-85216900D01*
X69657026Y-85216900D01*
X69657030Y-85216899D01*
X69752306Y-85201809D01*
X69867151Y-85143292D01*
X69958292Y-85052151D01*
X70016809Y-84937306D01*
X70031900Y-84842024D01*
X70031900Y-83077976D01*
X70016809Y-82982694D01*
X69958292Y-82867849D01*
X69867151Y-82776708D01*
X69867150Y-82776707D01*
X69752306Y-82718191D01*
X69752303Y-82718190D01*
X69657030Y-82703100D01*
X69657024Y-82703100D01*
X67892976Y-82703100D01*
X67892969Y-82703100D01*
X67797696Y-82718190D01*
X67797693Y-82718191D01*
X67682849Y-82776707D01*
X67591707Y-82867849D01*
X67533191Y-82982693D01*
X67533190Y-82982696D01*
X67518100Y-83077969D01*
X38258500Y-83077969D01*
X38258500Y-76433055D01*
X38258499Y-76433053D01*
X38258499Y-76433049D01*
X38223848Y-76303729D01*
X38223848Y-76303728D01*
X38223847Y-76303726D01*
X38156901Y-76187773D01*
X37859249Y-75890121D01*
X37831023Y-75834723D01*
X37830335Y-75808478D01*
X37836482Y-75750000D01*
X37830335Y-75691526D01*
X37843261Y-75630714D01*
X37859245Y-75609881D01*
X38156901Y-75312227D01*
X38223847Y-75196274D01*
X38232741Y-75163079D01*
X38258500Y-75066945D01*
X38258500Y-62183055D01*
X38258499Y-62183053D01*
X38258499Y-62183049D01*
X38223848Y-62053729D01*
X38223846Y-62053724D01*
X38212217Y-62033583D01*
X38212215Y-62033580D01*
X38188020Y-61991672D01*
X38156901Y-61937773D01*
X37859249Y-61640121D01*
X37831023Y-61584723D01*
X37830335Y-61558478D01*
X37836482Y-61500000D01*
X37830335Y-61441526D01*
X37843261Y-61380714D01*
X37859245Y-61359881D01*
X38156901Y-61062227D01*
X38223847Y-60946274D01*
X38232741Y-60913079D01*
X38258500Y-60816945D01*
X38258500Y-47433055D01*
X38258499Y-47433053D01*
X38258499Y-47433049D01*
X38223848Y-47303729D01*
X38223846Y-47303724D01*
X38188020Y-47241672D01*
X38156902Y-47187774D01*
X37859249Y-46890121D01*
X37831023Y-46834723D01*
X37830335Y-46808478D01*
X37836482Y-46750000D01*
X37818203Y-46576086D01*
X37764164Y-46409772D01*
X37676728Y-46258328D01*
X37627421Y-46203568D01*
X37559718Y-46128374D01*
X37559714Y-46128371D01*
X37418244Y-46025587D01*
X37418243Y-46025586D01*
X37418241Y-46025585D01*
X37258487Y-45954458D01*
X37087436Y-45918100D01*
X36912564Y-45918100D01*
X36827038Y-45936279D01*
X36741512Y-45954458D01*
X36581755Y-46025587D01*
X36440285Y-46128371D01*
X36440281Y-46128374D01*
X36323270Y-46258330D01*
X36235836Y-46409771D01*
X36235835Y-46409774D01*
X36181796Y-46576087D01*
X36163518Y-46750000D01*
X500500Y-46750000D01*
X500500Y-42000000D01*
X11088229Y-42000000D01*
X11107688Y-42272073D01*
X11107688Y-42272076D01*
X11107689Y-42272079D01*
X11165670Y-42538612D01*
X11260987Y-42794168D01*
X11260988Y-42794169D01*
X11260990Y-42794172D01*
X11260992Y-42794178D01*
X11337983Y-42935177D01*
X11391717Y-43033584D01*
X11391718Y-43033585D01*
X11555177Y-43251941D01*
X11748058Y-43444822D01*
X11966414Y-43608281D01*
X11966415Y-43608282D01*
X11966419Y-43608284D01*
X12205822Y-43739008D01*
X12205829Y-43739010D01*
X12205830Y-43739011D01*
X12205831Y-43739012D01*
X12461387Y-43834329D01*
X12461392Y-43834331D01*
X12727927Y-43892312D01*
X13000000Y-43911771D01*
X13272073Y-43892312D01*
X13538608Y-43834331D01*
X13705448Y-43772102D01*
X13794168Y-43739012D01*
X13794168Y-43739011D01*
X13794178Y-43739008D01*
X14033581Y-43608284D01*
X14251944Y-43444820D01*
X14444820Y-43251944D01*
X14608284Y-43033581D01*
X14739008Y-42794178D01*
X14834331Y-42538608D01*
X14892312Y-42272073D01*
X14911771Y-42000000D01*
X14892312Y-41727927D01*
X14834331Y-41461392D01*
X14817783Y-41417027D01*
X14739012Y-41205831D01*
X14739011Y-41205830D01*
X14739010Y-41205829D01*
X14739008Y-41205822D01*
X14608284Y-40966419D01*
X14608282Y-40966415D01*
X14608281Y-40966414D01*
X14444822Y-40748058D01*
X14251941Y-40555177D01*
X14033585Y-40391718D01*
X14033584Y-40391717D01*
X13935177Y-40337983D01*
X13794178Y-40260992D01*
X13794172Y-40260990D01*
X13794169Y-40260988D01*
X13794168Y-40260987D01*
X13538612Y-40165670D01*
X13538613Y-40165670D01*
X13272079Y-40107689D01*
X13272076Y-40107688D01*
X13272073Y-40107688D01*
X13000000Y-40088229D01*
X12727927Y-40107688D01*
X12727923Y-40107688D01*
X12727920Y-40107689D01*
X12461387Y-40165670D01*
X12205831Y-40260987D01*
X12205830Y-40260988D01*
X12205824Y-40260991D01*
X12205822Y-40260992D01*
X12149028Y-40292003D01*
X11966415Y-40391717D01*
X11966414Y-40391718D01*
X11748058Y-40555177D01*
X11555177Y-40748058D01*
X11391718Y-40966414D01*
X11391717Y-40966415D01*
X11260988Y-41205830D01*
X11260987Y-41205831D01*
X11165670Y-41461387D01*
X11107689Y-41727920D01*
X11107688Y-41727923D01*
X11107688Y-41727927D01*
X11088229Y-42000000D01*
X500500Y-42000000D01*
X500500Y-37000000D01*
X11088229Y-37000000D01*
X11107688Y-37272073D01*
X11107688Y-37272076D01*
X11107689Y-37272079D01*
X11165670Y-37538612D01*
X11260987Y-37794168D01*
X11260988Y-37794169D01*
X11260990Y-37794172D01*
X11260992Y-37794178D01*
X11337983Y-37935177D01*
X11391717Y-38033584D01*
X11391718Y-38033585D01*
X11555177Y-38251941D01*
X11748058Y-38444822D01*
X11966414Y-38608281D01*
X11966415Y-38608282D01*
X11966419Y-38608284D01*
X12205822Y-38739008D01*
X12205829Y-38739010D01*
X12205830Y-38739011D01*
X12205831Y-38739012D01*
X12461387Y-38834329D01*
X12461392Y-38834331D01*
X12727927Y-38892312D01*
X13000000Y-38911771D01*
X13272073Y-38892312D01*
X13538608Y-38834331D01*
X13705448Y-38772102D01*
X13794168Y-38739012D01*
X13794168Y-38739011D01*
X13794178Y-38739008D01*
X14033581Y-38608284D01*
X14251944Y-38444820D01*
X14444820Y-38251944D01*
X14608284Y-38033581D01*
X14739008Y-37794178D01*
X14834331Y-37538608D01*
X14892312Y-37272073D01*
X14911771Y-37000000D01*
X14892312Y-36727927D01*
X14834331Y-36461392D01*
X14817783Y-36417027D01*
X14739012Y-36205831D01*
X14739011Y-36205830D01*
X14739010Y-36205829D01*
X14739008Y-36205822D01*
X14608284Y-35966419D01*
X14608282Y-35966415D01*
X14608281Y-35966414D01*
X14444822Y-35748058D01*
X14251941Y-35555177D01*
X14033585Y-35391718D01*
X14033584Y-35391717D01*
X13935177Y-35337983D01*
X13794178Y-35260992D01*
X13794172Y-35260990D01*
X13794169Y-35260988D01*
X13794168Y-35260987D01*
X13538612Y-35165670D01*
X13538613Y-35165670D01*
X13272079Y-35107689D01*
X13272076Y-35107688D01*
X13272073Y-35107688D01*
X13000000Y-35088229D01*
X12727927Y-35107688D01*
X12727923Y-35107688D01*
X12727920Y-35107689D01*
X12461387Y-35165670D01*
X12205831Y-35260987D01*
X12205830Y-35260988D01*
X12205824Y-35260991D01*
X12205822Y-35260992D01*
X12149028Y-35292003D01*
X11966415Y-35391717D01*
X11966414Y-35391718D01*
X11748058Y-35555177D01*
X11555177Y-35748058D01*
X11391718Y-35966414D01*
X11391717Y-35966415D01*
X11260988Y-36205830D01*
X11260987Y-36205831D01*
X11165670Y-36461387D01*
X11107689Y-36727920D01*
X11107688Y-36727923D01*
X11107688Y-36727927D01*
X11088229Y-37000000D01*
X500500Y-37000000D01*
X500500Y-30479986D01*
X11296800Y-30479986D01*
X11296800Y-31796800D01*
X12433282Y-31796800D01*
X12400000Y-31921009D01*
X12400000Y-32078991D01*
X12433282Y-32203200D01*
X11296800Y-32203200D01*
X11296800Y-33520013D01*
X11308589Y-33579284D01*
X11353500Y-33646498D01*
X11353501Y-33646499D01*
X11420715Y-33691410D01*
X11479987Y-33703200D01*
X12796800Y-33703200D01*
X12796800Y-32566718D01*
X12921009Y-32600000D01*
X13078991Y-32600000D01*
X13203200Y-32566718D01*
X13203200Y-33703200D01*
X14520013Y-33703200D01*
X14579284Y-33691410D01*
X14646498Y-33646499D01*
X14646499Y-33646498D01*
X14691410Y-33579284D01*
X14703200Y-33520013D01*
X14703200Y-32203200D01*
X13566718Y-32203200D01*
X13600000Y-32078991D01*
X13600000Y-31921009D01*
X13566718Y-31796800D01*
X14703200Y-31796800D01*
X14703200Y-31387499D01*
X45526019Y-31387499D01*
X45544297Y-31561411D01*
X45598336Y-31727724D01*
X45598337Y-31727727D01*
X45685773Y-31879171D01*
X45710741Y-31906901D01*
X45802782Y-32009124D01*
X45802786Y-32009127D01*
X45898946Y-32078991D01*
X45944260Y-32111914D01*
X46104014Y-32183041D01*
X46275065Y-32219399D01*
X46275066Y-32219399D01*
X46449936Y-32219399D01*
X46449937Y-32219399D01*
X46620988Y-32183041D01*
X46780742Y-32111914D01*
X46851809Y-32060280D01*
X46896635Y-32027713D01*
X46955766Y-32008500D01*
X56066943Y-32008500D01*
X56066945Y-32008500D01*
X56066947Y-32008499D01*
X56066950Y-32008499D01*
X56196270Y-31973848D01*
X56196269Y-31973848D01*
X56196274Y-31973847D01*
X56312227Y-31906901D01*
X56906901Y-31312226D01*
X56973847Y-31196274D01*
X57008500Y-31066945D01*
X57008500Y-30933055D01*
X57008500Y-28710096D01*
X57027713Y-28650965D01*
X57049970Y-28628708D01*
X57052321Y-28626999D01*
X57059716Y-28621627D01*
X57176728Y-28491672D01*
X57264164Y-28340228D01*
X57318203Y-28173914D01*
X57336482Y-28000000D01*
X57318203Y-27826086D01*
X57264164Y-27659772D01*
X57176728Y-27508328D01*
X57127421Y-27453568D01*
X57059718Y-27378374D01*
X57059714Y-27378371D01*
X56918244Y-27275587D01*
X56918243Y-27275586D01*
X56918241Y-27275585D01*
X56758487Y-27204458D01*
X56587436Y-27168100D01*
X56412564Y-27168100D01*
X56327038Y-27186279D01*
X56241512Y-27204458D01*
X56081755Y-27275587D01*
X55940285Y-27378371D01*
X55940281Y-27378374D01*
X55823270Y-27508330D01*
X55735836Y-27659771D01*
X55735835Y-27659774D01*
X55681796Y-27826087D01*
X55663518Y-28000000D01*
X55681796Y-28173912D01*
X55735835Y-28340225D01*
X55735836Y-28340228D01*
X55823271Y-28491671D01*
X55823272Y-28491672D01*
X55940281Y-28621625D01*
X55940284Y-28621627D01*
X55950030Y-28628708D01*
X55986576Y-28679007D01*
X55991500Y-28710096D01*
X55991500Y-30747702D01*
X55972287Y-30806833D01*
X55962035Y-30818837D01*
X55818837Y-30962035D01*
X55763439Y-30990261D01*
X55747702Y-30991500D01*
X47152547Y-30991500D01*
X47093416Y-30972287D01*
X47065425Y-30941200D01*
X47039229Y-30895827D01*
X47039228Y-30895826D01*
X46922219Y-30765874D01*
X46922215Y-30765870D01*
X46780745Y-30663086D01*
X46780744Y-30663085D01*
X46780742Y-30663084D01*
X46620988Y-30591957D01*
X46449937Y-30555599D01*
X46275065Y-30555599D01*
X46189539Y-30573778D01*
X46104013Y-30591957D01*
X45944256Y-30663086D01*
X45802786Y-30765870D01*
X45802782Y-30765873D01*
X45685771Y-30895829D01*
X45598337Y-31047270D01*
X45598336Y-31047273D01*
X45544297Y-31213586D01*
X45526019Y-31387499D01*
X14703200Y-31387499D01*
X14703200Y-30479986D01*
X14691410Y-30420715D01*
X14646499Y-30353501D01*
X14646498Y-30353500D01*
X14579284Y-30308589D01*
X14520013Y-30296800D01*
X13203200Y-30296800D01*
X13203200Y-31433281D01*
X13078991Y-31400000D01*
X12921009Y-31400000D01*
X12796800Y-31433281D01*
X12796800Y-30296800D01*
X11479987Y-30296800D01*
X11420715Y-30308589D01*
X11353501Y-30353500D01*
X11353500Y-30353501D01*
X11308589Y-30420715D01*
X11296800Y-30479986D01*
X500500Y-30479986D01*
X500500Y-17186522D01*
X11993100Y-17186522D01*
X11993100Y-20313455D01*
X11993101Y-20313478D01*
X11999332Y-20392654D01*
X12048672Y-20576794D01*
X12135217Y-20746647D01*
X12135221Y-20746654D01*
X12255193Y-20894807D01*
X12403346Y-21014779D01*
X12403348Y-21014780D01*
X12403352Y-21014782D01*
X12573205Y-21101327D01*
X12679519Y-21129813D01*
X12757348Y-21150668D01*
X12836533Y-21156900D01*
X14163466Y-21156899D01*
X14242652Y-21150668D01*
X14426794Y-21101327D01*
X14596654Y-21014779D01*
X14744807Y-20894807D01*
X14864779Y-20746654D01*
X14951327Y-20576794D01*
X15000668Y-20392652D01*
X15006900Y-20313467D01*
X15006899Y-17186534D01*
X15006898Y-17186522D01*
X16493100Y-17186522D01*
X16493100Y-20313455D01*
X16493101Y-20313478D01*
X16499332Y-20392654D01*
X16548672Y-20576794D01*
X16635217Y-20746647D01*
X16635221Y-20746654D01*
X16755193Y-20894807D01*
X16903346Y-21014779D01*
X16903348Y-21014780D01*
X16903352Y-21014782D01*
X17073205Y-21101327D01*
X17179519Y-21129813D01*
X17257348Y-21150668D01*
X17336533Y-21156900D01*
X18663466Y-21156899D01*
X18742652Y-21150668D01*
X18926794Y-21101327D01*
X19096654Y-21014779D01*
X19244807Y-20894807D01*
X19364779Y-20746654D01*
X19451327Y-20576794D01*
X19500668Y-20392652D01*
X19506900Y-20313467D01*
X19506899Y-17186534D01*
X19506898Y-17186522D01*
X20993100Y-17186522D01*
X20993100Y-20313455D01*
X20993101Y-20313478D01*
X20999332Y-20392654D01*
X21048672Y-20576794D01*
X21135217Y-20746647D01*
X21135221Y-20746654D01*
X21255193Y-20894807D01*
X21403346Y-21014779D01*
X21403348Y-21014780D01*
X21403352Y-21014782D01*
X21573205Y-21101327D01*
X21679519Y-21129813D01*
X21757348Y-21150668D01*
X21836533Y-21156900D01*
X23163466Y-21156899D01*
X23242652Y-21150668D01*
X23426794Y-21101327D01*
X23596654Y-21014779D01*
X23744807Y-20894807D01*
X23864779Y-20746654D01*
X23951327Y-20576794D01*
X24000668Y-20392652D01*
X24006900Y-20313467D01*
X24006899Y-17186534D01*
X24000668Y-17107348D01*
X23951327Y-16923206D01*
X23951327Y-16923205D01*
X23864782Y-16753352D01*
X23864780Y-16753348D01*
X23864779Y-16753346D01*
X23744807Y-16605193D01*
X23596654Y-16485221D01*
X23596652Y-16485220D01*
X23596651Y-16485219D01*
X23596647Y-16485217D01*
X23426794Y-16398672D01*
X23242654Y-16349332D01*
X23163467Y-16343100D01*
X21836544Y-16343100D01*
X21836521Y-16343101D01*
X21757345Y-16349332D01*
X21573205Y-16398672D01*
X21403352Y-16485217D01*
X21403348Y-16485219D01*
X21255193Y-16605193D01*
X21135219Y-16753348D01*
X21135217Y-16753352D01*
X21048672Y-16923205D01*
X20999332Y-17107345D01*
X20993100Y-17186522D01*
X19506898Y-17186522D01*
X19500668Y-17107348D01*
X19451327Y-16923206D01*
X19451327Y-16923205D01*
X19364782Y-16753352D01*
X19364780Y-16753348D01*
X19364779Y-16753346D01*
X19244807Y-16605193D01*
X19096654Y-16485221D01*
X19096652Y-16485220D01*
X19096651Y-16485219D01*
X19096647Y-16485217D01*
X18926794Y-16398672D01*
X18742654Y-16349332D01*
X18663467Y-16343100D01*
X17336544Y-16343100D01*
X17336521Y-16343101D01*
X17257345Y-16349332D01*
X17073205Y-16398672D01*
X16903352Y-16485217D01*
X16903348Y-16485219D01*
X16755193Y-16605193D01*
X16635219Y-16753348D01*
X16635217Y-16753352D01*
X16548672Y-16923205D01*
X16499332Y-17107345D01*
X16493100Y-17186522D01*
X15006898Y-17186522D01*
X15000668Y-17107348D01*
X14951327Y-16923206D01*
X14951327Y-16923205D01*
X14864782Y-16753352D01*
X14864780Y-16753348D01*
X14864779Y-16753346D01*
X14744807Y-16605193D01*
X14596654Y-16485221D01*
X14596652Y-16485220D01*
X14596651Y-16485219D01*
X14596647Y-16485217D01*
X14426794Y-16398672D01*
X14242654Y-16349332D01*
X14163467Y-16343100D01*
X12836544Y-16343100D01*
X12836521Y-16343101D01*
X12757345Y-16349332D01*
X12573205Y-16398672D01*
X12403352Y-16485217D01*
X12403348Y-16485219D01*
X12255193Y-16605193D01*
X12135219Y-16753348D01*
X12135217Y-16753352D01*
X12048672Y-16923205D01*
X11999332Y-17107345D01*
X11993100Y-17186522D01*
X500500Y-17186522D01*
X500500Y-13000000D01*
X42708518Y-13000000D01*
X42726796Y-13173912D01*
X42726797Y-13173914D01*
X42780836Y-13340228D01*
X42868272Y-13491672D01*
X42909954Y-13537965D01*
X42985281Y-13621625D01*
X42985284Y-13621627D01*
X43126759Y-13724415D01*
X43286513Y-13795542D01*
X43457564Y-13831900D01*
X43457565Y-13831900D01*
X43632435Y-13831900D01*
X43632436Y-13831900D01*
X43803487Y-13795542D01*
X43963241Y-13724415D01*
X44104716Y-13621627D01*
X44176605Y-13541785D01*
X44230450Y-13510698D01*
X44251366Y-13508500D01*
X47997702Y-13508500D01*
X48056833Y-13527713D01*
X48068837Y-13537965D01*
X49437773Y-14906901D01*
X49553726Y-14973847D01*
X49553728Y-14973848D01*
X49683049Y-15008499D01*
X49683053Y-15008499D01*
X49683055Y-15008500D01*
X54747702Y-15008500D01*
X54806833Y-15027713D01*
X54818837Y-15037965D01*
X55267774Y-15486901D01*
X55383726Y-15553847D01*
X55383728Y-15553848D01*
X55513049Y-15588499D01*
X55513053Y-15588499D01*
X55513055Y-15588500D01*
X55646945Y-15588500D01*
X56484500Y-15588500D01*
X56543631Y-15607713D01*
X56580176Y-15658013D01*
X56585100Y-15689100D01*
X56585100Y-16590109D01*
X56620259Y-16766869D01*
X56689224Y-16933364D01*
X56689226Y-16933368D01*
X56739627Y-17008798D01*
X56789349Y-17083213D01*
X56789351Y-17083215D01*
X58789351Y-19083215D01*
X58916785Y-19210649D01*
X59066632Y-19310774D01*
X59137733Y-19340225D01*
X59233130Y-19379740D01*
X59233131Y-19379740D01*
X59233133Y-19379741D01*
X59409890Y-19414900D01*
X64970866Y-19414900D01*
X65029997Y-19434113D01*
X65057988Y-19465200D01*
X65073272Y-19491672D01*
X65116444Y-19539620D01*
X65190281Y-19621625D01*
X65190284Y-19621627D01*
X65331759Y-19724415D01*
X65491513Y-19795542D01*
X65662564Y-19831900D01*
X65662565Y-19831900D01*
X65837435Y-19831900D01*
X65837436Y-19831900D01*
X66008487Y-19795542D01*
X66168241Y-19724415D01*
X66309716Y-19621627D01*
X66426728Y-19491672D01*
X66514164Y-19340228D01*
X66568203Y-19173914D01*
X66586482Y-19000000D01*
X66568203Y-18826086D01*
X66514164Y-18659772D01*
X66450959Y-18550298D01*
X66438033Y-18489485D01*
X66450960Y-18449700D01*
X66514164Y-18340228D01*
X66568203Y-18173914D01*
X66586482Y-18000000D01*
X66568203Y-17826086D01*
X66514164Y-17659772D01*
X66426728Y-17508328D01*
X66377421Y-17453568D01*
X66309718Y-17378374D01*
X66309714Y-17378371D01*
X66168244Y-17275587D01*
X66168243Y-17275586D01*
X66168241Y-17275585D01*
X66008487Y-17204458D01*
X65837436Y-17168100D01*
X65662564Y-17168100D01*
X65577038Y-17186279D01*
X65491512Y-17204458D01*
X65331755Y-17275587D01*
X65190285Y-17378371D01*
X65190281Y-17378374D01*
X65073270Y-17508330D01*
X65057988Y-17534800D01*
X65011783Y-17576403D01*
X64970866Y-17585100D01*
X59920634Y-17585100D01*
X59861503Y-17565887D01*
X59849499Y-17555635D01*
X58444365Y-16150501D01*
X58416139Y-16095103D01*
X58414900Y-16079366D01*
X58414900Y-15290000D01*
X59488299Y-15290000D01*
X59505525Y-15486900D01*
X59507467Y-15509089D01*
X59507468Y-15509100D01*
X59547370Y-15658013D01*
X59564389Y-15721527D01*
X59657335Y-15920851D01*
X59783481Y-16101006D01*
X59938994Y-16256519D01*
X60119149Y-16382665D01*
X60318473Y-16475611D01*
X60465643Y-16515045D01*
X60530899Y-16532531D01*
X60530901Y-16532531D01*
X60530908Y-16532533D01*
X60721600Y-16549216D01*
X60749998Y-16551701D01*
X60750000Y-16551701D01*
X60750002Y-16551701D01*
X60776670Y-16549367D01*
X60969092Y-16532533D01*
X60969099Y-16532531D01*
X60969100Y-16532531D01*
X60991869Y-16526429D01*
X61181527Y-16475611D01*
X61380851Y-16382665D01*
X61561006Y-16256519D01*
X61716519Y-16101006D01*
X61842665Y-15920851D01*
X61935611Y-15721527D01*
X61992533Y-15509092D01*
X62011701Y-15290000D01*
X61992533Y-15070908D01*
X61975810Y-15008499D01*
X61948586Y-14906898D01*
X61935611Y-14858473D01*
X61842665Y-14659150D01*
X61716519Y-14478994D01*
X61561006Y-14323481D01*
X61380851Y-14197335D01*
X61380843Y-14197331D01*
X61377051Y-14195142D01*
X61378061Y-14193392D01*
X61338256Y-14156281D01*
X61326387Y-14095250D01*
X61352657Y-14038898D01*
X61407033Y-14008750D01*
X61426238Y-14006900D01*
X61632026Y-14006900D01*
X61632030Y-14006899D01*
X61727306Y-13991809D01*
X61842151Y-13933292D01*
X61933292Y-13842151D01*
X61991809Y-13727306D01*
X62006900Y-13632024D01*
X62006900Y-11867976D01*
X61991809Y-11772694D01*
X61933292Y-11657849D01*
X61842151Y-11566708D01*
X61842150Y-11566707D01*
X61727306Y-11508191D01*
X61727303Y-11508190D01*
X61632030Y-11493100D01*
X61632024Y-11493100D01*
X59867976Y-11493100D01*
X59867969Y-11493100D01*
X59772696Y-11508190D01*
X59772693Y-11508191D01*
X59657849Y-11566707D01*
X59566707Y-11657849D01*
X59508191Y-11772693D01*
X59508190Y-11772696D01*
X59493100Y-11867969D01*
X59493100Y-13632030D01*
X59508190Y-13727303D01*
X59508191Y-13727306D01*
X59561484Y-13831900D01*
X59566708Y-13842151D01*
X59657849Y-13933292D01*
X59772694Y-13991809D01*
X59843631Y-14003044D01*
X59867969Y-14006899D01*
X59867974Y-14006900D01*
X60073763Y-14006900D01*
X60132894Y-14026113D01*
X60169439Y-14076413D01*
X60169439Y-14138587D01*
X60132894Y-14188887D01*
X60122778Y-14194844D01*
X60122950Y-14195142D01*
X60119147Y-14197337D01*
X59938991Y-14323483D01*
X59783483Y-14478991D01*
X59657337Y-14659147D01*
X59657332Y-14659155D01*
X59564390Y-14858469D01*
X59507468Y-15070899D01*
X59507467Y-15070906D01*
X59507467Y-15070908D01*
X59488299Y-15290000D01*
X58414900Y-15290000D01*
X58414900Y-14989890D01*
X58411709Y-14973847D01*
X58379741Y-14813133D01*
X58310774Y-14646632D01*
X58235511Y-14533993D01*
X58210650Y-14496786D01*
X58083213Y-14369349D01*
X58008798Y-14319627D01*
X57933368Y-14269226D01*
X57933365Y-14269224D01*
X57933364Y-14269224D01*
X57766869Y-14200259D01*
X57649029Y-14176819D01*
X57590110Y-14165100D01*
X57409890Y-14165100D01*
X57365700Y-14173889D01*
X57233130Y-14200259D01*
X57066635Y-14269224D01*
X56916786Y-14369349D01*
X56916785Y-14369351D01*
X56789352Y-14496783D01*
X56769302Y-14526791D01*
X56720475Y-14565282D01*
X56685656Y-14571500D01*
X55832297Y-14571500D01*
X55773166Y-14552287D01*
X55761162Y-14542035D01*
X55542610Y-14323483D01*
X55312227Y-14093099D01*
X55312226Y-14093098D01*
X55312225Y-14093097D01*
X55196275Y-14026153D01*
X55196270Y-14026151D01*
X55066950Y-13991500D01*
X55066945Y-13991500D01*
X50002298Y-13991500D01*
X49943167Y-13972287D01*
X49931163Y-13962035D01*
X48562229Y-12593101D01*
X48562227Y-12593099D01*
X48446274Y-12526153D01*
X48446271Y-12526151D01*
X48316950Y-12491500D01*
X48316945Y-12491500D01*
X44251366Y-12491500D01*
X44192235Y-12472287D01*
X44176605Y-12458214D01*
X44104718Y-12378375D01*
X44104714Y-12378371D01*
X43963244Y-12275587D01*
X43963243Y-12275586D01*
X43963241Y-12275585D01*
X43803487Y-12204458D01*
X43632436Y-12168100D01*
X43457564Y-12168100D01*
X43372038Y-12186279D01*
X43286512Y-12204458D01*
X43126755Y-12275587D01*
X42985285Y-12378371D01*
X42985281Y-12378374D01*
X42868270Y-12508330D01*
X42780836Y-12659771D01*
X42780835Y-12659774D01*
X42726796Y-12826087D01*
X42708518Y-13000000D01*
X500500Y-13000000D01*
X500500Y-4796799D01*
X11961717Y-4796799D01*
X11961719Y-4796800D01*
X12539968Y-4796800D01*
X12534075Y-4807007D01*
X12500000Y-4934174D01*
X12500000Y-5065826D01*
X12534075Y-5192993D01*
X12539968Y-5203200D01*
X11961718Y-5203200D01*
X11962038Y-5206462D01*
X11962039Y-5206467D01*
X12022259Y-5404986D01*
X12022262Y-5404994D01*
X12120054Y-5587951D01*
X12120063Y-5587964D01*
X12251667Y-5748322D01*
X12251677Y-5748332D01*
X12412035Y-5879936D01*
X12412048Y-5879945D01*
X12595005Y-5977737D01*
X12595013Y-5977740D01*
X12793532Y-6037960D01*
X12793537Y-6037961D01*
X12796799Y-6038282D01*
X12796800Y-6038281D01*
X12796800Y-5460031D01*
X12807007Y-5465925D01*
X12934174Y-5500000D01*
X13065826Y-5500000D01*
X13192993Y-5465925D01*
X13203200Y-5460031D01*
X13203200Y-6038282D01*
X13206462Y-6037961D01*
X13206467Y-6037960D01*
X13404986Y-5977740D01*
X13404994Y-5977737D01*
X13587951Y-5879945D01*
X13587964Y-5879936D01*
X13748322Y-5748332D01*
X13748332Y-5748322D01*
X13879936Y-5587964D01*
X13879945Y-5587951D01*
X13977737Y-5404994D01*
X13977740Y-5404986D01*
X14037960Y-5206467D01*
X14037961Y-5206462D01*
X14038282Y-5203200D01*
X13460032Y-5203200D01*
X13465925Y-5192993D01*
X13500000Y-5065826D01*
X13500000Y-4934174D01*
X13465925Y-4807007D01*
X13460032Y-4796800D01*
X14038281Y-4796800D01*
X14038282Y-4796799D01*
X14037961Y-4793537D01*
X14037960Y-4793532D01*
X13977740Y-4595013D01*
X13977737Y-4595005D01*
X13879945Y-4412048D01*
X13879936Y-4412035D01*
X13748332Y-4251677D01*
X13748322Y-4251667D01*
X13587964Y-4120063D01*
X13587951Y-4120054D01*
X13584050Y-4117969D01*
X14283100Y-4117969D01*
X14283100Y-5882030D01*
X14298190Y-5977303D01*
X14298191Y-5977306D01*
X14329259Y-6038281D01*
X14356708Y-6092151D01*
X14447849Y-6183292D01*
X14562694Y-6241809D01*
X14633631Y-6253044D01*
X14657969Y-6256899D01*
X14657974Y-6256900D01*
X14657976Y-6256900D01*
X16422026Y-6256900D01*
X16422030Y-6256899D01*
X16517306Y-6241809D01*
X16632151Y-6183292D01*
X16723292Y-6092151D01*
X16781809Y-5977306D01*
X16796900Y-5882024D01*
X16796900Y-4878709D01*
X23149500Y-4878709D01*
X23149500Y-5121290D01*
X23181159Y-5361774D01*
X23181160Y-5361783D01*
X23243945Y-5596100D01*
X23243946Y-5596102D01*
X23336775Y-5820211D01*
X23458063Y-6030289D01*
X23605730Y-6222733D01*
X23777266Y-6394269D01*
X23969710Y-6541936D01*
X24179788Y-6663224D01*
X24403897Y-6756053D01*
X24403899Y-6756054D01*
X24507214Y-6783737D01*
X24638211Y-6818838D01*
X24638213Y-6818838D01*
X24638216Y-6818839D01*
X24638225Y-6818840D01*
X24878710Y-6850500D01*
X24878712Y-6850500D01*
X25121290Y-6850500D01*
X25361774Y-6818840D01*
X25361783Y-6818839D01*
X25361784Y-6818838D01*
X25361789Y-6818838D01*
X25596100Y-6756054D01*
X25820212Y-6663224D01*
X26030289Y-6541936D01*
X26222738Y-6394265D01*
X26394265Y-6222738D01*
X26494469Y-6092150D01*
X26541936Y-6030289D01*
X26627533Y-5882030D01*
X26663224Y-5820212D01*
X26756054Y-5596100D01*
X26818838Y-5361789D01*
X26850500Y-5121288D01*
X26850500Y-4878712D01*
X26850500Y-4878709D01*
X73149500Y-4878709D01*
X73149500Y-5121290D01*
X73181159Y-5361774D01*
X73181160Y-5361783D01*
X73243945Y-5596100D01*
X73243946Y-5596102D01*
X73336775Y-5820211D01*
X73458063Y-6030289D01*
X73605730Y-6222733D01*
X73777266Y-6394269D01*
X73969710Y-6541936D01*
X74179788Y-6663224D01*
X74403897Y-6756053D01*
X74403899Y-6756054D01*
X74507214Y-6783737D01*
X74638211Y-6818838D01*
X74638213Y-6818838D01*
X74638216Y-6818839D01*
X74638225Y-6818840D01*
X74878710Y-6850500D01*
X74878712Y-6850500D01*
X75121290Y-6850500D01*
X75361774Y-6818840D01*
X75361783Y-6818839D01*
X75361784Y-6818838D01*
X75361789Y-6818838D01*
X75596100Y-6756054D01*
X75820212Y-6663224D01*
X76030289Y-6541936D01*
X76222738Y-6394265D01*
X76394265Y-6222738D01*
X76494469Y-6092150D01*
X76541936Y-6030289D01*
X76627533Y-5882030D01*
X76663224Y-5820212D01*
X76756054Y-5596100D01*
X76818838Y-5361789D01*
X76850500Y-5121288D01*
X76850500Y-4878712D01*
X76839716Y-4796800D01*
X76818840Y-4638225D01*
X76818839Y-4638216D01*
X76756054Y-4403899D01*
X76756053Y-4403897D01*
X76663224Y-4179788D01*
X76541936Y-3969710D01*
X76394269Y-3777266D01*
X76222733Y-3605730D01*
X76030289Y-3458063D01*
X75820211Y-3336775D01*
X75596102Y-3243946D01*
X75596100Y-3243945D01*
X75361783Y-3181160D01*
X75361774Y-3181159D01*
X75121290Y-3149500D01*
X75121288Y-3149500D01*
X74878712Y-3149500D01*
X74878710Y-3149500D01*
X74638225Y-3181159D01*
X74638216Y-3181160D01*
X74403899Y-3243945D01*
X74403897Y-3243946D01*
X74179788Y-3336775D01*
X73969710Y-3458063D01*
X73777266Y-3605730D01*
X73605730Y-3777266D01*
X73458063Y-3969710D01*
X73336775Y-4179788D01*
X73243946Y-4403897D01*
X73243945Y-4403899D01*
X73181160Y-4638216D01*
X73181159Y-4638225D01*
X73149500Y-4878709D01*
X26850500Y-4878709D01*
X26839716Y-4796800D01*
X26818840Y-4638225D01*
X26818839Y-4638216D01*
X26756054Y-4403899D01*
X26756053Y-4403897D01*
X26663224Y-4179788D01*
X26541936Y-3969710D01*
X26394269Y-3777266D01*
X26222733Y-3605730D01*
X26030289Y-3458063D01*
X25820211Y-3336775D01*
X25596102Y-3243946D01*
X25596100Y-3243945D01*
X25361783Y-3181160D01*
X25361774Y-3181159D01*
X25121290Y-3149500D01*
X25121288Y-3149500D01*
X24878712Y-3149500D01*
X24878710Y-3149500D01*
X24638225Y-3181159D01*
X24638216Y-3181160D01*
X24403899Y-3243945D01*
X24403897Y-3243946D01*
X24179788Y-3336775D01*
X23969710Y-3458063D01*
X23777266Y-3605730D01*
X23605730Y-3777266D01*
X23458063Y-3969710D01*
X23336775Y-4179788D01*
X23243946Y-4403897D01*
X23243945Y-4403899D01*
X23181160Y-4638216D01*
X23181159Y-4638225D01*
X23149500Y-4878709D01*
X16796900Y-4878709D01*
X16796900Y-4117976D01*
X16781809Y-4022694D01*
X16723292Y-3907849D01*
X16632151Y-3816708D01*
X16632150Y-3816707D01*
X16517306Y-3758191D01*
X16517303Y-3758190D01*
X16422030Y-3743100D01*
X16422024Y-3743100D01*
X14657976Y-3743100D01*
X14657969Y-3743100D01*
X14562696Y-3758190D01*
X14562693Y-3758191D01*
X14447849Y-3816707D01*
X14356707Y-3907849D01*
X14298191Y-4022693D01*
X14298190Y-4022696D01*
X14283100Y-4117969D01*
X13584050Y-4117969D01*
X13404994Y-4022262D01*
X13404987Y-4022259D01*
X13206463Y-3962039D01*
X13203200Y-3961717D01*
X13203200Y-4539968D01*
X13192993Y-4534075D01*
X13065826Y-4500000D01*
X12934174Y-4500000D01*
X12807007Y-4534075D01*
X12796800Y-4539968D01*
X12796800Y-3961717D01*
X12793536Y-3962039D01*
X12793535Y-3962039D01*
X12595012Y-4022259D01*
X12595005Y-4022262D01*
X12412048Y-4120054D01*
X12412035Y-4120063D01*
X12251677Y-4251667D01*
X12251667Y-4251677D01*
X12120063Y-4412035D01*
X12120054Y-4412048D01*
X12022262Y-4595005D01*
X12022259Y-4595013D01*
X11962039Y-4793532D01*
X11962038Y-4793537D01*
X11961717Y-4796799D01*
X500500Y-4796799D01*
X500500Y-2503299D01*
X500715Y-2496719D01*
X517175Y-2245588D01*
X518893Y-2232542D01*
X567347Y-1988944D01*
X570746Y-1976258D01*
X650588Y-1741053D01*
X655615Y-1728918D01*
X765465Y-1506163D01*
X772041Y-1494774D01*
X819838Y-1423241D01*
X910034Y-1288252D01*
X918029Y-1277834D01*
X1081798Y-1091090D01*
X1091090Y-1081798D01*
X1277834Y-918029D01*
X1288252Y-910034D01*
X1494774Y-772041D01*
X1506163Y-765465D01*
X1728918Y-655615D01*
X1741053Y-650588D01*
X1976258Y-570746D01*
X1988944Y-567347D01*
X2232544Y-518892D01*
X2245587Y-517175D01*
X2496720Y-500715D01*
X2503300Y-500500D01*
X2565892Y-500500D01*
X77434108Y-500500D01*
X77496700Y-500500D01*
X77503280Y-500715D01*
G37*
%TD.AperFunction*%
%TD*%
M02*
