%TF.GenerationSoftware,KiCad,Pcbnew,8.0.8*%
%TF.CreationDate,2025-03-23T00:17:45+01:00*%
%TF.ProjectId,am_receiver_v2,616d5f72-6563-4656-9976-65725f76322e,rev?*%
%TF.SameCoordinates,Original*%
%TF.FileFunction,Soldermask,Top*%
%TF.FilePolarity,Negative*%
%FSLAX46Y46*%
G04 Gerber Fmt 4.6, Leading zero omitted, Abs format (unit mm)*
G04 Created by KiCad (PCBNEW 8.0.8) date 2025-03-23 00:17:45*
%MOMM*%
%LPD*%
G01*
G04 APERTURE LIST*
G04 Aperture macros list*
%AMRoundRect*
0 Rectangle with rounded corners*
0 $1 Rounding radius*
0 $2 $3 $4 $5 $6 $7 $8 $9 X,Y pos of 4 corners*
0 Add a 4 corners polygon primitive as box body*
4,1,4,$2,$3,$4,$5,$6,$7,$8,$9,$2,$3,0*
0 Add four circle primitives for the rounded corners*
1,1,$1+$1,$2,$3*
1,1,$1+$1,$4,$5*
1,1,$1+$1,$6,$7*
1,1,$1+$1,$8,$9*
0 Add four rect primitives between the rounded corners*
20,1,$1+$1,$2,$3,$4,$5,0*
20,1,$1+$1,$4,$5,$6,$7,0*
20,1,$1+$1,$6,$7,$8,$9,0*
20,1,$1+$1,$8,$9,$2,$3,0*%
G04 Aperture macros list end*
%ADD10R,0.508000X1.003300*%
%ADD11RoundRect,0.250000X0.337500X0.475000X-0.337500X0.475000X-0.337500X-0.475000X0.337500X-0.475000X0*%
%ADD12RoundRect,0.237500X0.237500X-0.300000X0.237500X0.300000X-0.237500X0.300000X-0.237500X-0.300000X0*%
%ADD13RoundRect,0.125000X-0.600000X-0.125000X0.600000X-0.125000X0.600000X0.125000X-0.600000X0.125000X0*%
%ADD14R,1.570000X1.890000*%
%ADD15RoundRect,0.500000X-0.600000X-1.500000X0.600000X-1.500000X0.600000X1.500000X-0.600000X1.500000X0*%
%ADD16RoundRect,0.150000X0.150000X-0.825000X0.150000X0.825000X-0.150000X0.825000X-0.150000X-0.825000X0*%
%ADD17RoundRect,0.150000X-0.825000X-0.150000X0.825000X-0.150000X0.825000X0.150000X-0.825000X0.150000X0*%
%ADD18RoundRect,0.125000X-0.125000X0.125000X-0.125000X-0.125000X0.125000X-0.125000X0.125000X0.125000X0*%
%ADD19RoundRect,0.237500X0.300000X0.237500X-0.300000X0.237500X-0.300000X-0.237500X0.300000X-0.237500X0*%
%ADD20RoundRect,0.237500X-0.237500X0.250000X-0.237500X-0.250000X0.237500X-0.250000X0.237500X0.250000X0*%
%ADD21C,3.200000*%
%ADD22RoundRect,0.237500X0.237500X-0.250000X0.237500X0.250000X-0.237500X0.250000X-0.237500X-0.250000X0*%
%ADD23R,1.700000X1.700000*%
%ADD24O,1.700000X1.700000*%
%ADD25RoundRect,0.237500X-0.250000X-0.237500X0.250000X-0.237500X0.250000X0.237500X-0.250000X0.237500X0*%
%ADD26RoundRect,0.237500X0.250000X0.237500X-0.250000X0.237500X-0.250000X-0.237500X0.250000X-0.237500X0*%
%ADD27RoundRect,0.250000X0.475000X-0.337500X0.475000X0.337500X-0.475000X0.337500X-0.475000X-0.337500X0*%
%ADD28RoundRect,0.125000X0.125000X0.125000X-0.125000X0.125000X-0.125000X-0.125000X0.125000X-0.125000X0*%
%ADD29RoundRect,0.237500X-0.300000X-0.237500X0.300000X-0.237500X0.300000X0.237500X-0.300000X0.237500X0*%
%ADD30RoundRect,0.237500X0.237500X-0.287500X0.237500X0.287500X-0.237500X0.287500X-0.237500X-0.287500X0*%
%ADD31RoundRect,0.250000X0.275000X0.350000X-0.275000X0.350000X-0.275000X-0.350000X0.275000X-0.350000X0*%
%ADD32R,3.000000X3.000000*%
%ADD33C,3.000000*%
%ADD34RoundRect,0.237500X-0.237500X0.300000X-0.237500X-0.300000X0.237500X-0.300000X0.237500X0.300000X0*%
%ADD35RoundRect,0.250000X-0.337500X-0.475000X0.337500X-0.475000X0.337500X0.475000X-0.337500X0.475000X0*%
%ADD36RoundRect,0.150000X0.587500X0.150000X-0.587500X0.150000X-0.587500X-0.150000X0.587500X-0.150000X0*%
G04 APERTURE END LIST*
D10*
%TO.C,U5*%
X66450001Y-68852550D03*
X64549999Y-68852550D03*
X64549999Y-66147450D03*
X65500000Y-66147450D03*
X66450001Y-66147450D03*
%TD*%
D11*
%TO.C,C24*%
X66787500Y-62500000D03*
X64712500Y-62500000D03*
%TD*%
%TO.C,C23*%
X66787500Y-74250000D03*
X64712500Y-74250000D03*
%TD*%
D12*
%TO.C,C10*%
X55975000Y-15152500D03*
X55975000Y-13427500D03*
%TD*%
D13*
%TO.C,U6*%
X48895000Y-13250000D03*
X48895000Y-13900000D03*
X48895000Y-14550000D03*
X48895000Y-15200000D03*
X53195000Y-15200000D03*
X53195000Y-14550000D03*
X53195000Y-13900000D03*
X53195000Y-13250000D03*
D14*
X51045000Y-14225000D03*
%TD*%
D15*
%TO.C,SW1*%
X13500000Y-18750000D03*
X18000000Y-18750000D03*
X22500000Y-18750000D03*
%TD*%
D16*
%TO.C,U1*%
X34095000Y-86225000D03*
X35365000Y-86225000D03*
X36635000Y-86225000D03*
X37905000Y-86225000D03*
X37905000Y-81275000D03*
X36635000Y-81275000D03*
X35365000Y-81275000D03*
X34095000Y-81275000D03*
%TD*%
%TO.C,U2*%
X34095000Y-72225000D03*
X35365000Y-72225000D03*
X36635000Y-72225000D03*
X37905000Y-72225000D03*
X37905000Y-67275000D03*
X36635000Y-67275000D03*
X35365000Y-67275000D03*
X34095000Y-67275000D03*
%TD*%
%TO.C,U4*%
X34095000Y-43225000D03*
X35365000Y-43225000D03*
X36635000Y-43225000D03*
X37905000Y-43225000D03*
X37905000Y-38275000D03*
X36635000Y-38275000D03*
X35365000Y-38275000D03*
X34095000Y-38275000D03*
%TD*%
%TO.C,U3*%
X34095000Y-57975000D03*
X35365000Y-57975000D03*
X36635000Y-57975000D03*
X37905000Y-57975000D03*
X37905000Y-53025000D03*
X36635000Y-53025000D03*
X35365000Y-53025000D03*
X34095000Y-53025000D03*
%TD*%
D17*
%TO.C,U7*%
X48775000Y-26845000D03*
X48775000Y-28115000D03*
X48775000Y-29385000D03*
X48775000Y-30655000D03*
X53725000Y-30655000D03*
X53725000Y-29385000D03*
X53725000Y-28115000D03*
X53725000Y-26845000D03*
%TD*%
D18*
%TO.C,D2*%
X65500000Y-84110000D03*
X65500000Y-86310000D03*
%TD*%
D19*
%TO.C,C29*%
X38862501Y-45500000D03*
X37137499Y-45500000D03*
%TD*%
%TO.C,C28*%
X38862501Y-60250000D03*
X37137499Y-60250000D03*
%TD*%
%TO.C,C27*%
X38862501Y-74500000D03*
X37137499Y-74500000D03*
%TD*%
D20*
%TO.C,R30*%
X43000000Y-72837500D03*
X43000000Y-74662500D03*
%TD*%
%TO.C,R29*%
X43000000Y-76337500D03*
X43000000Y-78162500D03*
%TD*%
D19*
%TO.C,C26*%
X38612501Y-88500000D03*
X36887499Y-88500000D03*
%TD*%
D21*
%TO.C,H4*%
X25000000Y-95000000D03*
%TD*%
%TO.C,H3*%
X25000000Y-5000000D03*
%TD*%
%TO.C,H2*%
X75000000Y-95000000D03*
%TD*%
%TO.C,H1*%
X75000000Y-5000000D03*
%TD*%
D22*
%TO.C,R13*%
X35250000Y-63912500D03*
X35250000Y-62087500D03*
%TD*%
D23*
%TO.C,J1*%
X68775000Y-83960000D03*
D24*
X68775000Y-86500000D03*
%TD*%
D12*
%TO.C,C17*%
X39750000Y-42112501D03*
X39750000Y-40387499D03*
%TD*%
D25*
%TO.C,R6*%
X52587500Y-87960000D03*
X54412500Y-87960000D03*
%TD*%
D20*
%TO.C,R27*%
X21500000Y-56087500D03*
X21500000Y-57912500D03*
%TD*%
D12*
%TO.C,C19*%
X63250000Y-85822501D03*
X63250000Y-84097499D03*
%TD*%
D26*
%TO.C,R5*%
X58412500Y-93710000D03*
X56587500Y-93710000D03*
%TD*%
D23*
%TO.C,J2*%
X60750000Y-12750000D03*
D24*
X60750000Y-15290000D03*
%TD*%
D23*
%TO.C,J6*%
X15540000Y-5000000D03*
D24*
X13000000Y-5000000D03*
%TD*%
D19*
%TO.C,C7*%
X35112501Y-60250000D03*
X33387499Y-60250000D03*
%TD*%
D22*
%TO.C,R8*%
X35000000Y-90325000D03*
X35000000Y-88500000D03*
%TD*%
D19*
%TO.C,C8*%
X40887499Y-33000000D03*
X42612501Y-33000000D03*
%TD*%
D27*
%TO.C,C3*%
X47000000Y-75962500D03*
X47000000Y-78037500D03*
%TD*%
D28*
%TO.C,D3*%
X13099999Y-12250000D03*
X10900001Y-12250000D03*
%TD*%
D29*
%TO.C,C2*%
X56912499Y-87960001D03*
X58637501Y-87960001D03*
%TD*%
D30*
%TO.C,D4*%
X10500000Y-9874999D03*
X10500000Y-8125001D03*
%TD*%
D22*
%TO.C,R28*%
X13500000Y-9912500D03*
X13500000Y-8087500D03*
%TD*%
D12*
%TO.C,C6*%
X32000000Y-86612501D03*
X32000000Y-84887499D03*
%TD*%
D29*
%TO.C,C13*%
X42657501Y-18500000D03*
X40932499Y-18500000D03*
%TD*%
D19*
%TO.C,C22*%
X64862501Y-70750000D03*
X63137499Y-70750000D03*
%TD*%
D12*
%TO.C,C15*%
X39750000Y-71112501D03*
X39750000Y-69387499D03*
%TD*%
D29*
%TO.C,C18*%
X51637499Y-25000000D03*
X53362501Y-25000000D03*
%TD*%
D31*
%TO.C,FB1*%
X54650000Y-93710000D03*
X52350000Y-93710000D03*
%TD*%
D25*
%TO.C,R20*%
X51382500Y-17500000D03*
X53207500Y-17500000D03*
%TD*%
D22*
%TO.C,R2*%
X56500000Y-26912500D03*
X56500000Y-25087500D03*
%TD*%
D32*
%TO.C,RV2*%
X13000000Y-56000000D03*
D33*
X13000000Y-61000000D03*
X13000000Y-66000000D03*
%TD*%
D22*
%TO.C,R17*%
X45250000Y-29412500D03*
X45250000Y-27587500D03*
%TD*%
D25*
%TO.C,R21*%
X46457500Y-16750000D03*
X44632500Y-16750000D03*
%TD*%
D29*
%TO.C,C9*%
X40887499Y-29500000D03*
X42612501Y-29500000D03*
%TD*%
D22*
%TO.C,R9*%
X30250000Y-86662500D03*
X30250000Y-84837500D03*
%TD*%
%TO.C,R14*%
X35500000Y-49162500D03*
X35500000Y-47337500D03*
%TD*%
D26*
%TO.C,R11*%
X33337500Y-74500000D03*
X35162500Y-74500000D03*
%TD*%
D22*
%TO.C,R7*%
X56500000Y-30662500D03*
X56500000Y-28837500D03*
%TD*%
D29*
%TO.C,C11*%
X44682499Y-14500000D03*
X46407501Y-14500000D03*
%TD*%
D20*
%TO.C,R24*%
X21500000Y-84837500D03*
X21500000Y-86662500D03*
%TD*%
D19*
%TO.C,C21*%
X66612501Y-64250000D03*
X64887499Y-64250000D03*
%TD*%
D34*
%TO.C,C1*%
X61250000Y-84097499D03*
X61250000Y-85822501D03*
%TD*%
D33*
%TO.C,RV1*%
X13000000Y-91000000D03*
X13000000Y-86000000D03*
D32*
X13000000Y-81000000D03*
%TD*%
D22*
%TO.C,R12*%
X35250000Y-76337500D03*
X35250000Y-78162500D03*
%TD*%
D25*
%TO.C,R19*%
X53207500Y-11000000D03*
X51382500Y-11000000D03*
%TD*%
D35*
%TO.C,C4*%
X54287500Y-90460000D03*
X52212500Y-90460000D03*
%TD*%
D12*
%TO.C,C14*%
X39750000Y-85112501D03*
X39750000Y-83387499D03*
%TD*%
D19*
%TO.C,C25*%
X66612501Y-72500000D03*
X64887499Y-72500000D03*
%TD*%
D25*
%TO.C,R3*%
X56837500Y-89710000D03*
X58662500Y-89710000D03*
%TD*%
D20*
%TO.C,R1*%
X61250000Y-87797500D03*
X61250000Y-89622500D03*
%TD*%
D25*
%TO.C,R4*%
X52587500Y-85960000D03*
X54412500Y-85960000D03*
%TD*%
D26*
%TO.C,R15*%
X35412500Y-45500000D03*
X33587500Y-45500000D03*
%TD*%
D12*
%TO.C,C20*%
X45250000Y-33112501D03*
X45250000Y-31387499D03*
%TD*%
D25*
%TO.C,R22*%
X46457500Y-18500000D03*
X44632500Y-18500000D03*
%TD*%
D26*
%TO.C,R16*%
X40837500Y-31250000D03*
X42662500Y-31250000D03*
%TD*%
D20*
%TO.C,R26*%
X21500000Y-81087500D03*
X21500000Y-82912500D03*
%TD*%
D12*
%TO.C,C16*%
X39750000Y-56862501D03*
X39750000Y-55137499D03*
%TD*%
D22*
%TO.C,R10*%
X28500000Y-86662500D03*
X28500000Y-84837500D03*
%TD*%
D25*
%TO.C,R25*%
X46457500Y-13000000D03*
X44632500Y-13000000D03*
%TD*%
D19*
%TO.C,C5*%
X54362501Y-83960000D03*
X52637499Y-83960000D03*
%TD*%
D29*
%TO.C,C12*%
X42657501Y-16750000D03*
X40932499Y-16750000D03*
%TD*%
D28*
%TO.C,D1*%
X39099999Y-33000000D03*
X36900001Y-33000000D03*
%TD*%
D36*
%TO.C,Q1*%
X58462500Y-85910000D03*
X58462500Y-84010000D03*
X56587499Y-84960000D03*
%TD*%
D22*
%TO.C,R18*%
X45250000Y-25662500D03*
X45250000Y-23837500D03*
%TD*%
D20*
%TO.C,R23*%
X21500000Y-60337500D03*
X21500000Y-62162500D03*
%TD*%
D32*
%TO.C,RV3*%
X13000000Y-32000000D03*
D33*
X13000000Y-37000000D03*
X13000000Y-42000000D03*
%TD*%
M02*
